<svg width="57" height="57" viewBox="0 0 57 57" fill="none" xmlns="http://www.w3.org/2000/svg">
<path d="M55.6503 38.9103H54.4795C54.1844 37.7782 53.7393 36.6992 53.1443 35.6905L53.9715 34.8632C54.4989 34.3359 54.4989 33.4795 53.9715 32.9522L51.3204 30.3009C51.0664 30.0445 50.7253 29.9042 50.3649 29.9042C50.0045 29.9042 49.6634 30.0445 49.4094 30.3009L48.5797 31.1306C47.5686 30.5355 46.4897 30.0904 45.3601 29.7953V28.6245C45.3601 27.8795 44.753 27.2747 44.0103 27.2747H40.261C39.5159 27.2747 38.9112 27.8819 38.9112 28.6245V29.7953C37.7791 30.0905 36.7003 30.5356 35.6916 31.1306L34.8643 30.3033C34.6103 30.0493 34.2692 29.9066 33.9088 29.9066C33.5484 29.9066 33.2097 30.0469 32.9533 30.3033L30.3021 32.9546C30.0482 33.2086 29.9079 33.5497 29.9079 33.9101C29.9079 34.2706 30.0482 34.6092 30.3046 34.8657L31.1318 35.693C30.5368 36.7041 30.0917 37.7831 29.7966 38.9127H28.6258C27.8808 38.9127 27.2761 39.5199 27.2761 40.2626V44.0121C27.2761 44.7572 27.8832 45.362 28.6258 45.362H29.7966C30.0917 46.4941 30.5392 47.573 31.1318 48.5817L30.3046 49.409C30.0506 49.663 29.9079 50.0041 29.9079 50.3646C29.9079 50.725 30.0482 51.0637 30.3021 51.3201L32.9533 53.9714C33.2073 54.2254 33.5484 54.3681 33.9088 54.3681C34.2692 54.3681 34.6079 54.2278 34.8643 53.9714L35.694 53.1441C36.7051 53.7367 37.7839 54.1843 38.9136 54.4794V55.6502C38.9136 56.3952 39.5207 57 40.2634 57H44.0127C44.7578 57 45.3625 56.3928 45.3625 55.6502V54.4794C46.4946 54.1842 47.5734 53.7367 48.5821 53.1441L49.4094 53.9714C49.9367 54.4987 50.7931 54.4987 51.3203 53.9714L53.9715 51.3201C54.2255 51.0661 54.3682 50.725 54.3682 50.3646C54.3682 50.0041 54.2279 49.6655 53.9739 49.409L53.1442 48.5817C53.7369 47.5706 54.1844 46.4916 54.4795 45.362H55.6502C56.3952 45.362 57 44.7548 57 44.0121V40.2626C57 39.5175 56.3929 38.9103 55.6503 38.9103ZM55.2124 43.5742H53.7683C53.3426 43.5742 52.975 43.8765 52.8903 44.2927C52.6097 45.6981 52.063 47.0189 51.2647 48.2139C51.0277 48.5695 51.0736 49.0412 51.376 49.3436L52.3992 50.3668L50.3673 52.3988L49.3441 51.3756C49.0417 51.0732 48.57 51.0272 48.2145 51.2643C47.0195 52.0626 45.6988 52.6093 44.2934 52.8899C43.8749 52.9722 43.5749 53.3399 43.5749 53.7681V55.2122H40.7012V53.7681C40.7012 53.3423 40.3988 52.9746 39.9828 52.8899C38.5774 52.6093 37.2566 52.0626 36.0617 51.2643C35.7061 51.0272 35.2344 51.0732 34.932 51.3756L33.9088 52.3988L31.8769 50.3668L32.9001 49.3436C33.2025 49.0412 33.2485 48.5695 33.0114 48.2139C32.2131 47.0189 31.6665 45.6981 31.3859 44.2927C31.3036 43.8742 30.9359 43.5742 30.5078 43.5742H29.0637V40.7003H30.5078C30.9335 40.7003 31.3012 40.398 31.3859 39.9819C31.6665 38.5764 32.2131 37.2556 33.0114 36.0606C33.2485 35.705 33.2025 35.2333 32.9001 34.9309L31.8769 33.9077L33.9088 31.8757L34.932 32.8989C35.2344 33.2013 35.7061 33.2473 36.0617 33.0102C37.2566 32.2119 38.5774 31.6652 39.9828 31.3846C40.4012 31.3023 40.7012 30.9347 40.7012 30.5065V29.0623H43.5749V30.5065C43.5749 30.9322 43.8773 31.2999 44.2934 31.3846C45.6988 31.6652 47.0195 32.2119 48.2145 33.0102C48.57 33.2473 49.0417 33.2013 49.3441 32.8989L50.3673 31.8757L52.3992 33.9077L51.376 34.9309C51.0736 35.2333 51.0277 35.705 51.2647 36.0606C52.063 37.2556 52.6097 38.5764 52.8903 39.9819C52.9725 40.4004 53.3402 40.7003 53.7683 40.7003H55.2149L55.21 43.5742H55.2124ZM25.6748 49.0147L20.116 44.7184C19.6685 44.3725 19.0758 44.312 18.5703 44.5588C18.0599 44.8079 17.7454 45.3159 17.7454 45.882V46.0924C8.93103 44.0362 7.1866 34.9962 6.94695 29.6574C6.92759 29.2437 6.62765 28.8978 6.22366 28.8204C5.81728 28.743 5.41089 28.9534 5.24159 29.3308C2.97018 34.3504 3.29677 40.3397 6.11727 45.3521C8.69831 49.9386 12.9049 52.9916 17.7474 53.8264V54.4771C17.7474 55.0432 18.0643 55.5512 18.5723 55.8003C18.7779 55.9019 19.0004 55.9503 19.2182 55.9503C19.5375 55.9503 19.8519 55.8463 20.118 55.6407L25.6768 51.3444C26.0396 51.0638 26.2476 50.6381 26.2476 50.1808C26.2476 49.7188 26.04 49.2952 25.6748 49.0147ZM19.533 53.8286V53.052C19.533 52.5997 19.1968 52.2174 18.7469 52.1642C14.1485 51.6079 10.1114 48.8042 7.67531 44.474C5.87806 41.2809 5.20072 37.6545 5.67723 34.2151C6.0933 36.3995 6.8117 38.746 8.02122 40.8723C10.3095 44.8928 13.8339 47.3116 18.4977 48.064C18.7565 48.1051 19.0202 48.0325 19.221 47.8608C19.4218 47.6915 19.5355 47.4423 19.5355 47.181V46.5303L24.2597 50.1806L19.533 53.8286ZM31.3254 7.9877L36.8842 12.2839C37.3317 12.6299 37.9244 12.6903 38.4299 12.4436C38.9403 12.1944 39.2548 11.6864 39.2548 11.1204V10.9099C48.0692 12.9661 49.8136 22.0062 50.0533 27.345C50.0726 27.7586 50.3726 28.1046 50.7766 28.182C50.8346 28.1917 50.8902 28.1989 50.9459 28.1989C51.2918 28.1989 51.6135 27.9981 51.7611 27.674C54.0325 22.6544 53.7059 16.6651 50.8854 11.6526C48.3043 7.06612 44.0978 4.01321 39.2552 3.17842V2.52768C39.2552 1.96162 38.9383 1.4536 38.4304 1.20447C37.9248 0.955308 37.3322 1.01578 36.8847 1.36412L31.3259 5.66037C30.9631 5.94098 30.755 6.36672 30.755 6.82393C30.7526 7.28355 30.9602 7.70711 31.3254 7.9877ZM37.4672 3.1738V3.95032C37.4672 4.40268 37.8034 4.78492 38.2533 4.83811C42.8518 5.3945 46.8888 8.19819 49.3249 12.5283C51.1222 15.7214 51.7995 19.3478 51.323 22.7873C50.9069 20.6029 50.1885 18.2564 48.979 16.13C46.6907 12.1096 43.1663 9.69078 38.5025 8.93836C38.4541 8.9311 38.4082 8.92626 38.3598 8.92626C38.1493 8.92626 37.9437 9.00125 37.7792 9.13914C37.5785 9.30847 37.4648 9.55763 37.4648 9.81892V10.4721L32.7406 6.82174L37.4672 3.1738ZM14.8645 29.7303C23.0597 29.7303 29.729 23.0607 29.729 14.8652C29.729 6.66963 23.0622 0 14.8645 0C6.66686 0 0 6.66963 0 14.8652C0 23.0607 6.66934 29.7303 14.8645 29.7303ZM14.8645 1.78786C22.0757 1.78786 27.9412 7.6541 27.9412 14.8652C27.9412 22.0762 22.0753 27.9425 14.8645 27.9425C7.65376 27.9425 1.78778 22.0762 1.78778 14.8652C1.78778 7.6541 7.65376 1.78786 14.8645 1.78786ZM14.8645 25.5118C20.7353 25.5118 25.5101 20.7366 25.5101 14.8658C25.5101 8.99496 20.7351 4.21976 14.8645 4.21976C8.99394 4.21976 4.21896 8.99496 4.21896 14.8658C4.21896 20.7366 8.99636 25.5118 14.8645 25.5118ZM14.8645 6.00948C19.7484 6.00948 23.7229 9.98401 23.7229 14.8683C23.7229 19.7499 19.7485 23.7246 14.8645 23.7246C9.98047 23.7246 6.00859 19.75 6.00859 14.8658C6.00859 9.98153 9.98053 6.00948 14.8645 6.00948ZM11.7126 12.8358C11.7126 11.4521 12.6778 10.2909 13.9695 9.98853V9.07169C13.9695 8.5782 14.371 8.17664 14.8645 8.17664C15.358 8.17664 15.7595 8.57579 15.7595 9.07169V9.95224C16.5094 10.0804 17.1939 10.4989 17.6487 11.1279C17.939 11.527 17.8495 12.0883 17.4479 12.3761C17.0488 12.6664 16.4876 12.5769 16.1998 12.1753C15.9845 11.8778 15.641 11.7012 15.2782 11.7012H14.6396C14.0131 11.7012 13.5027 12.2116 13.5027 12.8381C13.5027 13.4646 14.0131 13.975 14.6396 13.975H15.0943C16.7078 13.975 18.0189 15.2862 18.0189 16.8997C18.0189 18.2834 17.0537 19.4446 15.762 19.747V20.6638C15.762 21.1573 15.3605 21.5589 14.867 21.5589C14.3736 21.5589 13.972 21.1597 13.972 20.6638V19.7833C13.2222 19.6551 12.5376 19.2366 12.0828 18.6076C11.7925 18.2085 11.882 17.6472 12.2836 17.3594C12.6827 17.0691 13.2439 17.1586 13.5317 17.5602C13.747 17.8577 14.0905 18.0343 14.4534 18.0343H15.0919C15.7184 18.0343 16.2288 17.5239 16.2288 16.8974C16.2288 16.2709 15.7184 15.7605 15.0919 15.7605H14.6372C13.0261 15.7605 11.7126 14.4469 11.7126 12.8358ZM42.1358 33.4194C37.3294 33.4194 33.418 37.331 33.418 42.1376C33.418 46.9442 37.3295 50.8558 42.1358 50.8558C46.9422 50.8558 50.8537 46.9442 50.8537 42.1376C50.8537 37.331 46.9422 33.4194 42.1358 33.4194ZM42.1358 49.0685C38.3139 49.0685 35.2058 45.9601 35.2058 42.1382C35.2058 38.3163 38.3141 35.2078 42.1358 35.2078C45.9576 35.2078 49.0659 38.3163 49.0659 42.1382C49.0659 45.9579 45.9551 49.0685 42.1358 49.0685ZM43.4856 41.3567C43.7324 41.7848 43.5872 42.3315 43.1591 42.5783L43.0284 42.6533V42.8033C43.0284 43.2968 42.6269 43.6983 42.1334 43.6983C41.9181 43.6983 41.7222 43.6233 41.5674 43.4975L39.729 44.5595C39.5887 44.6417 39.4339 44.6804 39.2839 44.6804C38.9743 44.6804 38.6743 44.5208 38.5074 44.2329C38.2607 43.8047 38.4058 43.258 38.834 43.0113L41.236 41.6227V37.4668C41.236 36.9733 41.6375 36.5717 42.131 36.5717C42.6244 36.5717 43.026 36.9709 43.026 37.4668V40.9695C43.2147 41.0397 43.3792 41.1728 43.4856 41.3567Z" fill="#CB3D35"/>
</svg>
