<svg width="54" height="54" viewBox="0 0 54 54" fill="none" xmlns="http://www.w3.org/2000/svg">
<path fill-rule="evenodd" clip-rule="evenodd" d="M44.1505 28.7476V34.1116C44.3173 34.0626 44.4886 34.0292 44.6576 34.0114C44.7377 33.8066 44.8178 33.5928 44.8956 33.3746C45.0357 32.9782 45.1648 32.5775 45.2782 32.1744C45.356 31.9005 45.5673 31.669 45.8587 31.5777L52.2004 29.6249V24.3745L45.8946 22.4329C45.6054 22.3572 45.363 22.1345 45.2763 21.825C45.0738 21.1036 44.8292 20.4 44.5444 19.7164C44.2575 19.0262 43.9305 18.3537 43.5657 17.7036C43.4278 17.4542 43.4122 17.1447 43.5546 16.8731L46.6619 10.9968L42.954 7.28496L37.1197 10.3778C36.8617 10.5292 36.5326 10.5425 36.2545 10.3867C35.605 10.0215 34.9333 9.69422 34.2415 9.40693C33.5587 9.12415 32.8558 8.87699 32.1351 8.67662C31.8615 8.59869 31.6302 8.38716 31.539 8.09549L29.5949 1.74263H24.35L22.4105 8.05502C22.3349 8.34448 22.1124 8.58718 21.8033 8.674C21.0826 8.87662 20.3797 9.12155 19.6969 9.40431C19.0051 9.69154 18.3356 10.0188 17.6838 10.3841C17.4347 10.5221 17.1233 10.5377 16.8542 10.3952L10.984 7.2846L7.27614 10.9964L10.3657 16.8345C10.517 17.0928 10.5303 17.4223 10.3746 17.7007C10.0098 18.3508 9.68287 19.0233 9.39588 19.7158C9.1134 20.3993 8.86872 21.1052 8.66406 21.8244C8.58621 22.0983 8.3749 22.3298 8.08354 22.4211L1.7419 24.3739V29.6243L8.04766 31.5659C8.33682 31.6416 8.57927 31.8643 8.666 32.1738C8.86841 32.8952 9.11308 33.5988 9.39782 34.2824C9.68475 34.9726 10.0117 35.6451 10.3743 36.2952C10.5122 36.5446 10.5277 36.8541 10.3854 37.1257L7.27805 43.0021L10.9859 46.7138L16.8202 43.621C17.0782 43.4696 17.4074 43.4563 17.6855 43.6121C18.3349 43.9773 19.0067 44.3046 19.6985 44.5919C20.3813 44.8747 21.0842 45.1218 21.8049 45.3245C22.0785 45.4024 22.3098 45.6139 22.401 45.9056L24.3517 52.2539H29.5966L31.5362 45.9415C31.6118 45.652 31.8342 45.4093 32.1434 45.3225C32.7195 45.16 33.2711 44.9774 33.7938 44.7748C34.1608 44.6345 34.5301 44.4764 34.8993 44.3072V41.1832C34.8993 40.3861 35.571 39.6268 36.4696 39.0835C37.0413 38.7383 37.733 38.4578 38.3847 38.313V29.8049C37.8665 31.9247 36.7744 33.8196 35.2796 35.3137C33.1532 37.4423 30.2172 38.7583 26.9741 38.7583C23.7311 38.7583 20.793 37.4423 18.6685 35.3137C16.5421 33.185 15.2275 30.2459 15.2275 26.9994C15.2275 23.7529 16.5421 20.8118 18.6685 18.6851C20.795 16.5564 23.731 15.2405 26.9741 15.2405C30.2171 15.2405 33.1551 16.5564 35.2796 18.6851C37.4061 20.8138 38.7206 23.7529 38.7206 26.9994C38.7206 27.1107 38.7184 27.222 38.7162 27.3334C39.0298 26.7456 39.537 26.3336 40.122 26.0976C40.489 25.9506 40.8805 25.8749 41.2675 25.8749C41.6545 25.8749 42.046 25.9484 42.4152 26.0976C43.3894 26.4895 44.1505 27.376 44.1505 28.7476ZM46.3614 34.43C46.7084 34.6594 46.9998 34.9778 47.1866 35.383C47.5047 35.2539 47.8428 35.1915 48.1764 35.1915C48.5101 35.1915 48.8504 35.2561 49.1663 35.383C49.6067 35.5612 49.9959 35.8528 50.2695 36.2581C50.3274 36.2292 50.3874 36.2025 50.4475 36.178C50.7655 36.051 51.1036 35.9865 51.4373 35.9865C51.7709 35.9865 52.1113 36.051 52.4271 36.178C53.2768 36.5186 53.9396 37.289 53.9396 38.4803C53.9396 39.558 53.9552 40.3396 53.9685 41.1011C54.0175 43.5905 54.0597 45.9084 53.6838 48.6071C53.666 48.7407 53.6171 48.8632 53.5481 48.9678C53.259 49.4532 52.9987 49.8696 52.734 50.2793C52.4693 50.6846 52.1913 51.0943 51.8576 51.5707L51.8554 51.573L51.8576 51.5752C51.7931 51.6665 51.7798 51.9136 51.7687 52.1519C51.7375 52.7375 51.7086 53.2986 51.1592 53.7818C50.9946 53.9265 50.79 53.9978 50.5876 53.9978V54H39.1456C38.6652 54 38.2737 53.6103 38.2737 53.1272C38.2737 53.1005 38.276 53.076 38.2782 53.0515L38.276 52.2053C38.1714 52.1029 38.0446 51.9782 37.9023 51.838C36.9992 50.9606 35.5357 49.5356 34.9995 48.527C34.9306 48.3956 34.8972 48.2553 34.8972 48.1172V46.2023C34.7371 46.2691 34.5747 46.3337 34.4101 46.396C33.9608 46.5697 33.5137 46.7234 33.0688 46.8614L31.0648 53.379C30.9491 53.7531 30.6066 53.9935 30.2351 53.9935V53.9958H23.709C23.293 53.9958 22.9461 53.7041 22.8593 53.3144L20.8752 46.8618C20.2457 46.6681 19.6296 46.4454 19.029 46.1983C18.4196 45.9466 17.8279 45.6661 17.2518 45.3588L11.2285 48.5518C10.8837 48.7344 10.4722 48.6609 10.2097 48.3982L10.2075 48.4004L5.59208 43.7823C5.3007 43.4906 5.25844 43.0409 5.46752 42.7047L8.62826 36.7286C8.32353 36.1519 8.04329 35.5596 7.78967 34.9495C7.54055 34.3483 7.31813 33.7293 7.12459 33.1014L0.616116 31.0974C0.242434 30.9839 0.00222416 30.6387 0.00222416 30.2669H0V23.7339C0 23.3176 0.291384 22.9702 0.680628 22.8834L7.12647 20.8972C7.31998 20.267 7.54241 19.6503 7.79155 19.0491C8.0429 18.439 8.32316 17.8467 8.63014 17.27L5.44047 11.2403C5.25808 10.8952 5.33148 10.4833 5.59395 10.2205L5.59172 10.2183L10.2049 5.60023C10.4963 5.30854 10.9456 5.26624 11.2815 5.47554L17.2513 8.6396C17.8274 8.33455 18.4213 8.05402 19.0285 7.80013C19.6291 7.55075 20.2452 7.32809 20.8747 7.13435L22.8788 0.616764C22.9922 0.242689 23.337 0.00222704 23.7084 0.00222704V0H30.2345C30.6505 0 30.9974 0.29169 31.0842 0.681343L33.0683 7.13395C33.6978 7.32766 34.3139 7.55033 34.9145 7.79973C35.5239 8.05356 36.1156 8.33189 36.6917 8.63919L42.715 5.44618C43.0598 5.2636 43.4713 5.33707 43.7338 5.59982L43.736 5.59759L48.3492 10.2157C48.6406 10.5073 48.6829 10.9571 48.4738 11.2933L45.313 17.2694C45.6178 17.8461 45.898 18.4384 46.1516 19.0485C46.4007 19.6497 46.6232 20.2664 46.8167 20.8966L53.3275 22.9028C53.7011 23.0186 53.9414 23.3615 53.9414 23.7333H53.9436V30.2663C53.9436 30.6826 53.6522 31.03 53.263 31.1168L46.8194 33.103C46.7304 33.3903 46.637 33.6753 46.5391 33.9536C46.4813 34.1117 46.4237 34.2697 46.3614 34.43ZM34.0477 19.9168C35.8583 21.7293 36.9771 24.232 36.9771 26.9998C36.9771 29.7653 35.856 32.2681 34.0477 34.0829C32.2371 35.8954 29.737 37.0153 26.9721 37.0153C24.2095 37.0153 21.7094 35.8931 19.8965 34.0829C18.0859 32.2704 16.9671 29.7677 16.9671 26.9998C16.9671 24.2343 18.0882 21.7316 19.8965 19.9168C21.7071 18.1043 24.2072 16.9843 26.9721 16.9843C29.7369 16.9843 32.237 18.1066 34.0477 19.9168ZM20.2683 26.8818C19.968 26.5078 20.0259 25.96 20.4018 25.6594C20.7754 25.3588 21.3226 25.4167 21.6229 25.793L25.333 30.3932L32.3238 21.6782C32.6241 21.3042 33.1712 21.244 33.5449 21.5446C33.9186 21.8452 33.9786 22.393 33.6784 22.767L26.0225 32.3103C25.9825 32.3637 25.9335 32.4127 25.8801 32.4572C25.5065 32.7578 24.9593 32.6999 24.659 32.3236L20.2683 26.8818ZM50.681 38.4828C50.681 38.1177 50.8634 37.8905 51.097 37.7971C51.2015 37.7548 51.3194 37.7347 51.4418 37.7347C51.5641 37.7347 51.6842 37.7548 51.7865 37.7971C52.0201 37.8906 52.2025 38.1177 52.2025 38.4828C52.2025 39.2332 52.2203 40.1929 52.2381 41.1303C52.2825 43.4905 52.3248 45.6882 51.9912 48.1974C51.742 48.6138 51.5129 48.9767 51.2816 49.333C51.0125 49.7471 50.7455 50.139 50.4408 50.5754L50.4386 50.5732C50.0871 51.0742 50.0604 51.5774 50.036 52.0628C50.0315 52.1296 50.0293 52.1964 50.0271 52.2566H40.0133V51.8535C40.0133 51.6309 39.931 51.4305 39.793 51.2769L39.7953 51.2746C39.6752 51.1388 39.4283 50.8983 39.1146 50.5955C38.3495 49.8496 37.1394 48.6739 36.6412 47.8879L36.639 41.1879C36.639 41.0721 36.9504 40.8317 37.3663 40.5801C37.6821 40.3886 38.038 40.226 38.3828 40.1125V43.0605C38.3828 43.5415 38.7721 43.9334 39.2547 43.9334C39.7352 43.9334 40.1266 43.5437 40.1266 43.0605V28.748C40.1266 28.2002 40.4069 27.8573 40.7694 27.7126C40.9229 27.6502 41.092 27.6213 41.2699 27.6213C41.4456 27.6213 41.6169 27.6525 41.7704 27.7126C42.1307 27.8573 42.4132 28.2002 42.4132 28.748V39.6587C42.4132 40.1396 42.8024 40.5315 43.2851 40.5315C43.7655 40.5315 44.157 40.1418 44.157 39.6587V36.4946C44.157 36.1295 44.3394 35.9023 44.5729 35.8088C44.6752 35.7665 44.7953 35.7465 44.9177 35.7465C45.04 35.7465 45.1601 35.7665 45.2625 35.8088C45.496 35.9023 45.6784 36.1295 45.6784 36.4946V41.2507C45.6784 41.7317 46.0677 42.1235 46.5503 42.1235C47.0308 42.1235 47.4222 41.7339 47.4222 41.2507V37.6881C47.4222 37.323 47.6046 37.0958 47.8381 37.0023C47.9405 36.96 48.0606 36.94 48.1829 36.94C48.3052 36.94 48.4254 36.96 48.5277 37.0023C48.7612 37.0958 48.9436 37.323 48.9436 37.6881V42.5756C48.9436 43.0565 49.3329 43.4484 49.8155 43.4484C50.296 43.4484 50.6874 43.0587 50.6874 42.5756L50.681 38.4828Z" fill="#CB3D35"/>
</svg>
