<svg width="66" height="57" viewBox="0 0 66 57" fill="none" xmlns="http://www.w3.org/2000/svg">
<path fill-rule="evenodd" clip-rule="evenodd" d="M55.6311 18.9479C55.1516 18.9479 54.7625 18.558 54.7625 18.0774C54.7625 17.5969 55.1516 17.2043 55.6311 17.2043H64.0432C65.7586 17.2043 66.6464 19.2719 65.4517 20.5185L57.8231 28.4983L65.4517 36.4753C66.6436 37.7219 65.7586 39.7895 64.0432 39.7895H53.8059C53.3263 39.7895 52.9345 39.3996 52.9345 38.9163C52.9345 38.4358 53.3236 38.0431 53.8059 38.0431H64.0432C64.2405 38.0431 64.3337 37.8152 64.2022 37.6779L55.9956 29.0999C55.6722 28.7649 55.6722 28.2322 55.9956 27.8945L64.2022 19.3137C64.3337 19.1764 64.2433 18.9485 64.0432 18.9485L55.6311 18.9479ZM12.1941 38.0454C12.6737 38.0454 13.0655 38.4354 13.0655 38.9186C13.0655 39.3992 12.6764 39.7918 12.1941 39.7918L1.95676 39.7891C0.241429 39.7891 -0.646362 37.7215 0.548326 36.4749L8.17691 28.4979L0.548326 20.5181C-0.643627 19.2715 0.241429 17.2038 1.95676 17.2038H10.3689C10.8484 17.2038 11.2403 17.5937 11.2403 18.077C11.2403 18.5575 10.8512 18.9475 10.3689 18.9475H1.95676C1.75672 18.9475 1.6663 19.1754 1.79783 19.3127L10.0044 27.8935C10.3278 28.2285 10.3305 28.7612 10.0044 29.0989L1.79783 37.6797C1.6663 37.817 1.75673 38.0449 1.95676 38.0449L12.1941 38.0454ZM33.3781 0.0865452C33.1479 -0.0232896 32.8712 -0.0342766 32.6246 0.0865452L14.2844 8.99424C13.0787 9.5791 12.3882 10.8203 12.3882 12.1657V27.7844C12.3882 34.5557 14.4214 40.8303 17.8411 45.8908C21.3567 51.0887 26.3353 54.9988 32.0874 56.8497C32.7122 57.0501 33.2876 57.0501 33.9151 56.8497C39.664 54.9962 44.6457 51.0834 48.1587 45.8852C51.5811 40.8273 53.6116 34.5502 53.6116 27.7788L53.6143 12.1629C53.6143 10.8201 52.9238 9.57901 51.7181 8.99142C45.6049 6.02311 39.4971 3.03834 33.3781 0.0865452ZM50.9614 10.559C51.5669 10.8555 51.8711 11.4789 51.8711 12.1625V27.7812C51.8711 34.2011 49.953 40.1375 46.7224 44.9126C43.4233 49.792 38.7592 53.4604 33.3803 55.1904C33.1227 55.2727 32.8733 55.2727 32.613 55.1904C27.2368 53.4605 22.5706 49.792 19.2709 44.9126C16.0429 40.1375 14.1222 34.2012 14.1222 27.7812L14.1276 12.1625C14.1276 11.4788 14.4291 10.8555 15.0374 10.559L32.9987 1.83547L50.9614 10.559ZM21.1485 24.8843H26.3576C26.7275 24.8843 27.0727 24.9996 27.355 25.1973L33.0874 19.4694C33.2463 19.2003 33.1395 17.1794 33.5532 16.0838C33.9588 15.0129 35.0329 14.8207 36.0139 15.1914C36.7126 15.4577 37.4059 16.0316 37.6635 16.5259C38.3184 17.7917 39.0939 21.073 38.491 22.4761C37.7676 24.1566 37.2963 23.7694 37.4908 25.4389C37.5018 25.5295 37.573 25.5954 37.669 25.5954H43.8535C45.999 25.5954 46.7909 28.3083 45.9853 30.1233C46.8786 31.337 46.7854 33.4184 45.7963 34.5497C46.3251 36.1121 46.0182 38.1029 44.3303 38.7564C44.4865 40.1705 43.711 41.4693 42.2231 41.6231C39.757 41.8812 31.386 42.3507 28.8074 41.4226L27.5852 40.9805C27.2701 41.2908 26.8372 41.483 26.3604 41.483H21.1513C20.1868 41.483 19.4004 40.6922 19.4004 39.7284L19.3949 26.6389C19.3976 25.6751 20.1867 24.8843 21.1485 24.8843ZM21.1403 26.6306H26.363L26.3658 39.7391L21.1403 39.7336L21.1403 26.6306ZM28.1085 26.9025L34.4602 20.5568C34.7452 20.274 34.8712 19.5711 34.8959 19.2333C34.9534 18.5084 34.9479 17.3826 35.1562 16.7593C35.4795 16.7895 36.0083 17.1135 36.118 17.3277C36.4139 17.8988 36.7126 18.9533 36.8688 19.9637C36.9921 20.7628 37.025 21.4794 36.8907 21.7925C36.2084 23.3796 35.4741 23.1765 35.7617 25.6395C35.8741 26.6143 36.6906 27.342 37.6661 27.342H43.8506C44.6453 27.342 44.7466 29.1075 44.237 29.6842C43.8862 30.0796 43.9712 30.7001 44.4151 30.9885C45.0645 31.4113 44.9851 33.1715 44.3192 33.5504C43.9027 33.7865 43.7575 34.3192 43.9931 34.7366C44.1794 35.0633 44.2945 35.5576 44.2945 35.9722C44.2945 36.7218 44.0233 37.2078 43.2341 37.2078C42.6203 37.2078 42.1244 37.8586 42.4888 38.5313C42.6751 38.8718 42.7573 39.8219 42.0476 39.896C40.1624 40.0937 36.8906 40.2667 34.0494 40.2338C32.0052 40.2091 30.2104 40.0827 29.3939 39.7889L28.1115 39.3276L28.106 26.9024L28.1085 26.9025Z" fill="#CB3D35"/>
</svg>
