<svg width="59" height="59" viewBox="0 0 59 59" fill="none" xmlns="http://www.w3.org/2000/svg">
<path d="M14.4411 28.4258C12.6844 27.7918 10.6697 27.426 8.45692 27.3533V29.6111C8.45692 30.0721 8.1938 30.4831 7.7653 30.6685C7.61244 30.7336 7.45707 30.7637 7.29669 30.7637C7.01351 30.7637 6.73787 30.661 6.51987 30.4555L0.833886 25.2057C0.447973 24.8524 0.25 24.3914 0.25 23.8727C0.25 23.354 0.455485 22.8904 0.833886 22.5396L6.51737 17.2923C6.85818 16.9791 7.33178 16.8939 7.76282 17.0818C8.18632 17.2673 8.45444 17.6732 8.45444 18.1393V20.3193C14.2607 20.4722 19.1499 22.1536 22.9913 25.316C23.292 25.5666 23.3371 26.0076 23.0865 26.3108C22.8359 26.6115 22.3949 26.6566 22.0916 26.4061C18.3528 23.3264 13.5261 21.7477 7.7402 21.7176C7.34927 21.7176 7.0335 21.3969 7.0335 21.011V18.7331L1.79606 23.5694C1.70585 23.6521 1.66826 23.7423 1.66826 23.8651C1.66826 23.9879 1.70585 24.0756 1.79606 24.1608L7.04351 29.0046V26.6241C7.04351 26.4387 7.12119 26.2532 7.254 26.1229C7.38932 25.9876 7.56724 25.9175 7.75519 25.9175C10.4165 25.9375 12.8297 26.3284 14.9274 27.0902C15.2933 27.2255 15.4862 27.6289 15.3509 27.9948C15.2181 28.3682 14.807 28.5611 14.4411 28.4258ZM23.0638 8.45413H25.2765V21.7523C25.2765 22.1433 25.5897 22.459 25.9832 22.459C26.3741 22.459 26.6899 22.1458 26.6899 21.7523L26.6874 7.74977C26.6874 7.35885 26.3741 7.0431 25.9807 7.0431H23.6577L28.5017 1.79585C28.5919 1.70564 28.6821 1.66805 28.8049 1.66805C28.9277 1.66805 29.0154 1.70564 29.1006 1.79585L33.9446 7.0431H31.6266C31.2356 7.0431 30.9199 7.35632 30.9199 7.74977V21.7523C30.9199 22.1433 31.2331 22.459 31.6266 22.459C32.0175 22.459 32.3333 22.1458 32.3333 21.7523V8.45413H34.546C35.0071 8.45413 35.4181 8.19101 35.6035 7.76253C35.7889 7.33904 35.7137 6.8579 35.393 6.51713L30.1455 0.833864C29.7922 0.447966 29.3311 0.25 28.8124 0.25C28.2937 0.25 27.8301 0.455478 27.4793 0.833864L22.2318 6.51713C21.9186 6.85793 21.8334 7.33902 22.0213 7.76253C22.1967 8.19354 22.6002 8.45413 23.0638 8.45413ZM57.6731 22.5292L51.9896 17.2819C51.6488 16.9687 51.1677 16.8835 50.7442 17.0715C50.3207 17.2569 50.0526 17.6628 50.0526 18.1289V20.309C44.0809 20.4693 39.0813 22.241 35.195 25.5762C34.8993 25.8318 34.8617 26.2753 35.1173 26.5711C35.3729 26.8667 35.8164 26.8993 36.1122 26.6487C39.8911 23.4037 44.8176 21.7423 50.7568 21.7097C51.1477 21.7097 51.4635 21.389 51.4635 21.0031V18.7252L56.7109 23.569C56.8011 23.6517 56.8387 23.7419 56.8387 23.8647C56.8387 23.9875 56.8011 24.0752 56.7109 24.1604L51.4635 29.0042V26.6237C51.4635 26.4383 51.3858 26.2528 51.253 26.1225C51.1177 25.9872 50.9397 25.9171 50.7518 25.9171C47.7998 25.9371 45.1636 26.4182 42.906 27.3529C42.5477 27.5008 42.3747 27.9167 42.5201 28.2776C42.6679 28.6359 43.0839 28.8088 43.4448 28.6635C45.3493 27.8741 47.5696 27.4306 50.0454 27.3479V29.6056C50.0454 30.0667 50.3085 30.4777 50.737 30.6631C50.8899 30.7282 51.0452 30.7583 51.2056 30.7583C51.4888 30.7583 51.7644 30.6556 51.9824 30.4501L57.6659 25.2028C58.0518 24.8495 58.2498 24.3885 58.2498 23.8697C58.2573 23.3435 58.0515 22.8825 57.6731 22.5292ZM46.324 38.99V42.4856C46.324 43.2875 45.7526 43.9741 44.9633 44.1144L42.961 44.4803C42.8583 44.5003 42.8006 44.558 42.7681 44.6532C42.4598 45.7633 42.0113 46.8333 41.4474 47.8407C41.3973 47.9309 41.4023 48.0136 41.46 48.0963L42.6152 49.7652C43.0713 50.4267 42.9936 51.3188 42.4222 51.8826L39.9514 54.3534C39.3875 54.9172 38.4954 55.0024 37.8338 54.5464L36.1599 53.3861C36.0772 53.3285 35.992 53.321 35.9043 53.3736C34.8969 53.9374 33.8268 54.386 32.7217 54.6942C32.6265 54.7193 32.5689 54.7844 32.5488 54.8872L32.183 56.8893C32.0426 57.6787 31.356 58.25 30.5541 58.25H27.0583C26.2564 58.25 25.5698 57.6787 25.4294 56.8893L25.0636 54.8872C25.0435 54.7844 24.9859 54.7268 24.8906 54.6942C23.7805 54.386 22.7105 53.9374 21.7031 53.3736C21.6129 53.3235 21.5302 53.3285 21.4475 53.3861L19.7785 54.5414C19.1169 54.9974 18.2248 54.9197 17.6609 54.3484L15.1901 51.8776C14.6262 51.3138 14.541 50.4217 14.9971 49.7602L16.1574 48.0863C16.215 48.0036 16.2225 47.9184 16.1699 47.8307C15.6061 46.8233 15.1575 45.7533 14.8493 44.6483C14.8242 44.553 14.7591 44.4954 14.6563 44.4754L12.6541 44.1095C11.8622 43.9742 11.2908 43.2876 11.2908 42.4857V38.9901C11.2908 38.1882 11.8622 37.5016 12.6516 37.3613L14.6538 36.9954C14.7565 36.9754 14.8142 36.9178 14.8468 36.8225C15.155 35.7124 15.6036 34.6425 16.1674 33.6351C16.2175 33.5449 16.2125 33.4622 16.1549 33.3795L14.9996 31.7106C14.5435 31.049 14.6212 30.1569 15.1926 29.5931L17.6635 27.1223C18.2273 26.5585 19.1194 26.4733 19.781 26.9294L21.455 28.0896C21.5377 28.1472 21.6229 28.1547 21.7106 28.1021C22.7179 27.5383 23.788 27.0898 24.8931 26.7815C24.9883 26.7565 25.0459 26.6913 25.066 26.5886L25.4319 24.5864C25.5722 23.797 26.2588 23.2257 27.0607 23.2257H30.5565C31.3584 23.2257 32.045 23.7971 32.1854 24.5864L32.5513 26.5886C32.5713 26.6913 32.6289 26.7489 32.7242 26.7815C33.8343 27.0897 34.9043 27.5383 35.9067 28.1021C35.9969 28.1522 36.0796 28.1472 36.1623 28.0896L37.8363 26.9294C38.4978 26.4733 39.39 26.551 39.9538 27.1223L42.4247 29.5931C42.9885 30.1569 43.0737 31.049 42.6176 31.7106L41.4574 33.3845C41.3998 33.4672 41.3922 33.5524 41.4449 33.6401C42.0087 34.6474 42.4522 35.7174 42.7655 36.8225C42.7906 36.9177 42.8557 36.9753 42.9585 36.9954L44.9607 37.3612C45.7476 37.5015 46.324 38.1881 46.324 38.99ZM44.9057 38.99C44.9057 38.8672 44.823 38.772 44.7077 38.7519L42.7054 38.3861C42.0765 38.2708 41.5753 37.8147 41.4024 37.1983C41.1192 36.1984 40.7233 35.2362 40.2095 34.3241C39.8963 33.7653 39.9264 33.0912 40.2922 32.5674L41.4525 30.8935C41.5227 30.7908 41.5101 30.668 41.4274 30.5853L38.9566 28.1145C38.8739 28.0318 38.7461 28.0193 38.6483 28.0895L36.9743 29.2497C36.4481 29.6155 35.774 29.6481 35.2177 29.3324C34.313 28.8187 33.3432 28.4202 32.3433 28.1396C31.7269 27.9667 31.2708 27.4655 31.1555 26.8366L30.7896 24.8344C30.7696 24.7116 30.6744 24.6364 30.5516 24.6364H27.0558C26.933 24.6364 26.8378 24.7191 26.8177 24.8344L26.4519 26.8366C26.3366 27.4655 25.8805 27.9667 25.264 28.1396C24.2642 28.4227 23.3019 28.8187 22.3897 29.3324C21.8309 29.6456 21.1568 29.6155 20.633 29.2497L18.959 28.0895C18.8563 28.0193 18.7335 28.0318 18.6508 28.1145L16.1799 30.5853C16.0972 30.668 16.0847 30.7958 16.1549 30.8935L17.3101 32.5624C17.676 33.0887 17.7086 33.7627 17.3928 34.3191C16.8791 35.2237 16.4806 36.1934 16.2 37.1933C16.0271 37.8097 15.5259 38.2658 14.8969 38.3811L12.8947 38.7469C12.7719 38.767 12.6967 38.8622 12.6967 38.985V42.4806C12.6967 42.6034 12.7794 42.6986 12.8947 42.7187L14.8969 43.0845C15.5259 43.1998 16.0271 43.6558 16.2 44.2723C16.4832 45.2721 16.8791 46.2344 17.3928 47.1465C17.7061 47.7053 17.676 48.3794 17.3101 48.9031L16.1499 50.5771C16.0797 50.6798 16.0922 50.8026 16.1749 50.8853L18.6458 53.3561C18.7285 53.4388 18.8563 53.4513 18.954 53.3811L20.623 52.2259C20.9062 52.028 21.2395 51.9302 21.5653 51.9302C21.8409 51.9302 22.1241 52.0004 22.3797 52.1482C23.2844 52.6619 24.2542 53.0604 25.254 53.341C25.8705 53.5139 26.3266 54.0151 26.4419 54.644L26.8077 56.6462C26.8278 56.769 26.923 56.8442 27.0458 56.8442H30.5416C30.6644 56.8442 30.7596 56.7615 30.7796 56.6462L31.1455 54.644C31.2608 54.0151 31.7168 53.5139 32.3333 53.341C33.3332 53.0579 34.2955 52.6619 35.2077 52.1482C35.7665 51.835 36.4406 51.8651 36.9643 52.2309L38.6383 53.3911C38.7411 53.4613 38.8638 53.4488 38.9465 53.3661L41.4174 50.8953C41.5001 50.8126 41.5127 50.6848 41.4425 50.5871L40.2872 48.9182C39.9214 48.3919 39.8888 47.7179 40.2045 47.1616C40.7183 46.2569 41.1167 45.2872 41.3974 44.2873C41.5703 43.6709 42.0715 43.2148 42.7004 43.0995L44.7027 42.7337C44.8255 42.7136 44.9007 42.6184 44.9007 42.4956V38.99L44.9057 38.99ZM37.2652 40.8243C37.2652 45.4876 33.4661 49.2862 28.8029 49.2862C24.1396 49.2862 20.3406 45.4874 20.3406 40.8243C20.3406 36.1609 24.1396 32.3623 28.8029 32.3623C33.4739 32.3648 37.2652 36.1562 37.2652 40.8243ZM35.8543 40.8243C35.8543 36.9377 32.6918 33.7755 28.8053 33.7755C24.9186 33.7755 21.7563 36.9379 21.7563 40.8243C21.7563 44.7108 24.9188 47.873 28.8053 47.873C32.692 47.868 35.8543 44.7131 35.8543 40.8243Z" fill="#CB3D35" stroke="#CB3D35" stroke-width="0.5"/>
</svg>
