<svg width="49" height="56" viewBox="0 0 49 56" fill="none" xmlns="http://www.w3.org/2000/svg">
<path d="M47.3673 7.85935C47.3099 7.57069 47.0462 7.36284 46.7481 7.39748C38.768 8.26351 30.6961 5.70009 24.6539 0.388562C24.4361 0.203813 24.115 0.203813 23.9087 0.388562C21.3175 2.65173 18.4051 4.40684 15.2637 5.63084C11.0329 7.27052 6.37802 7.88248 1.81447 7.39748C1.51636 7.36284 1.25266 7.55914 1.19532 7.85935C-2.18709 22.9629 3.06426 46.1371 24.0468 55.444C24.1959 55.5132 24.3679 55.5132 24.5169 55.444C29.1605 53.3194 35.7764 49.2318 40.9358 41.7726C50.4871 27.9741 48.2731 12.3281 47.3673 7.85935ZM39.9947 41.1141C35.0644 48.2269 28.7697 52.1872 24.2751 54.2771C4.46231 45.3515 -0.90329 23.4699 2.20365 8.59835C10.1721 9.3258 18.164 6.78552 24.2751 1.58943C30.3749 6.78545 38.3781 9.32596 46.3465 8.59835C47.2753 13.5288 48.9609 28.1699 39.9947 41.1141ZM42.4484 12.6628C38.6762 12.5358 34.9841 11.7737 31.4641 10.4112C29.0563 9.47591 26.7402 8.26351 24.5961 6.79705C24.4012 6.67003 24.1489 6.67003 23.954 6.79705C18.6912 10.3996 12.4765 12.4549 6.10193 12.6628C5.81529 12.6628 5.5745 12.8938 5.55157 13.1824C4.95535 19.9142 5.55157 29.8216 11.7889 38.8396C14.9305 43.3774 19.0353 47.0262 24.0112 49.7168C24.1832 49.8092 24.3781 49.8092 24.5501 49.7168C38.8821 42.3151 44.5236 26.0919 42.9988 13.1824C42.9758 12.8938 42.7351 12.6628 42.4484 12.6628ZM35.8213 38.181C32.8402 42.4765 28.9647 45.9634 24.2755 48.5499C10.7918 41.4486 5.34552 26.1376 6.65243 13.7942C12.9242 13.494 19.0472 11.4618 24.2755 7.96311C29.5039 11.4503 35.6268 13.494 41.8987 13.7942C42.4146 20.3181 41.7146 29.6708 35.8213 38.181Z" fill="#CB3D35" stroke="#CB3D35" stroke-width="0.5"/>
<path d="M21.8077 37.4037C27.6387 35.4192 31.2188 32.5926 32.4378 28.9997C33.6683 25.4035 32.5335 21.0483 29.0715 16.0657C28.871 15.7709 28.4929 15.6521 28.1484 15.7715C23.1938 17.4563 19.8567 19.7468 18.2072 22.6038C17.9143 23.111 17.6756 23.6396 17.484 24.1855C16.3342 27.5597 17.2515 31.6003 20.2335 36.1964L17.8016 37.0999C17.3642 37.2651 17.1285 37.7556 17.2657 38.1929C17.4028 38.6301 17.8805 38.8562 18.3137 38.6985L21.8077 37.4037ZM19.0647 24.6903C20.0647 21.7567 23.0894 19.3654 28.0401 17.5887C30.9144 21.8939 31.8685 25.5579 30.8685 28.4916C29.9666 31.1237 27.438 33.3141 23.3415 35.0269C23.9448 33.8833 24.6977 32.3487 25.3839 30.7158L29.3028 28.2241C29.6949 27.9731 29.8364 27.4481 29.6035 27.045C29.3705 26.642 28.8653 26.5293 28.4618 26.7838L26.3729 28.114C26.9869 26.2604 27.3737 24.4547 27.218 23.0619C27.1651 22.5937 26.7506 22.2748 26.2976 22.3515C26.0333 22.3978 25.8086 22.5565 25.6794 22.7803C25.589 22.937 25.5441 23.1299 25.5664 23.3218C25.7068 24.5765 25.2557 26.3948 24.5673 28.2949L23.0182 25.8589C22.7766 25.4707 22.2585 25.3805 21.8693 25.6431C21.7591 25.7188 21.6688 25.8258 21.6042 25.9377C21.4449 26.2137 21.4367 26.5571 21.6086 26.8354L23.7845 30.2598C23.0279 32.0311 22.1802 33.7298 21.4938 34.9846C18.93 30.9482 18.1094 27.4807 19.0647 24.6903Z" fill="#CB3D35" stroke="#CB3D35" stroke-width="0.5"/>
</svg>
