<svg width="55" height="69" viewBox="0 0 55 69" fill="none" xmlns="http://www.w3.org/2000/svg">
<path fill-rule="evenodd" clip-rule="evenodd" d="M16.1671 27.315C16.1671 30.3931 17.4132 33.1822 19.4327 35.1978C21.4483 37.2134 24.2374 38.4634 27.3155 38.4634C30.3936 38.4634 33.1788 37.2173 35.1983 35.1978C37.2139 33.1822 38.4639 30.3931 38.4639 27.315C38.4639 24.2369 37.2178 21.4517 35.1983 19.4322C33.1827 17.4166 30.3936 16.1666 27.3155 16.1666C24.2374 16.1666 21.4483 17.4127 19.4327 19.4322C17.4171 21.4478 16.1671 24.2369 16.1671 27.315ZM45.8974 49.925C51.0029 42.9562 54.624 35.292 54.624 27.312C54.624 19.7729 51.5654 12.945 46.624 8C41.6826 3.0586 34.854 0 27.312 0C19.7729 0 12.945 3.0586 8 8C3.0547 12.9414 0 19.77 0 27.312C0 35.2925 3.6211 42.957 8.7266 49.925C13.6836 56.6867 20.0466 62.8 25.7886 67.866C26.6402 68.6277 27.9448 68.6472 28.8238 67.8738C34.5621 62.8074 40.9328 56.6938 45.8898 49.9288L45.8974 49.925ZM38.4404 38.437C35.5927 41.2847 31.6592 43.0464 27.3154 43.0464C22.9716 43.0464 19.0381 41.2847 16.1904 38.437C13.3427 35.5893 11.581 31.6558 11.581 27.312C11.581 22.9682 13.3427 19.0347 16.1904 16.187C19.0381 13.3393 22.9716 11.5776 27.3154 11.5776C31.6592 11.5776 35.5927 13.3393 38.4404 16.187C41.2881 19.0347 43.0498 22.9682 43.0498 27.312C43.0498 31.6558 41.2881 35.5893 38.4404 38.437Z" fill="#CB3D35"/>
</svg>
