<svg width="72" height="92" viewBox="0 0 72 92" fill="none" xmlns="http://www.w3.org/2000/svg">
<path d="M34.176 91.136C27.9467 91.136 21.76 90.3253 15.616 88.704C9.472 86.9973 4.26667 84.608 0 81.536L8.064 65.664C11.4773 68.1387 15.4453 70.1013 19.968 71.552C24.4907 73.0027 29.056 73.728 33.664 73.728C38.8693 73.728 42.9653 72.704 45.952 70.656C48.9387 68.608 50.432 65.792 50.432 62.208C50.432 58.7947 49.1093 56.1067 46.464 54.144C43.8187 52.1813 39.552 51.2 33.664 51.2H24.192V37.504L49.152 9.216L51.456 16.64H4.48V0H67.2V13.44L42.368 41.728L31.872 35.712H37.888C48.896 35.712 57.216 38.1867 62.848 43.136C68.48 48.0853 71.296 54.4427 71.296 62.208C71.296 67.2427 69.9733 71.9787 67.328 76.416C64.6827 80.768 60.6293 84.3093 55.168 87.04C49.7067 89.7707 42.7093 91.136 34.176 91.136Z" fill="#CB3D35"/>
</svg>
