<svg width="72" height="92" viewBox="0 0 72 92" fill="none" xmlns="http://www.w3.org/2000/svg">
<path d="M4.096 91.136V77.696L38.656 45.056C41.3867 42.5813 43.392 40.3627 44.672 38.4C45.952 36.4373 46.8053 34.6453 47.232 33.024C47.744 31.4027 48 29.9093 48 28.544C48 24.96 46.7627 22.2293 44.288 20.352C41.8987 18.3893 38.3573 17.408 33.664 17.408C29.9093 17.408 26.4107 18.1333 23.168 19.584C20.0107 21.0347 17.3227 23.296 15.104 26.368L0 16.64C3.41333 11.52 8.192 7.46666 14.336 4.48C20.48 1.49333 27.5627 0 35.584 0C42.24 0 48.0427 1.10933 52.992 3.328C58.0267 5.46133 61.9093 8.49067 64.64 12.416C67.456 16.3413 68.864 21.0347 68.864 26.496C68.864 29.3973 68.48 32.2987 67.712 35.2C67.0293 38.016 65.5787 41.0027 63.36 44.16C61.2267 47.3173 58.0693 50.8587 53.888 54.784L25.216 81.792L21.248 74.24H71.808V91.136H4.096Z" fill="#CB3D35"/>
</svg>
