<svg width="74" height="93" viewBox="0 0 74 93" fill="none" xmlns="http://www.w3.org/2000/svg">
<path d="M40.064 92.672C31.872 92.672 24.7467 90.9653 18.688 87.552C12.7147 84.1387 8.10667 79.1467 4.864 72.576C1.62133 66.0053 0 57.8987 0 48.256C0 37.9307 1.92 29.184 5.76 22.016C9.68533 14.848 15.0613 9.38667 21.888 5.632C28.8 1.87733 36.736 0 45.696 0C50.4747 0 55.04 0.511999 59.392 1.536C63.744 2.56 67.4987 4.096 70.656 6.144L62.976 21.376C60.5013 19.6693 57.856 18.5173 55.04 17.92C52.224 17.2373 49.28 16.896 46.208 16.896C38.4427 16.896 32.2987 19.2427 27.776 23.936C23.2533 28.6293 20.992 35.584 20.992 44.8C20.992 46.336 20.992 48.0427 20.992 49.92C21.0773 51.7973 21.3333 53.6747 21.76 55.552L16 50.176C17.6213 46.848 19.712 44.0747 22.272 41.856C24.832 39.552 27.8613 37.8453 31.36 36.736C34.944 35.5413 38.8693 34.944 43.136 34.944C48.9387 34.944 54.144 36.096 58.752 38.4C63.36 40.704 67.0293 43.9467 69.76 48.128C72.576 52.3093 73.984 57.216 73.984 62.848C73.984 68.9067 72.448 74.1973 69.376 78.72C66.3893 83.1573 62.336 86.6133 57.216 89.088C52.1813 91.4773 46.464 92.672 40.064 92.672ZM38.912 77.184C41.8133 77.184 44.3733 76.672 46.592 75.648C48.896 74.5387 50.688 72.96 51.968 70.912C53.248 68.864 53.888 66.5173 53.888 63.872C53.888 59.776 52.48 56.5333 49.664 54.144C46.9333 51.6693 43.264 50.432 38.656 50.432C35.584 50.432 32.896 51.0293 30.592 52.224C28.288 53.3333 26.4533 54.912 25.088 56.96C23.808 58.9227 23.168 61.2267 23.168 63.872C23.168 66.432 23.808 68.736 25.088 70.784C26.368 72.7467 28.16 74.3253 30.464 75.52C32.768 76.6293 35.584 77.184 38.912 77.184Z" fill="#CB3D35"/>
</svg>
