<svg width="53" height="62" viewBox="0 0 53 62" fill="none" xmlns="http://www.w3.org/2000/svg">
<path d="M26.5 62C21.2116 62 16.5916 61.2335 12.6398 59.7005C8.68805 58.1676 5.57895 56.0101 3.3125 53.228C1.10417 50.3892 0 47.0678 0 43.2637C0 39.5165 1.10417 36.337 3.3125 33.7253C5.57895 31.0568 8.68805 29.0412 12.6398 27.6786C16.6497 26.2592 21.2697 25.5494 26.5 25.5494C31.7303 25.5494 36.3213 26.2592 40.273 27.6786C44.2829 29.0412 47.392 31.0568 49.6003 33.7253C51.8668 36.337 53 39.5165 53 43.2637C53 47.0678 51.8958 50.3892 49.6875 53.228C47.4792 56.0101 44.3701 58.1676 40.3602 59.7005C36.4084 61.2335 31.7884 62 26.5 62ZM26.5 50.1621C29.2895 50.1621 31.4978 49.5092 33.125 48.2033C34.8103 46.8974 35.653 45.0806 35.653 42.7527C35.653 40.4817 34.8103 38.6932 33.125 37.3874C31.4978 36.0247 29.2895 35.3434 26.5 35.3434C23.7105 35.3434 21.4731 36.0247 19.7878 37.3874C18.1606 38.6932 17.347 40.4817 17.347 42.7527C17.347 45.0806 18.1606 46.8974 19.7878 48.2033C21.4731 49.5092 23.7105 50.1621 26.5 50.1621ZM26.5 33.8956C21.7346 33.8956 17.5214 33.2427 13.8602 31.9368C10.2571 30.6309 7.40954 28.7573 5.31743 26.3159C3.22533 23.8178 2.17928 20.837 2.17928 17.3736C2.17928 13.7967 3.19627 10.7308 5.23026 8.17582C7.32237 5.62088 10.199 3.6337 13.8602 2.21429C17.5214 0.738096 21.7346 0 26.5 0C31.3235 0 35.5367 0.738096 39.1398 2.21429C42.801 3.6337 45.6486 5.62088 47.6826 8.17582C49.7747 10.7308 50.8207 13.7967 50.8207 17.3736C50.8207 20.837 49.7747 23.8178 47.6826 26.3159C45.6486 28.7573 42.801 30.6309 39.1398 31.9368C35.4786 33.2427 31.2654 33.8956 26.5 33.8956ZM26.5 24.3571C28.7083 24.3571 30.4808 23.8178 31.8174 22.739C33.1541 21.6035 33.8224 20.0705 33.8224 18.1401C33.8224 16.0962 33.125 14.5348 31.7303 13.456C30.3936 12.3773 28.6502 11.8379 26.5 11.8379C24.3498 11.8379 22.6064 12.3773 21.2697 13.456C19.9331 14.5348 19.2648 16.0962 19.2648 18.1401C19.2648 20.0705 19.9331 21.6035 21.2697 22.739C22.6064 23.8178 24.3498 24.3571 26.5 24.3571Z" fill="#CB3D35"/>
</svg>
