<svg width="51" height="62" viewBox="0 0 51 62" fill="none" xmlns="http://www.w3.org/2000/svg">
<path d="M23.3289 0C28.9483 0 33.8013 1.10714 37.8881 3.32143C42.0317 5.53571 45.2387 8.82875 47.5092 13.2005C49.8364 17.5156 51 22.9093 51 29.3819C51 36.3086 49.6377 42.2134 46.9132 47.0961C44.2454 51.9222 40.5275 55.6126 35.7596 58.1676C31.0484 60.7225 25.5426 62 19.2421 62C15.9499 62 12.7713 61.6026 9.70618 60.8077C6.64107 60.0696 4.00167 59.0192 1.78798 57.6566L7.9182 45.5632C9.62104 46.7555 11.3806 47.5787 13.197 48.033C15.0701 48.4304 16.9716 48.6291 18.9015 48.6291C23.4992 48.6291 27.1603 47.2381 29.8848 44.456C32.6094 41.674 33.9716 37.6145 33.9716 32.2775C33.9716 31.3123 33.9716 30.3187 33.9716 29.2967C33.9716 28.2179 33.8865 27.1392 33.7162 26.0604L37.8881 29.5522C36.8664 31.6529 35.5326 33.413 33.8865 34.8324C32.2404 36.2518 30.3105 37.3306 28.0968 38.0687C25.8831 38.8068 23.3573 39.1758 20.5192 39.1758C16.773 39.1758 13.3389 38.4093 10.217 36.8764C7.15192 35.2866 4.68281 33.1007 2.80968 30.3187C0.936561 27.4798 0 24.1584 0 20.3544C0 16.2097 1.05008 12.6328 3.15025 9.62363C5.25042 6.55769 8.0601 4.20147 11.5793 2.55495C15.0985 0.851649 19.015 0 23.3289 0ZM24.4357 12.0082C22.8464 12.0082 21.4558 12.3205 20.2638 12.9451C19.0718 13.5696 18.1068 14.4496 17.369 15.5852C16.6878 16.6639 16.3472 17.9982 16.3472 19.5879C16.3472 21.859 17.0851 23.6758 18.5609 25.0385C20.0935 26.4011 22.0801 27.0824 24.5209 27.0824C26.1669 27.0824 27.6144 26.7701 28.8631 26.1456C30.1119 25.5211 31.0768 24.641 31.7579 23.5055C32.4391 22.37 32.7796 21.0357 32.7796 19.5027C32.7796 18.0266 32.4391 16.7491 31.7579 15.6703C31.0768 14.5348 30.1119 13.6548 28.8631 13.0302C27.6144 12.3489 26.1386 12.0082 24.4357 12.0082Z" fill="#CB3D35"/>
</svg>
