<svg width="91" height="63" viewBox="0 0 91 63" fill="none" xmlns="http://www.w3.org/2000/svg">
<path d="M63.6883 62.4637C58.5402 62.4637 53.9641 61.2339 49.96 58.7742C46.0131 56.3146 42.8957 52.7681 40.6076 48.1348C38.3196 43.5015 37.1755 37.8672 37.1755 31.2318C37.1755 24.5965 38.3196 18.9622 40.6076 14.3289C42.8957 9.6956 46.0131 6.14913 49.96 3.68948C53.9641 1.22983 58.5402 0 63.6883 0C68.7792 0 73.2981 1.22983 77.245 3.68948C81.249 6.14913 84.3951 9.6956 86.6831 14.3289C88.9712 18.9622 90.1152 24.5965 90.1152 31.2318C90.1152 37.8672 88.9712 43.5015 86.6831 48.1348C84.3951 52.7681 81.249 56.3146 77.245 58.7742C73.2981 61.2339 68.7792 62.4637 63.6883 62.4637ZM63.6883 48.5638C65.5187 48.5638 67.1203 47.9918 68.4932 46.8478C69.9232 45.7037 71.0386 43.8733 71.8394 41.3565C72.6403 38.7824 73.0407 35.4075 73.0407 31.2318C73.0407 26.999 72.6403 23.6241 71.8394 21.1072C71.0386 18.5904 69.9232 16.7599 68.4932 15.6159C67.1203 14.4719 65.5187 13.8999 63.6883 13.8999C61.8578 13.8999 60.2276 14.4719 58.7976 15.6159C57.4248 16.7599 56.3093 18.5904 55.4513 21.1072C54.6505 23.6241 54.2501 26.999 54.2501 31.2318C54.2501 35.4075 54.6505 38.7824 55.4513 41.3565C56.3093 43.8733 57.4248 45.7037 58.7976 46.8478C60.2276 47.9918 61.8578 48.5638 63.6883 48.5638Z" fill="#CB3D35"/>
<path d="M11.1542 61.2626V7.29334L18.4474 14.3291H0V1.20142H28.143V61.2626H11.1542Z" fill="#CB3D35"/>
</svg>
