<svg width="72" height="92" viewBox="0 0 72 92" fill="none" xmlns="http://www.w3.org/2000/svg">
<path d="M34.176 91.136C27.9467 91.136 21.76 90.3253 15.616 88.704C9.55733 86.9973 4.352 84.608 0 81.536L8.192 65.664C11.6053 68.1387 15.5307 70.1013 19.968 71.552C24.4907 73.0027 29.056 73.728 33.664 73.728C38.8693 73.728 42.9653 72.704 45.952 70.656C48.9387 68.608 50.432 65.7493 50.432 62.08C50.432 59.776 49.8347 57.728 48.64 55.936C47.4453 54.144 45.312 52.7787 42.24 51.84C39.2533 50.9013 35.0293 50.432 29.568 50.432H6.656L11.264 0H65.92V16.64H18.688L29.44 7.168L26.24 43.136L15.488 33.664H34.432C43.3067 33.664 50.432 34.9013 55.808 37.376C61.2693 39.7653 65.2373 43.0507 67.712 47.232C70.1867 51.4133 71.424 56.1493 71.424 61.44C71.424 66.7307 70.1013 71.6373 67.456 76.16C64.8107 80.5973 60.7147 84.224 55.168 87.04C49.7067 89.7707 42.7093 91.136 34.176 91.136Z" fill="#CB3D35"/>
</svg>
