<svg width="49" height="58" viewBox="0 0 49 58" fill="none" xmlns="http://www.w3.org/2000/svg">
<path d="M0.0268806 7.17728V49.6555C0.0168002 49.6992 0 49.7361 0 49.7832C0 52.8913 2.42932 55.4247 5.55753 55.5524H42.4781C43.1401 56.4429 44.1884 57.0241 45.3779 57.0241C47.3737 57.0241 49 55.3978 49 53.402C49 51.6111 47.6896 50.1292 45.9793 49.8403V45.2874C45.9793 44.9312 45.6903 44.6422 45.3342 44.6422H14.6232C14.2939 42.979 12.829 41.7224 11.0716 41.7224C9.07575 41.7224 7.44949 43.3486 7.44949 45.3445C7.44949 47.3437 9.07575 48.9666 11.0716 48.9666C12.8692 48.9666 14.3511 47.6495 14.6333 45.9325H44.6888V49.8504C43.0188 50.1729 41.7521 51.6413 41.7521 53.4053C41.7521 53.701 41.7991 53.9866 41.8663 54.2655H5.8463L5.84966 11.5653H46.5069C46.8429 11.5653 47.1083 11.3066 47.1386 10.9807C47.1386 10.9673 47.1487 10.9572 47.1487 10.9404V10.937C47.1487 10.9303 47.152 10.9269 47.152 10.9202C47.152 10.8665 47.1352 10.8194 47.1218 10.769C47.115 10.7388 47.115 10.7085 47.105 10.6783C47.0915 10.6447 47.068 10.6178 47.0478 10.5876C47.021 10.5472 47.0008 10.5036 46.9672 10.4666C46.9538 10.4532 46.937 10.4464 46.9235 10.4364C46.8731 10.3927 46.8194 10.3524 46.7589 10.3255C46.7555 10.3221 46.7488 10.3255 46.7454 10.3221C46.6782 10.2952 46.6077 10.2717 46.5304 10.2684C44.1212 10.1676 42.2362 8.20195 42.2362 5.78941C42.2362 3.48103 43.9666 1.5624 46.2616 1.32723C46.4128 1.31379 46.564 1.30371 46.7186 1.30371C47.0747 1.30371 47.3637 1.01474 47.3637 0.658574C47.3637 0.302409 47.0747 0.0134403 46.7186 0.0134403C46.6782 0.0134403 46.6413 0.0201604 46.601 0.0201604C46.5674 0.0134399 46.5405 0 46.5035 0L5.77577 0.00672015C5.71529 0.00672015 5.65144 0.00671993 5.59097 0.00336007C5.50024 -0.0033605 5.41288 0.0134396 5.33224 0.043681C5.2852 0.0470408 5.2348 0.0470412 5.18439 0.0504011C2.23088 0.352806 0.00319273 2.81914 0.00319273 5.79278C0.00319273 6.10863 0.0334332 6.42112 0.0838345 6.7235C0.0569539 6.7907 0.0367941 6.86126 0.0334334 6.93518C0.0300735 7.01582 0.0268806 7.09664 0.0268806 7.17728ZM11.075 47.6762C9.78811 47.6762 8.74316 46.6313 8.74316 45.3444C8.74316 44.0574 9.78811 43.0125 11.075 43.0125C12.1133 43.0125 12.9869 43.7013 13.2859 44.6421C13.3565 44.8639 13.4069 45.0991 13.4069 45.3444C13.4069 45.5493 13.3733 45.7442 13.3229 45.9324C13.0608 46.9337 12.157 47.6762 11.075 47.6762ZM43.0461 53.4017C43.0461 52.3568 43.7417 51.4798 44.6926 51.1841C44.911 51.1169 45.1395 51.0699 45.3814 51.0699C45.5898 51.0699 45.7914 51.1068 45.9829 51.1572C46.9774 51.426 47.7133 52.3232 47.7133 53.4018C47.7133 53.8554 47.5789 54.2754 47.3538 54.6316C47.0984 55.0382 46.7322 55.3641 46.2853 55.5489C46.0064 55.6665 45.7006 55.7303 45.378 55.7303C45.0555 55.7303 44.7497 55.6665 44.4708 55.5489C43.8962 55.307 43.4426 54.8399 43.2142 54.2586C43.1066 53.9932 43.0462 53.7042 43.0462 53.3984L43.0461 53.4017ZM5.31612 1.33426C5.46732 1.32082 5.61853 1.31074 5.77309 1.31074C5.79661 1.31074 5.81677 1.30066 5.84029 1.2973H43.0938C42.5326 1.74755 42.0623 2.30199 41.7061 2.93026L29.8984 2.9269C29.5422 2.9269 29.2532 3.21587 29.2532 3.57204C29.2532 3.9282 29.5422 4.21717 29.8984 4.21717H41.165C41.0743 4.5431 41.0104 4.87574 40.9768 5.22186H17.0535C16.6974 5.22186 16.4084 5.51083 16.4084 5.86699C16.4084 6.22316 16.6974 6.51213 17.0535 6.51213H40.9975C41.0412 6.86157 41.1117 7.2043 41.2159 7.53359H25.8806C25.5245 7.53359 25.2355 7.82256 25.2355 8.17872C25.2355 8.53489 25.5245 8.82386 25.8806 8.82386H41.8077C42.1504 9.37827 42.5805 9.87224 43.0879 10.2821L5.77764 10.2754C5.71716 10.2754 5.65332 10.2754 5.59284 10.272H5.58948C3.18029 10.1712 1.29529 8.20563 1.29529 5.79309C1.29529 3.48471 3.02571 1.56608 5.32067 1.33091L5.31612 1.33426ZM4.5601 11.4345V54.0873C2.74899 53.5799 1.42853 51.9806 1.31766 50.0452V9.46536C2.12744 10.4498 3.25977 11.1555 4.5601 11.4345Z" fill="#CB3D35"/>
<path d="M44.8301 13.9106C42.935 13.9106 41.3927 15.3756 41.2381 17.2304C41.1676 17.2035 41.0937 17.1867 41.0164 17.1867H41.013C34.1753 17.217 24.6662 17.2405 20.1735 17.2237C19.8912 15.5033 18.4061 14.1862 16.6085 14.1862C14.6126 14.1862 12.9863 15.8125 12.9863 17.8084C12.9863 19.8042 14.6126 21.4305 16.6085 21.4305C18.3658 21.4305 19.8308 20.1739 20.16 18.5106C21.205 18.5173 22.6364 18.5207 24.6424 18.5207C28.1335 18.5207 33.3147 18.5073 41.0159 18.477C41.1267 18.477 41.2275 18.44 41.3183 18.3896C41.7013 19.9487 43.0857 21.1113 44.7489 21.1482V27.0586H25.8181C25.4922 25.5701 24.1683 24.458 22.5824 24.458C20.7511 24.458 19.2659 25.9431 19.2659 27.7744C19.2659 29.3973 20.4319 30.7413 21.9708 31.0269V35.3681C20.1093 35.5193 18.6376 37.0616 18.6376 38.9634C18.6376 40.9593 20.2638 42.5855 22.2597 42.5855C24.2556 42.5855 25.8818 40.9593 25.8818 38.9634C25.8818 37.3169 24.7696 35.936 23.261 35.4992V31.0169C24.5781 30.7414 25.603 29.6829 25.8381 28.349H45.39C45.7462 28.349 46.0351 28.06 46.0351 27.7038V20.9333C47.4363 20.4326 48.4443 19.1054 48.4443 17.5329C48.4443 15.537 46.8181 13.9108 44.8222 13.9108L44.8301 13.9106ZM18.9473 17.8083C18.9473 18.0502 18.9003 18.2787 18.8297 18.5005C18.534 19.448 17.657 20.1401 16.6154 20.1401C15.3285 20.1401 14.2836 19.0918 14.2836 17.8083C14.2836 16.5214 15.3285 15.4764 16.6154 15.4764C17.6974 15.4764 18.5979 16.219 18.8633 17.2169C18.9137 17.4084 18.9473 17.6033 18.9473 17.8083ZM22.2671 41.2955C20.9802 41.2955 19.9352 40.2505 19.9352 38.9636C19.9352 37.7775 20.829 36.8031 21.9781 36.6586C22.0722 36.6451 22.1663 36.6283 22.2671 36.6283C22.6266 36.6283 22.966 36.7157 23.2684 36.8636C24.0513 37.2399 24.599 38.0362 24.599 38.9602C24.599 40.2472 23.5541 41.2921 22.2672 41.2921L22.2671 41.2955ZM46.0433 19.5157C45.6871 19.7341 45.2772 19.8652 44.8302 19.8652C44.8034 19.8652 44.7798 19.8585 44.753 19.8585C43.503 19.8181 42.4984 18.7933 42.4984 17.5333C42.4984 16.2598 43.5232 15.2283 44.79 15.2048C44.8034 15.2048 44.8168 15.2015 44.8303 15.2015C45.2772 15.2015 45.6871 15.3325 46.0433 15.5509C46.7119 15.9608 47.1622 16.6933 47.1622 17.5334C47.1622 18.3734 46.7119 19.1058 46.0433 19.5157Z" fill="#CB3D35"/>
<path d="M44.8303 32.0991C43.12 32.0991 41.692 33.2919 41.3157 34.888H33.9471C33.5976 33.4297 32.2939 32.3411 30.7315 32.3411C28.9002 32.3411 27.415 33.8263 27.415 35.6575C27.415 37.4887 28.9002 38.9739 30.7315 38.9739C32.3846 38.9739 33.7421 37.7609 33.9941 36.1783H41.2552C41.4837 37.9592 42.989 39.3435 44.8303 39.3435C46.8262 39.3435 48.4524 37.7173 48.4524 35.7214C48.4524 33.7255 46.8262 32.0991 44.8303 32.0991ZM44.8303 38.0532C43.7013 38.0532 42.7571 37.2468 42.5455 36.1783C42.5153 36.0304 42.4985 35.8792 42.4985 35.7213C42.4985 35.4256 42.5589 35.1467 42.6597 34.888C42.9957 34.0144 43.8391 33.3894 44.8303 33.3894C46.1172 33.3894 47.1622 34.4378 47.1622 35.7213C47.1622 37.0082 46.1172 38.0532 44.8303 38.0532Z" fill="#CB3D35"/>
</svg>
