<svg width="60" height="64" viewBox="0 0 60 64" fill="none" xmlns="http://www.w3.org/2000/svg">
<path d="M10.164 53.2531H45.9849C46.2354 53.2531 46.4734 53.3749 46.6143 53.5812C46.7583 53.7874 46.7897 54.0499 46.702 54.2874C46.4452 54.9656 46.3169 55.6781 46.3169 56.4062C46.3169 59.75 49.0409 62.4687 52.3913 62.4687C55.7417 62.4687 58.4658 59.75 58.4658 56.4062V7.03045H28.328C27.9053 7.03045 27.5608 6.6867 27.5608 6.26482C27.5608 5.84294 27.9053 5.49919 28.328 5.49919L59.2329 5.50231C59.6556 5.50231 60 5.84607 60 6.26794V56.4093C60 60.5968 56.587 64 52.3944 64H16.571C12.3752 64 8.96535 60.5937 8.96535 56.4093C8.96535 55.4968 9.12817 54.603 9.45068 53.7499C9.5634 53.453 9.84834 53.2561 10.1677 53.2561L10.164 53.2531ZM16.5703 62.4691H47.8159C45.9748 61.0816 44.785 58.8816 44.785 56.4066C44.785 55.8566 44.8445 55.3128 44.9603 54.7816H10.7176C10.5705 55.3066 10.4953 55.8535 10.4953 56.4066C10.4953 59.7504 13.22 62.4691 16.5703 62.4691ZM16.5703 51.913C16.993 51.913 17.3375 51.5693 17.3375 51.1474V35.0256C17.3375 34.6038 16.993 34.26 16.5703 34.26C16.1476 34.26 15.8032 34.6038 15.8032 35.0256V51.1474C15.8032 51.5693 16.1476 51.913 16.5703 51.913ZM2.00082 18.4783C0.654411 17.5251 0 16.322 0 14.8064C0 13.2877 0.654419 12.0876 2.00082 11.1345C2.91198 10.4876 3.34412 9.44698 3.15935 8.34697C2.88381 6.72199 3.27207 5.41254 4.34922 4.33757C5.42636 3.2626 6.73832 2.87819 8.36649 3.15003C9.46866 3.33754 10.5145 2.90316 11.1595 1.99378C12.1145 0.650008 13.32 0 14.8386 0C16.3603 0 17.5627 0.653135 18.5177 1.9969C19.1658 2.90627 20.2085 3.33756 21.3107 3.15003C22.9389 2.87503 24.2509 3.26253 25.328 4.33757C26.4051 5.4126 26.7934 6.72199 26.5147 8.34697C26.3269 9.44698 26.7621 10.4908 27.6733 11.1345C29.0197 12.0876 29.6741 13.2908 29.6741 14.8064C29.6741 16.3251 29.0197 17.5251 27.6733 18.4783C26.7621 19.1252 26.33 20.1658 26.5147 21.2658C26.7903 22.8908 26.402 24.2003 25.3249 25.2752C24.9366 25.6627 24.5139 25.9627 24.0599 26.1721L28.0146 34.5314C28.1336 34.7814 28.1054 35.072 27.9488 35.297C27.7923 35.522 27.523 35.6439 27.2506 35.6189L23.2959 35.247L20.7596 38.2971C20.6125 38.4752 20.3964 38.5721 20.171 38.5721C20.1271 38.5721 20.0833 38.569 20.0363 38.5596C19.7639 38.5127 19.5416 38.3221 19.4477 38.0627L16.3322 29.3626C15.8719 29.5282 15.374 29.6095 14.8354 29.6095C14.2812 29.6095 13.7677 29.522 13.2949 29.347L10.1825 38.0407C10.0886 38.3001 9.86627 38.4875 9.59385 38.5376C9.55001 38.5469 9.50618 38.5501 9.45921 38.5501C9.23377 38.5501 9.01772 38.4501 8.87054 38.275L6.33427 35.225L2.37959 35.5969C2.10405 35.6219 1.83791 35.5 1.68135 35.275C1.52479 35.05 1.49661 34.7594 1.61559 34.5094L5.56714 26.1533C5.12877 25.9439 4.72171 25.6533 4.34288 25.2782C3.26572 24.2032 2.88065 22.8938 3.15615 21.2688C3.34402 20.1688 2.90879 19.1251 1.99763 18.4813L2.00082 18.4783ZM20.4372 36.2849L22.3722 33.9567C22.5351 33.7629 22.7824 33.6598 23.0329 33.6848L26.0514 33.9692L22.5382 26.5378C22.1499 26.5597 21.7397 26.5347 21.3108 26.4597C20.2086 26.2722 19.1628 26.7066 18.5178 27.616C18.2579 27.9847 17.9761 28.2972 17.6755 28.5628L20.4403 36.2848L20.4372 36.2849ZM3.57593 33.9442L6.59436 33.6598C6.84798 33.6379 7.09221 33.7379 7.25504 33.9317L9.19013 36.2599L11.9581 28.5254C11.6731 28.2691 11.4038 27.966 11.1534 27.6129C10.5052 26.7035 9.46251 26.2723 8.36034 26.4567C7.90945 26.5317 7.48357 26.5567 7.07965 26.5317L3.57593 33.9442ZM4.66872 21.5225C4.47459 22.6694 4.70003 23.4662 5.4296 24.1943C6.15603 24.9193 6.95757 25.1475 8.10672 24.9537C9.80382 24.6662 11.4101 25.3319 12.4058 26.7319C13.079 27.6788 13.8055 28.0819 14.8356 28.0819C15.8658 28.0819 16.5922 27.6788 17.2653 26.7319C18.1076 25.5475 19.3914 24.8881 20.791 24.8881C21.0446 24.8881 21.3045 24.91 21.5644 24.9537C22.7135 25.1475 23.512 24.9225 24.2415 24.1944C24.9679 23.4694 25.1965 22.6694 25.0024 21.5225C24.7143 19.8287 25.3813 18.2256 26.784 17.2318C27.7328 16.5599 28.1398 15.8349 28.1398 14.8068C28.1398 13.7787 27.7359 13.0537 26.784 12.3818C25.3813 11.3881 24.7175 9.78493 25.0024 8.09115C25.1965 6.94426 24.9711 6.14737 24.2415 5.41928C23.5151 4.69428 22.7135 4.46615 21.5644 4.6599C19.8673 4.94741 18.261 4.28177 17.2653 2.88172C16.5921 1.93483 15.8656 1.53171 14.8355 1.53171C13.8053 1.53171 13.0789 1.93484 12.4058 2.88172C11.4101 4.28173 9.80377 4.94422 8.10667 4.6599C6.95752 4.46614 6.15907 4.69115 5.42955 5.41928C4.70312 6.14429 4.47455 6.94426 4.66867 8.09115C4.95674 9.78493 4.2898 11.3881 2.88701 12.3818C1.93826 13.0537 1.53121 13.7787 1.53121 14.8068C1.53121 15.835 1.93514 16.56 2.88701 17.2318C4.28977 18.2256 4.95361 19.8287 4.66872 21.5225ZM21.6806 47.9948C21.6806 48.4166 22.0251 48.7604 22.4478 48.7604H53.3527C53.7754 48.7604 54.1198 48.4166 54.1198 47.9948C54.1198 47.5729 53.7754 47.2291 53.3527 47.2291H22.4478C22.0251 47.2291 21.6806 47.5729 21.6806 47.9948ZM54.1198 37.185C54.1198 36.7632 53.7753 36.4194 53.3526 36.4194H32.0667C31.644 36.4194 31.2996 36.7632 31.2996 37.185C31.2996 37.6069 31.644 37.9507 32.0667 37.9507H53.3526C53.7753 37.9507 54.1198 37.6069 54.1198 37.185ZM21.6806 42.5882C21.6806 43.0101 22.0251 43.3538 22.4478 43.3538H53.3527C53.7754 43.3538 54.1198 43.0101 54.1198 42.5882C54.1198 42.1663 53.7754 41.8226 53.3527 41.8226H22.4478C22.0251 41.8226 21.6806 42.1663 21.6806 42.5882ZM30.179 31.7785C30.179 32.2004 30.5234 32.5441 30.9461 32.5441H53.3527C53.7754 32.5441 54.1198 32.2004 54.1198 31.7785C54.1198 31.3566 53.7754 31.0129 53.3527 31.0129H30.9461C30.5234 31.0129 30.179 31.3566 30.179 31.7785ZM47.8578 27.9441C47.6293 28.0784 47.4038 28.2128 47.1846 28.3441L46.0449 29.0316C45.9228 29.1066 45.785 29.1409 45.6472 29.1409C45.5094 29.1409 45.3717 29.1034 45.2496 29.0316L44.1098 28.3441C43.8906 28.2128 43.6652 28.0784 43.4366 27.9441C41.4952 26.7909 39.2909 25.4847 38.0917 23.469C37.4842 22.4471 37.1743 21.3189 37.1743 20.1127V13.022C37.1743 12.672 37.4122 12.3688 37.7504 12.2813L39.4068 11.8595C41.323 11.372 42.8918 10.7532 44.0691 10.0188L45.2339 9.29068C45.4812 9.13755 45.7975 9.13755 46.0448 9.29068L47.2096 10.0188C48.3869 10.7532 49.9556 11.3719 51.8719 11.8595L53.5283 12.2813C53.8664 12.3689 54.1044 12.672 54.1044 13.022V20.1127C54.1044 21.3158 53.7944 22.444 53.187 23.469C51.9878 25.4846 49.7865 26.7908 47.8421 27.9441H47.8578ZM52.5859 13.6159L51.5056 13.3409C49.4359 12.8128 47.7231 12.1315 46.4111 11.3159L45.6503 10.8409L44.8894 11.3159C43.5774 12.1315 41.8647 12.8128 39.795 13.3409L38.7147 13.6159V20.1129C38.7147 21.0378 38.9526 21.9035 39.416 22.6879C40.418 24.3692 42.4407 25.5724 44.2255 26.6317C44.4572 26.7692 44.6827 26.9036 44.9081 27.038L45.6502 27.4849L46.3923 27.038C46.6146 26.9036 46.8432 26.7692 47.0749 26.6317C48.8597 25.5724 50.8824 24.3723 51.8844 22.6879C52.3509 21.9035 52.5857 21.0379 52.5857 20.1129L52.5859 13.6159ZM14.8363 7.18144C19.0477 7.18144 22.4732 10.6002 22.4732 14.8034C22.4732 19.0065 19.0477 22.4253 14.8363 22.4253C10.6249 22.4253 7.19939 19.0065 7.19939 14.8034C7.19939 10.6002 10.6249 7.18144 14.8363 7.18144ZM14.8363 20.8944C18.2023 20.8944 20.9389 18.1631 20.9389 14.8037C20.9389 11.4443 18.2023 8.71297 14.8363 8.71297C11.4703 8.71297 8.73361 11.4443 8.73361 14.8037C8.73361 18.1631 11.4703 20.8944 14.8363 20.8944ZM50.6789 18.8662C50.9263 18.5224 50.8449 18.0444 50.5004 17.7975C50.156 17.5506 49.677 17.6318 49.4296 17.9756L47.41 20.7975L41.7551 15.8037C41.4389 15.5224 40.9535 15.5537 40.6717 15.8693C40.3899 16.1849 40.4212 16.6693 40.7375 16.9506L47.0311 22.5069C47.172 22.6319 47.3536 22.6975 47.5384 22.6975C47.5666 22.6975 47.5947 22.6944 47.6261 22.6912C47.8421 22.6662 48.0362 22.5506 48.1646 22.3756L50.6789 18.86L50.6789 18.8662Z" fill="#CB3D35"/>
</svg>
