<svg width="54" height="70" viewBox="0 0 54 70" fill="none" xmlns="http://www.w3.org/2000/svg">
<path d="M34.8227 22.0975L24.4053 32.5149L18.7123 26.8218C18.4753 26.5849 18.0895 26.5849 17.8525 26.8218C17.6156 27.0588 17.6156 27.4446 17.8525 27.6816L23.9739 33.803C24.0924 33.9215 24.2473 33.9822 24.4023 33.9822C24.5572 33.9822 24.7122 33.9215 24.8306 33.803L35.6789 22.9547C35.9158 22.7178 35.9158 22.332 35.6789 22.095C35.445 21.8611 35.0622 21.8611 34.8221 22.098L34.8227 22.0975Z" fill="#CB3D35" stroke="#CB3D35" stroke-width="0.5"/>
<path d="M51.2616 28.6536C51.1128 28.1949 51.1128 27.7089 51.2616 27.2501L53.1147 21.548C53.5826 20.1049 53.0753 18.5404 51.8479 17.6473L46.9964 14.1233C46.6106 13.8438 46.3189 13.4398 46.1731 12.9872L44.3169 7.28504C43.8491 5.84503 42.5154 4.87593 40.9995 4.87593H35.0058C34.5227 4.87593 34.061 4.72707 33.669 4.44151L28.8175 0.917565C27.5902 0.0274785 25.9436 0.0274785 24.7193 0.917565L19.8708 4.44151C19.4789 4.72708 19.0171 4.87593 18.5341 4.87593H12.5372C11.0213 4.87593 9.68765 5.84503 9.21986 7.28504L7.36674 12.9872C7.21788 13.4459 6.93232 13.8378 6.54042 14.1233L1.68885 17.6473C0.461552 18.5374 -0.0458244 20.105 0.422044 21.5449L2.27517 27.2471C2.42403 27.7058 2.42403 28.1918 2.27517 28.6506L0.422044 34.3527C-0.0457933 35.7928 0.464575 37.3603 1.68885 38.2504L6.54042 41.7743C6.92624 42.0538 7.21788 42.4579 7.36674 42.9105L9.21986 48.6126C9.41428 49.2081 9.76061 49.7154 10.2011 50.1164L3.73943 61.2991C3.6088 61.5239 3.63615 61.8064 3.80627 62.0008C3.97639 62.1952 4.25284 62.2621 4.49284 62.1649L14.7671 58.0303L16.3225 68.9882C16.359 69.2433 16.5534 69.4499 16.8086 69.4985C16.8481 69.5076 16.8876 69.5107 16.9241 69.5107C17.1397 69.5107 17.3403 69.3983 17.4496 69.2069L25.4367 55.3723C25.865 55.5515 26.3146 55.6487 26.7703 55.6487C27.2259 55.6487 27.6756 55.5485 28.1039 55.3723L36.0909 69.2069C36.2003 69.3983 36.4008 69.5107 36.6165 69.5107C36.653 69.5107 36.6924 69.5076 36.7319 69.4985C36.9871 69.4499 37.1815 69.2433 37.218 68.9882L38.7734 58.0303L49.0477 62.1649C49.2877 62.2621 49.5642 62.1952 49.7343 62.0008C49.9044 61.8064 49.9318 61.5239 49.8011 61.2991L43.3395 50.1164C43.78 49.7184 44.1263 49.208 44.3207 48.6126L46.1738 42.9105C46.3196 42.4578 46.6143 42.0538 46.9971 41.7743L51.8487 38.2504C53.076 37.3603 53.5833 35.7927 53.1155 34.3497L51.2616 28.6536ZM17.2766 67.0801L15.8579 57.0975C15.8306 56.9122 15.7212 56.7512 15.5602 56.657C15.3992 56.5659 15.2048 56.5507 15.0286 56.6205L5.67196 60.3876L11.2313 50.7666C11.6384 50.9306 12.0758 51.0278 12.5346 51.0278H18.5314C19.0145 51.0278 19.4762 51.1767 19.8682 51.4623L24.3946 54.7493L17.2766 67.0801ZM47.8654 60.3846L38.5088 56.6175C38.3356 56.5476 38.1412 56.5598 37.9771 56.6539C37.8161 56.7481 37.7068 56.9091 37.6794 57.0945L36.2607 67.0802L29.1429 54.752L33.6694 51.4649C34.0613 51.1794 34.5231 51.0305 35.0061 51.0305H40.9999C41.4587 51.0305 41.8991 50.9333 42.3062 50.7693L47.8654 60.3846ZM51.1342 37.2719L46.2826 40.7958C45.6841 41.2333 45.2467 41.8348 45.0158 42.5396L43.1627 48.2417C42.8589 49.1804 41.99 49.8123 41.0027 49.8123H35.0089C34.2677 49.8123 33.5598 50.0432 32.9584 50.4776L28.1068 54.0016C27.3078 54.5818 26.2355 54.5818 25.4365 54.0016L20.5849 50.4776C19.9834 50.0432 19.2755 49.8123 18.5343 49.8123H12.5375C11.5502 49.8123 10.6813 49.1804 10.3776 48.2417L8.52443 42.5396C8.29659 41.8348 7.85609 41.2333 7.25762 40.7958L2.40605 37.2719C1.60712 36.6916 1.27597 35.6709 1.57974 34.7292L3.43286 29.027C3.66071 28.3222 3.66071 27.5749 3.43286 26.8731L1.57974 21.171C1.27595 20.2323 1.60708 19.2116 2.40605 18.6283L7.25762 15.1043C7.85609 14.6669 8.29656 14.0654 8.52443 13.3606L10.3776 7.65841C10.6813 6.71972 11.5502 6.08783 12.5375 6.08783H18.5343C19.2756 6.08783 19.9834 5.85695 20.5849 5.42253L25.4365 1.89858C26.2354 1.31834 27.3078 1.31834 28.1068 1.89858L32.9584 5.42253C33.5599 5.85695 34.2677 6.08783 35.0089 6.08783H41.0027C41.99 6.08783 42.8589 6.71972 43.1627 7.65841L45.0158 13.3606C45.2436 14.0654 45.6811 14.6669 46.2826 15.1043L51.1342 18.6283C51.9331 19.2085 52.2642 20.2293 51.9605 21.168L50.1073 26.8701C49.8795 27.5749 49.8795 28.3192 50.1073 29.024L51.9605 34.7261C52.2643 35.6709 51.9331 36.6916 51.1342 37.2719Z" fill="#CB3D35" stroke="#CB3D35" stroke-width="0.5"/>
<path d="M26.7707 12.562C18.2859 12.562 11.3838 19.4642 11.3838 27.9489C11.3838 36.4337 18.2859 43.3359 26.7707 43.3359C35.2555 43.3359 42.1577 36.4337 42.1577 27.9489C42.1577 19.4673 35.2555 12.562 26.7707 12.562ZM26.7707 42.1242C18.9571 42.1242 12.5986 35.7658 12.5986 27.9521C12.5986 20.1353 18.9539 13.7768 26.7707 13.7768C34.5844 13.7768 40.9429 20.1352 40.9429 27.9489C40.9429 35.7657 34.5845 42.1242 26.7707 42.1242Z" fill="#CB3D35" stroke="#CB3D35" stroke-width="0.5"/>
</svg>
