<svg width="57" height="70" viewBox="0 0 57 70" fill="none" xmlns="http://www.w3.org/2000/svg">
<path d="M27.7899 6.43765V0.716291C27.7899 0.320996 28.1084 0 28.5005 0C28.8926 0 29.211 0.320996 29.211 0.716291V6.43765C29.211 6.83295 28.8926 7.15394 28.5005 7.15394C28.1084 7.15097 27.7899 6.83295 27.7899 6.43765ZM12.3647 13.4668C12.5003 13.6035 12.6831 13.6808 12.8629 13.6808C13.0428 13.6808 13.2255 13.6124 13.3612 13.4668C13.6412 13.1844 13.6412 12.7356 13.3612 12.4563L9.34575 8.40823C9.06568 8.12588 8.6205 8.12588 8.34339 8.40823C8.06331 8.69058 8.06331 9.13938 8.34339 9.41874L12.3647 13.4668ZM6.38574 28.0154H0.710515C0.318408 28.0154 0 28.3364 0 28.7317C0 29.127 0.318408 29.448 0.710515 29.448H6.38574C6.77785 29.448 7.09626 29.127 7.09626 28.7317C7.09626 28.3334 6.77785 28.0154 6.38574 28.0154ZM12.3647 43.9845L8.34926 48.0326C8.06919 48.3149 8.06919 48.7637 8.34926 49.0431C8.48488 49.1798 8.66767 49.2571 8.84751 49.2571C9.02734 49.2571 9.21013 49.1887 9.34575 49.0431L13.3612 44.995C13.6412 44.7127 13.6412 44.2639 13.3612 43.9845C13.087 43.7051 12.6418 43.7051 12.3647 43.9845ZM44.6356 43.9845C44.3555 43.7022 43.9104 43.7022 43.6333 43.9845C43.3532 44.2669 43.3532 44.7157 43.6333 44.995L47.6487 49.0431C47.7843 49.1798 47.9671 49.2571 48.1469 49.2571C48.3268 49.2571 48.5096 49.1887 48.6452 49.0431C48.9252 48.7607 48.9252 48.3119 48.6452 48.0326L44.6356 43.9845ZM56.2895 28.0154H50.6143C50.2221 28.0154 49.9037 28.3364 49.9037 28.7317C49.9037 29.127 50.2221 29.448 50.6143 29.448H56.2895C56.6816 29.448 57 29.127 57 28.7317C57 28.3334 56.6728 28.0154 56.2895 28.0154ZM44.1315 13.6806C44.3113 13.6806 44.4941 13.6122 44.6297 13.4666L48.6451 9.41855C48.9252 9.1362 48.9252 8.6874 48.6451 8.40804C48.365 8.12569 47.9199 8.12569 47.6428 8.40804L43.6273 12.4561C43.3473 12.7384 43.3473 13.1872 43.6273 13.4666C43.7689 13.6122 43.9487 13.6806 44.1315 13.6806ZM39.2169 50.4314V51.0258C40.6143 51.4508 41.6314 52.7467 41.6314 54.2892C41.6314 55.704 40.7794 56.9225 39.5647 57.4397C40.0924 58.0401 40.4167 58.8396 40.4167 59.7075C40.4167 61.5027 39.037 62.956 37.3005 63.1016C36.2804 67.123 32.6748 70 28.5003 70C24.3258 70 20.7197 67.123 19.7092 63.0927C17.9668 62.9471 16.5929 61.4878 16.5929 59.6986C16.5929 58.8307 16.9172 58.0401 17.4449 57.4308C16.2303 56.9047 15.3783 55.6951 15.3783 54.2803C15.3783 52.7349 16.4042 51.4419 17.7928 51.0169V50.4225C17.7928 47.5455 16.758 45.0815 14.7061 43.0813C10.8115 39.2858 8.67704 34.1799 8.67704 28.7229C8.67704 17.6994 17.5746 8.7265 28.5122 8.7265C39.4468 8.7265 48.3474 17.6964 48.3474 28.7229C48.3474 34.1857 46.2041 39.283 42.3184 43.0813C40.2517 45.0815 39.2169 47.5543 39.2169 50.4314ZM19.2013 50.4314V50.8564H37.7987V50.4225C37.7987 47.1501 38.9839 44.3355 41.3159 42.0529C44.9304 38.522 46.9175 33.7906 46.9175 28.7224C46.9175 18.4895 38.6539 10.1587 28.5035 10.1587C18.35 10.1587 10.0864 18.4895 10.0864 28.7224C10.0864 33.79 12.0794 38.5308 15.688 42.0529C18.017 44.3355 19.2022 47.1501 19.2022 50.4316L19.2013 50.4314ZM35.8205 63.1227H21.1802C22.162 66.3266 25.1131 68.5707 28.5005 68.5707C31.888 68.5707 34.8329 66.3267 35.8205 63.1227ZM38.9987 59.6988C38.9987 58.5961 38.1083 57.7045 37.0204 57.7045H19.98C18.8863 57.7045 18.0018 58.6021 18.0018 59.6988C18.0018 60.7955 18.8922 61.6931 19.98 61.6931H37.0204C38.1142 61.6901 38.9987 60.8014 38.9987 59.6988ZM38.2351 52.2862H18.7652C17.6714 52.2862 16.787 53.1838 16.787 54.2805C16.787 55.3773 17.6773 56.2749 18.7652 56.2749H38.2381C39.3319 56.2749 40.2164 55.3773 40.2164 54.2805C40.2134 53.1838 39.3318 52.2862 38.2351 52.2862ZM19.4875 40.1808C18.603 39.4734 17.8129 38.6679 17.1113 37.7853C16.5983 37.1314 16.56 36.2249 17.0287 35.5324C17.5653 34.7269 17.7245 33.9423 17.4651 33.3181C17.2086 32.694 16.5511 32.2451 15.6077 32.0639C14.794 31.9034 14.1808 31.2347 14.0894 30.4054C13.9597 29.2939 13.9597 28.1674 14.0894 27.0588C14.1867 26.2296 14.7911 25.5608 15.6077 25.4004C16.5511 25.2191 17.2086 24.7703 17.4651 24.1461C17.7215 23.522 17.5712 22.7314 17.0287 21.9319C16.56 21.2393 16.5983 20.3328 17.1113 19.679C17.8071 18.7873 18.606 17.9819 19.4875 17.2835C20.1361 16.7574 21.0412 16.7277 21.7281 17.2002C22.5271 17.7471 23.3054 17.9017 23.9334 17.6401C24.5584 17.3815 24.9977 16.7128 25.1775 15.7528C25.3367 14.9325 25.9912 14.3143 26.8226 14.2162C27.94 14.0854 29.0633 14.0854 30.1806 14.2162C31.0031 14.3143 31.6665 14.9325 31.8257 15.7528C32.0055 16.7128 32.4507 17.3726 33.0698 17.6401C33.6889 17.8987 34.4731 17.7471 35.275 17.2002C35.962 16.7277 36.8671 16.7663 37.5157 17.2835C38.4002 17.9908 39.1991 18.7963 39.8919 19.679C40.4049 20.3329 40.4432 21.2394 39.9744 21.9319C39.4379 22.7373 39.2787 23.5219 39.5381 24.1461C39.7946 24.7703 40.452 25.2191 41.3954 25.4004C42.2091 25.5609 42.8223 26.2295 42.9137 27.0588C43.0435 28.1704 43.0435 29.2968 42.9137 30.4054C42.8164 31.2346 42.2121 31.9034 41.3954 32.0639C40.452 32.2452 39.7946 32.694 39.5381 33.3181C39.2816 33.9423 39.432 34.7329 39.9744 35.5324C40.4432 36.2249 40.4049 37.1314 39.8919 37.7853C39.1961 38.6769 38.3971 39.4824 37.5157 40.1808C36.8671 40.7069 35.962 40.7366 35.275 40.264C34.4761 39.7231 33.6978 39.5626 33.0698 39.8241C32.4447 40.0827 32.0054 40.7515 31.8257 41.7115C31.6665 42.5318 31.012 43.15 30.1806 43.248C29.6234 43.3164 29.0632 43.3461 28.506 43.3461C27.9488 43.3461 27.3827 43.3164 26.8225 43.248C26 43.15 25.3366 42.5318 25.1774 41.7115C24.9976 40.7515 24.5524 40.0917 23.9333 39.8241C23.3142 39.5656 22.53 39.7171 21.7281 40.264C21.0441 40.7366 20.139 40.7069 19.4875 40.1808ZM20.372 39.0632C20.5371 39.1999 20.7582 39.2089 20.938 39.087C21.7223 38.5461 22.53 38.2726 23.2995 38.2726C23.7063 38.2726 24.0985 38.3499 24.4758 38.5074C25.5549 38.9562 26.3037 39.9994 26.5749 41.4439C26.6132 41.6579 26.7724 41.8095 26.9906 41.8333C27.993 41.9462 29.0219 41.9462 30.0242 41.8333C30.2365 41.8095 30.3928 41.6579 30.4399 41.4439C30.7112 39.9995 31.46 38.9563 32.539 38.5074C33.6181 38.0586 34.871 38.2637 36.0798 39.087C36.2596 39.2089 36.4719 39.1999 36.6458 39.0632C37.4389 38.4242 38.1641 37.702 38.7891 36.8935C38.9247 36.7271 38.9336 36.5042 38.8127 36.3229C37.999 35.1043 37.7926 33.8411 38.2378 32.7622C38.683 31.6804 39.7089 30.9284 41.1358 30.655C41.3481 30.6164 41.4985 30.4559 41.522 30.2359C41.6341 29.2314 41.6341 28.2119 41.522 27.2073C41.4985 26.9933 41.3481 26.8358 41.1358 26.7882C39.7178 26.5059 38.6829 25.7598 38.2378 24.681C37.7926 23.5932 37.9961 22.3301 38.8127 21.1203C38.9336 20.939 38.9247 20.7251 38.7891 20.5497C38.1641 19.7502 37.4388 19.0191 36.6458 18.38C36.4807 18.2433 36.2596 18.2344 36.0798 18.3562C34.871 19.1765 33.6181 19.3846 32.539 18.9358C31.46 18.487 30.7111 17.4438 30.4399 15.9993C30.4016 15.7853 30.2424 15.6337 30.0242 15.6099C29.0219 15.497 27.993 15.497 26.9906 15.6099C26.7783 15.6337 26.6221 15.7853 26.5749 15.9993C26.3037 17.4437 25.5548 18.487 24.4758 18.9358C23.3968 19.3846 22.1439 19.1795 20.9351 18.3562C20.7552 18.2344 20.543 18.2433 20.369 18.38C19.5759 19.019 18.8507 19.7413 18.2257 20.5497C18.0901 20.7161 18.0813 20.939 18.2021 21.1203C19.0158 22.339 19.2222 23.6021 18.777 24.681C18.3319 25.7629 17.3059 26.5148 15.879 26.7882C15.6667 26.8269 15.5164 26.9874 15.4928 27.2073C15.3808 28.2119 15.3808 29.2314 15.4928 30.2359C15.5164 30.4499 15.6667 30.6074 15.879 30.655C17.2971 30.9374 18.3319 31.6834 18.777 32.7622C19.2222 33.85 19.0188 35.1132 18.2021 36.3229C18.0813 36.5042 18.0901 36.7182 18.2257 36.8935C18.8537 37.702 19.5789 38.4331 20.372 39.0632ZM20.4103 28.723C20.4103 24.2261 24.0395 20.5672 28.5003 20.5672C32.9611 20.5672 36.5903 24.226 36.5903 28.723C36.5903 33.22 32.9611 36.8788 28.5003 36.8788C24.0395 36.8788 20.4103 33.22 20.4103 28.723ZM21.8284 28.723C21.8284 32.4293 24.8237 35.4489 28.5001 35.4489C32.1764 35.4489 35.1718 32.4292 35.1718 28.723C35.1718 25.0168 32.1764 21.9971 28.5001 21.9971C24.8237 21.9971 21.8284 25.0168 21.8284 28.723Z" fill="#CB3D35"/>
</svg>
