<svg width="57" height="56" viewBox="0 0 57 56" fill="none" xmlns="http://www.w3.org/2000/svg">
<path d="M31.1772 32.6471C31.2176 32.6376 31.2579 32.6281 31.2983 32.6091C31.3363 32.5901 31.3672 32.5663 31.4028 32.5402C31.4242 32.5236 31.4504 32.5141 31.4717 32.4951L35.1392 28.8276C35.2532 28.7135 35.3174 28.5591 35.3174 28.3976C35.3174 28.2361 35.2532 28.0817 35.1392 27.9677L32.8803 25.7088L45.073 13.516C45.465 13.1241 45.9258 12.8201 46.4389 12.6134L49.2893 11.4661C50.3463 11.0386 51.2109 10.2428 51.7216 9.2238L54.1207 4.42564C54.2371 4.19048 54.192 3.90782 54.0067 3.72257L50.7121 0.427958C50.5268 0.24268 50.2441 0.197548 50.009 0.313942L45.2108 2.71302C44.1918 3.22372 43.3937 4.08596 42.9685 5.14537L41.8212 7.99577C41.6146 8.50885 41.3105 8.96968 40.9186 9.3616L28.7259 21.5543L26.4693 19.2978C26.2413 19.0698 25.8374 19.0698 25.6094 19.2978L21.9419 22.9653C21.9229 22.9843 21.9134 23.0104 21.8968 23.0342C21.8707 23.0674 21.8445 23.1007 21.8279 23.1387C21.8089 23.1767 21.8018 23.2171 21.7923 23.2574C21.7852 23.2836 21.7709 23.3073 21.7685 23.3358C21.7638 23.3738 21.3742 27.1269 19.4478 29.0532C18.3409 30.1601 16.5665 30.8181 15.2744 31.1744C13.8872 31.5569 12.6187 32.2908 11.6092 33.3004L1.74912 43.1556C0.582807 44.3219 0.0483599 45.9656 0.319141 47.5571C0.613685 49.284 1.3524 50.7519 2.51871 51.9159C3.68502 53.0822 5.15057 53.8209 6.87747 54.1131C7.15064 54.1606 7.4238 54.182 7.69699 54.182C9.01769 54.182 10.3122 53.6499 11.279 52.6831L21.1342 42.8279C22.1438 41.8184 22.8801 40.5499 23.2602 39.1628C23.6165 37.8706 24.2745 36.0962 25.3814 34.9893C27.3006 33.0701 31.0608 32.671 31.0988 32.6686C31.1273 32.6686 31.1511 32.6542 31.1772 32.6471ZM41.7761 10.2239C42.2845 9.71557 42.6788 9.11937 42.9472 8.45187L44.0945 5.60147C44.4104 4.81996 44.9995 4.18104 45.7525 3.80336L50.1587 1.60142L52.8333 4.27602L50.6314 8.68228C50.2537 9.43764 49.6147 10.0267 48.8333 10.3403L45.9852 11.4876C45.3177 11.756 44.7216 12.1503 44.2132 12.6586L32.018 24.8513L29.5833 22.4166L41.7761 10.2239ZM24.5241 34.1338C23.2296 35.4284 22.4861 37.4118 22.0894 38.8441C21.764 40.0294 21.1345 41.1102 20.2746 41.9724L10.4218 51.8253C9.53345 52.7136 8.28639 53.1222 7.08445 52.9156C5.61172 52.6661 4.36466 52.0391 3.38132 51.058C2.39793 50.0746 1.77324 48.8299 1.52143 47.3549C1.31715 46.153 1.72571 44.9036 2.61173 44.0176L12.467 34.1623C13.3269 33.3024 14.41 32.673 15.5953 32.3475C17.03 31.9509 19.011 31.2097 20.3056 29.9128C22.27 27.9484 22.8329 24.5731 22.9494 23.6775L26.0373 20.5896L33.8451 28.3974L31.0374 31.2051L27.1656 27.3333C26.9281 27.0957 26.5433 27.0957 26.3057 27.3333C26.0682 27.5708 26.0682 27.9556 26.3057 28.1931L29.769 31.6564C28.358 31.9485 26.0277 32.6279 24.5241 34.1338Z" fill="#CB3D35" stroke="#CB3D35" stroke-width="0.5"/>
<path d="M14.6988 36.5395C14.4612 36.3019 14.0765 36.3019 13.8389 36.5395L5.44182 44.9365C5.20429 45.1741 5.20429 45.5589 5.44182 45.7964C5.56059 45.9152 5.71736 45.9746 5.87175 45.9746C6.02615 45.9746 6.18292 45.9152 6.30169 45.7964L14.6988 37.3994C14.9363 37.1618 14.9363 36.7771 14.6988 36.5395Z" fill="#CB3D35" stroke="#CB3D35" stroke-width="0.5"/>
<path d="M17.0332 39.7387L8.63616 48.1358C8.39863 48.3733 8.39863 48.7581 8.63616 48.9957C8.75492 49.1144 8.91169 49.1738 9.06609 49.1738C9.22049 49.1738 9.37726 49.1144 9.49603 48.9957L17.8931 40.5986C18.1306 40.3611 18.1306 39.9763 17.8931 39.7387C17.6556 39.5012 17.2708 39.5012 17.0332 39.7387Z" fill="#CB3D35" stroke="#CB3D35" stroke-width="0.5"/>
<path d="M52.5024 38.0308C50.5427 36.4678 48.0676 35.7576 45.5282 36.0307C44.1197 36.1827 42.6969 35.6507 41.6208 34.5747L37.0387 29.9926C36.8012 29.7551 36.4164 29.7551 36.1788 29.9926C35.9413 30.2301 35.9413 30.6149 36.1788 30.8525L40.7609 35.4346C42.0982 36.7719 43.8844 37.4322 45.6588 37.2398C47.8417 37.0047 50.0604 37.6389 51.7421 38.981C54.07 40.8385 55.2244 43.7031 54.8324 46.6441C54.8134 46.7866 54.7065 46.8436 54.6448 46.865C54.602 46.8792 54.4524 46.9172 54.3265 46.7937L49.0366 41.5039C48.3193 40.7865 47.2694 40.5205 46.2931 40.815L45.9986 40.9053C44.0389 41.4967 42.5163 43.0194 41.9249 44.979L41.8346 45.2759C41.5401 46.2474 41.8037 47.2997 42.5235 48.017L47.8133 53.3069C47.925 53.4185 47.906 53.5444 47.8846 53.6062C47.8656 53.6608 47.8038 53.7915 47.6257 53.8152C45.0366 54.1525 42.4902 53.2855 40.6491 51.4446C38.8581 49.6536 37.984 47.1809 38.2476 44.6584C38.4377 42.8603 37.7797 41.0645 36.4472 39.7319L31.0908 34.3732C30.8532 34.1356 30.4685 34.1356 30.2309 34.3732C29.9934 34.6107 29.9934 34.9955 30.2309 35.2331L35.5873 40.5918C36.6609 41.6655 37.1882 43.1002 37.0386 44.5325C36.7345 47.4209 37.7369 50.2547 39.7892 52.3045C41.6016 54.1169 44.0054 55.1026 46.528 55.1026C46.9437 55.1026 47.3618 55.0765 47.7822 55.0219C48.3689 54.9459 48.8487 54.5539 49.0387 53.9981C49.224 53.4494 49.0863 52.8556 48.6753 52.447L43.3855 47.1571C42.984 46.7557 42.8368 46.169 43.0007 45.6274L43.0909 45.3305C43.566 43.7628 44.7846 42.5443 46.3546 42.0692L46.6492 41.9789C47.1931 41.815 47.7775 41.9623 48.1789 42.3637L53.4687 47.6536C53.8797 48.0669 54.4807 48.2047 55.0365 48.017C55.5804 47.8341 55.9652 47.3685 56.0388 46.8056C56.4901 43.4373 55.1675 40.1566 52.5024 38.0308Z" fill="#CB3D35" stroke="#CB3D35" stroke-width="0.5"/>
<path d="M5.54056 17.9669C7.47172 19.5061 10.011 20.2378 12.5123 19.967C13.9208 19.815 15.3461 20.347 16.4221 21.423L19.1774 24.1784C19.2962 24.2972 19.453 24.3565 19.6074 24.3565C19.7618 24.3565 19.9185 24.2972 20.0373 24.1784C20.2748 23.9409 20.2748 23.5561 20.0373 23.3185L17.2819 20.5631C15.9446 19.2258 14.1584 18.5679 12.384 18.7579C10.2011 18.993 7.98249 18.3588 6.3007 17.0167C3.97289 15.1592 2.81844 12.2946 3.21041 9.35605C3.22941 9.21116 3.3363 9.15415 3.39806 9.13515C3.44082 9.1209 3.59046 9.08289 3.71398 9.20641L9.00384 14.4963C9.72357 15.216 10.7735 15.4797 11.745 15.1851L12.0419 15.0948C13.9992 14.5034 15.5218 12.9808 16.1156 11.0212L16.2058 10.7242C16.5004 9.7527 16.2367 8.70047 15.517 7.98311L10.2271 2.69325C10.1155 2.58161 10.1345 2.45572 10.1559 2.39158C10.1749 2.33695 10.2366 2.2063 10.4148 2.18255C13.0039 1.84763 15.5503 2.71225 17.3914 4.55311C19.1824 6.34411 20.0565 8.81683 19.7904 11.3394C19.6028 13.1375 20.2584 14.9333 21.5909 16.2658L23.6574 18.3323C23.895 18.5699 24.2798 18.5699 24.5173 18.3323C24.7549 18.0948 24.7549 17.71 24.5173 17.4725L22.4508 15.4059C21.3772 14.3323 20.8499 12.8976 20.9995 11.4652C21.3035 8.57682 20.3012 5.74302 18.2489 3.69328C16.1372 1.58395 13.2251 0.591068 10.2556 0.975865C9.67126 1.05188 9.18907 1.44381 9.00142 1.99727C8.81377 2.54597 8.95391 3.1398 9.36485 3.55074L14.6547 8.84061C15.0561 9.24204 15.2034 9.82638 15.0395 10.3703L14.9492 10.6672C14.4742 12.2349 13.2556 13.4535 11.6879 13.9286L11.391 14.0188C10.847 14.1827 10.2627 14.0355 9.86128 13.634L4.57142 8.34417C4.16048 7.93324 3.5595 7.7931 3.00608 7.98074C2.46213 8.16364 2.07735 8.62921 2.00134 9.19217C1.5524 12.5604 2.87307 15.841 5.54056 17.9669Z" fill="#CB3D35" stroke="#CB3D35" stroke-width="0.5"/>
</svg>
