<svg width="15" height="15" viewBox="0 0 15 15" fill="none" xmlns="http://www.w3.org/2000/svg">
<path d="M14.6151 0.197953C14.4876 0.0711654 14.3151 0 14.1352 0C13.9554 0 13.7828 0.0711654 13.6553 0.197953L7.42654 6.4267L1.19779 0.197953C1.06756 0.0864306 0.900048 0.028155 0.728723 0.0347726C0.557397 0.0413901 0.394879 0.112413 0.273644 0.233649C0.152408 0.354885 0.0813845 0.517403 0.0747669 0.688728C0.0681494 0.860054 0.126425 1.02757 0.237948 1.15779L6.4667 7.38655L0.237948 13.6153C0.166687 13.6763 0.10881 13.7514 0.0679503 13.8359C0.0270902 13.9203 0.00412845 14.0123 0.000507272 14.1061C-0.00311391 14.1998 0.0126833 14.2933 0.0469071 14.3807C0.0811309 14.468 0.133043 14.5474 0.199384 14.6137C0.265725 14.68 0.345063 14.732 0.432419 14.7662C0.519775 14.8004 0.613261 14.8162 0.707012 14.8126C0.800763 14.809 0.892753 14.786 0.977209 14.7451C1.06166 14.7043 1.13676 14.6464 1.19779 14.5751L7.42654 8.34639L13.6553 14.5751C13.7163 14.6464 13.7914 14.7043 13.8759 14.7451C13.9603 14.786 14.0523 14.809 14.1461 14.8126C14.2398 14.8162 14.3333 14.8004 14.4207 14.7662C14.508 14.732 14.5874 14.68 14.6537 14.6137C14.72 14.5474 14.7719 14.468 14.8062 14.3807C14.8404 14.2933 14.8562 14.1998 14.8526 14.1061C14.849 14.0123 14.826 13.9203 14.7851 13.8359C14.7443 13.7514 14.6864 13.6763 14.6151 13.6153L8.38638 7.38655L14.6151 1.15779C14.7419 1.03025 14.8131 0.857715 14.8131 0.677874C14.8131 0.498032 14.7419 0.325498 14.6151 0.197953Z" fill="#CB3D35"/>
</svg>
