<svg width="26" height="36" viewBox="0 0 26 36" fill="none" xmlns="http://www.w3.org/2000/svg">
<path fill-rule="evenodd" clip-rule="evenodd" d="M12.699 31.0814C11.5459 29.9208 10.2387 28.578 8.92861 27.1089V27.1074C6.96492 27.3095 5.04489 27.8244 3.24117 28.6341C1.93556 29.2828 1.16728 30.0484 1.16728 30.8429C1.16728 31.8789 2.44271 32.8496 4.50752 33.5833C6.675 34.3535 9.67718 34.8275 12.9995 34.8275C16.3217 34.8275 19.3237 34.3504 21.4914 33.5833C23.5562 32.8496 24.8316 31.8789 24.8316 30.8429C24.8316 30.0408 24.0528 29.2706 22.7306 28.6189L22.7321 28.6204C20.9072 27.8077 18.9647 27.2927 16.9782 27.0952C15.6545 28.5627 14.3337 29.9071 13.1685 31.0798L13.17 31.0813C13.0387 31.2119 12.8289 31.2121 12.699 31.0814ZM8.39723 26.5042C7.30143 25.2525 6.27051 23.9476 5.30602 22.5924C2.99364 19.3142 1.25499 15.7503 1.25499 12.3219C1.25499 8.09894 3.49341 4.19607 7.1279 2.08479C10.7625 -0.0282648 15.2392 -0.0282648 18.8737 2.08479C22.5083 4.19634 24.7466 8.09894 24.7466 12.3219C24.7466 15.7702 22.9867 19.3187 20.6488 22.5877V22.5892C19.6708 23.9428 18.6248 25.2461 17.5169 26.4933C19.4187 26.7181 21.2768 27.2331 23.0231 28.0215C24.5808 28.7902 25.5 29.7624 25.5 30.8455C25.5 32.1975 24.0525 33.3854 21.713 34.2179C19.4791 35.0093 16.3969 35.5 13.0008 35.5C9.60469 35.5 6.52237 35.0093 4.28704 34.2164C1.9475 33.3854 0.5 32.196 0.5 30.844C0.5 29.7685 1.40715 28.8008 2.94669 28.0351V28.0367C4.67495 27.2498 6.51186 26.7333 8.39572 26.5054L8.39723 26.5042ZM13.0008 6.09073C11.022 6.08921 9.15643 7.01585 7.95209 8.59419C6.7476 10.174 6.34157 12.2263 6.85325 14.1494C7.36492 16.0726 8.73545 17.6479 10.5633 18.4105C12.3912 19.1715 14.4667 19.0364 16.1797 18.0413C17.8928 17.0463 19.049 15.3054 19.3071 13.3323C19.5667 11.3575 18.8981 9.37499 17.5004 7.96683C16.308 6.76369 14.6885 6.08769 13.0008 6.09073ZM17.0294 8.43925C15.7766 7.17992 14.0137 6.57683 12.2581 6.81079C10.5012 7.04321 8.95411 8.08377 8.06801 9.62719C7.1835 11.1706 7.06125 13.0406 7.73897 14.6874C8.41668 16.3341 9.81588 17.5706 11.5275 18.0309C13.2377 18.4927 15.064 18.1266 16.4692 17.042C17.8729 15.9573 18.697 14.2757 18.697 12.494C18.6985 10.9733 18.0981 9.51332 17.0294 8.43925ZM5.84659 22.2054C3.60516 19.0275 1.92076 15.5928 1.92076 12.3238V12.3223C1.92076 8.33931 4.03236 4.65693 7.46021 2.66544C10.8895 0.673908 15.1129 0.673908 18.5422 2.66544C21.97 4.65697 24.0816 8.33931 24.0816 12.3223C24.0816 15.6096 22.376 19.0322 20.1106 22.1965C17.9084 25.2773 15.1627 28.1224 12.9351 30.3694C10.7345 28.1485 8.02512 25.2971 5.84698 22.2059L5.84659 22.2054Z" fill="#CB3D35"/>
<path d="M17.0294 8.44077V8.43925M17.0294 8.43925C15.7766 7.17992 14.0137 6.57683 12.2581 6.81079C10.5012 7.04321 8.95411 8.08377 8.06801 9.62719C7.1835 11.1706 7.06125 13.0406 7.73897 14.6874C8.41668 16.3341 9.81588 17.5706 11.5275 18.0309C13.2377 18.4927 15.064 18.1266 16.4692 17.042C17.8729 15.9573 18.697 14.2757 18.697 12.494C18.6985 10.9733 18.0981 9.51332 17.0294 8.43925ZM12.699 31.0814C11.5459 29.9208 10.2387 28.578 8.92861 27.1089V27.1074C6.96492 27.3095 5.04489 27.8244 3.24117 28.6341C1.93556 29.2828 1.16728 30.0484 1.16728 30.8429C1.16728 31.8789 2.44271 32.8496 4.50752 33.5833C6.675 34.3535 9.67718 34.8275 12.9995 34.8275C16.3217 34.8275 19.3237 34.3504 21.4914 33.5833C23.5562 32.8496 24.8316 31.8789 24.8316 30.8429C24.8316 30.0408 24.0528 29.2706 22.7306 28.6189L22.7321 28.6204C20.9072 27.8077 18.9647 27.2927 16.9782 27.0952C15.6545 28.5627 14.3337 29.9071 13.1685 31.0798L13.17 31.0813C13.0387 31.2119 12.8289 31.2121 12.699 31.0814ZM8.39723 26.5042C7.30143 25.2525 6.27051 23.9476 5.30602 22.5924C2.99364 19.3142 1.25499 15.7503 1.25499 12.3219C1.25499 8.09894 3.49341 4.19607 7.1279 2.08479C10.7625 -0.0282648 15.2392 -0.0282648 18.8737 2.08479C22.5083 4.19634 24.7466 8.09894 24.7466 12.3219C24.7466 15.7702 22.9867 19.3187 20.6488 22.5877V22.5892C19.6708 23.9428 18.6248 25.2461 17.5169 26.4933C19.4187 26.7181 21.2768 27.2331 23.0231 28.0215C24.5808 28.7902 25.5 29.7624 25.5 30.8455C25.5 32.1975 24.0525 33.3854 21.713 34.2179C19.4791 35.0093 16.3969 35.5 13.0008 35.5C9.60469 35.5 6.52237 35.0093 4.28704 34.2164C1.9475 33.3854 0.5 32.196 0.5 30.844C0.5 29.7685 1.40715 28.8008 2.94669 28.0351V28.0367C4.67495 27.2498 6.51186 26.7333 8.39572 26.5054L8.39723 26.5042ZM13.0008 6.09073C11.022 6.08921 9.15643 7.01585 7.95209 8.59419C6.7476 10.174 6.34157 12.2263 6.85325 14.1494C7.36492 16.0726 8.73544 17.6479 10.5633 18.4105C12.3912 19.1715 14.4667 19.0364 16.1797 18.0413C17.8928 17.0463 19.049 15.3054 19.3071 13.3323C19.5667 11.3575 18.8981 9.37499 17.5004 7.96683C16.308 6.76369 14.6885 6.08769 13.0008 6.09073ZM5.84659 22.2054C3.60516 19.0275 1.92076 15.5928 1.92076 12.3238V12.3223C1.92076 8.33931 4.03236 4.65693 7.4602 2.66544C10.8895 0.673908 15.1129 0.673908 18.5422 2.66544C21.97 4.65697 24.0816 8.33931 24.0816 12.3223C24.0816 15.6096 22.376 19.0322 20.1106 22.1965C17.9084 25.2773 15.1627 28.1224 12.9351 30.3694C10.7345 28.1485 8.02512 25.2971 5.84698 22.2059L5.84659 22.2054Z" stroke="#CB3D35"/>
</svg>
