<svg width="30" height="22" viewBox="0 0 30 22" fill="none" xmlns="http://www.w3.org/2000/svg">
<path d="M0.844262 21.25H28.6557C28.9838 21.25 29.25 20.9614 29.25 20.6058V0.894172C29.25 0.538589 28.9838 0.25 28.6557 0.25H0.844262C0.516229 0.25 0.25 0.538589 0.25 0.894172V20.6058C0.25 20.9614 0.516229 21.25 0.844262 21.25ZM1.43852 19.9617V2.12325L14.4124 11.8606C14.5123 11.9353 14.6311 11.9739 14.75 11.9739C14.8689 11.9739 14.9877 11.9353 15.0876 11.8606L28.0615 2.12325V19.9617H1.43852ZM2.7459 1.53835H26.7541L14.75 10.5464L2.7459 1.53835Z" fill="#CB3D35" stroke="#CB3D35" stroke-width="0.5"/>
</svg>
