<svg width="32" height="32" viewBox="0 0 32 32" fill="none" xmlns="http://www.w3.org/2000/svg">
<path d="M15.75 6.7212C15.3202 6.7212 14.9718 7.06958 14.9718 7.49939V15.7488C14.9718 16.0519 15.1452 16.3159 15.3986 16.4441H15.3971L20.1585 19.1934C20.2807 19.2643 20.4149 19.2974 20.5461 19.2974C20.8146 19.2974 21.077 19.1572 21.2203 18.9084C21.4359 18.5358 21.3077 18.0593 20.9367 17.8451L16.5282 15.2994V7.49936C16.5282 7.06953 16.1798 6.7212 15.75 6.7212ZM15.75 1.80637C23.4508 1.80637 29.6932 8.04855 29.6932 15.7474V15.7504C29.6932 23.4493 23.4508 29.6915 15.75 29.6915C8.04923 29.6915 1.80676 23.4493 1.80676 15.7504V15.7474C1.80676 8.04855 8.04923 1.80637 15.75 1.80637ZM15.75 0.25C7.18938 0.25 0.25 7.18905 0.25 15.7477V15.7507C0.25 24.3094 7.18938 31.25 15.75 31.25C24.3106 31.25 31.25 24.3094 31.25 15.7507V15.7477C31.25 7.18905 24.3106 0.25 15.75 0.25Z" fill="#CB3D35" stroke="#CB3D35" stroke-width="0.5"/>
</svg>
