<svg width="72" height="65" viewBox="0 0 72 65" fill="none" xmlns="http://www.w3.org/2000/svg">
<path d="M71.0674 59.7463C70.8456 59.4344 70.4159 59.3582 70.104 59.58C66.3751 62.2068 62.258 62.9901 57.8566 61.9157C51.9236 60.4672 46.0528 55.8372 40.862 50.3062C47.3632 39.0782 46.7671 25.0635 39.2886 14.4592C31.7061 3.72263 18.5164 -1.4824 5.67994 1.19331C5.4928 1.23489 5.32645 1.35272 5.22942 1.51907C-1.52834 12.8101 -1.00845 27.0456 6.56018 37.7822C12.812 46.647 22.8965 51.748 33.4459 51.748C35.5113 51.748 37.5907 51.547 39.6699 51.145C45.0553 56.884 51.2032 61.729 57.5243 63.2673C58.9174 63.607 60.2828 63.7733 61.6136 63.7733C64.8989 63.7733 68.004 62.7476 70.8943 60.7167C71.2131 60.4949 71.2892 60.0652 71.0674 59.7463ZM33.6465 41.6214L35.7743 24.6197C35.8228 24.2385 35.5525 23.8919 35.1713 23.8434C34.7901 23.7949 34.4435 24.0652 34.395 24.4464L32.4543 39.9861C26.5976 31.856 22.7859 24.5857 22.7025 24.426C22.5293 24.0864 22.1065 23.9547 21.7668 24.128C21.4272 24.3012 21.2955 24.724 21.4688 25.0637C21.6352 25.3825 22.6748 27.3717 24.4076 30.2966L11.3147 26.2835C10.9473 26.1726 10.5592 26.3806 10.4483 26.741C10.3374 27.1083 10.5454 27.4964 10.9058 27.6073L25.4749 32.0709C28.5245 37.0474 33.106 43.8809 38.5536 49.9323C26.6947 51.8937 14.6904 46.9034 7.69686 36.9849C0.495515 26.7754 -0.0520483 13.2735 6.26213 2.48905C18.4607 0.0631642 30.9503 5.0535 38.1453 15.2625C45.2288 25.3053 45.8664 38.5437 39.8642 49.2385C37.6393 46.785 35.5525 44.179 33.6465 41.6214Z" fill="#CB3D35" stroke="#CB3D35"/>
<path d="M56.8868 26.6442C61.3642 26.6442 65.003 23.0054 65.003 18.528C65.003 14.2585 57.76 3.72998 57.4551 3.2793C57.3234 3.09216 57.1085 2.98126 56.8867 2.98126C56.6649 2.98126 56.4432 3.09216 56.3184 3.2793C56.0134 3.72288 48.7705 14.258 48.7705 18.528C48.7636 23.0055 52.4094 26.6442 56.8868 26.6442ZM56.8868 4.9085C59.1879 8.36013 63.6167 15.6033 63.6167 18.5284C63.6167 22.2434 60.5949 25.2583 56.8868 25.2583C53.1786 25.2583 50.1568 22.2365 50.1568 18.5284C50.1498 15.6034 54.5788 8.36048 56.8868 4.9085Z" fill="#CB3D35" stroke="#CB3D35"/>
</svg>
