<svg width="55" height="69" viewBox="0 0 55 69" fill="none" xmlns="http://www.w3.org/2000/svg">
<path d="M36.8392 63.191C32.4923 63.191 28.4647 60.895 26.2151 57.1325C23.9684 53.3729 23.8278 48.698 25.846 44.805C27.8671 40.9151 31.7512 38.3732 36.0892 38.1095V5.71638C36.0892 5.29866 36.4231 4.95796 36.839 4.95796C37.252 4.95796 37.5889 5.29866 37.5889 5.71638V38.1095C41.927 38.3732 45.8112 40.9151 47.829 44.805C49.8501 48.6979 49.7095 53.3729 47.46 57.1325C45.2133 60.8949 41.1831 63.191 36.8392 63.191ZM36.8392 39.588C33.9422 39.585 31.1625 40.7464 29.1118 42.8143C27.0614 44.8822 25.9073 47.6907 25.9044 50.6208C25.9015 53.5508 27.0497 56.3623 29.0972 58.4333C31.1447 60.5072 33.9215 61.6744 36.8185 61.6744C39.7155 61.6744 42.4923 60.5131 44.5429 58.4422C46.5904 56.3713 47.7415 53.5598 47.7415 50.6327C47.7386 47.7056 46.5903 44.9 44.5458 42.8323C42.5042 40.7614 39.73 39.5939 36.8392 39.588ZM36.8392 68.5C31.6722 68.5059 26.7625 66.2247 23.4031 62.2518C20.0463 58.2819 18.5759 53.0233 19.3814 47.8622C20.1869 42.7014 23.1892 38.1566 27.5916 35.4255V9.59202C27.7351 4.53187 31.833 0.5 36.8419 0.5C41.8508 0.5 45.949 4.5321 46.0923 9.59202V35.4255C50.4889 38.16 53.4826 42.7047 54.2853 47.8653C55.0879 53.0232 53.6174 58.2785 50.2606 62.2458C46.9067 66.2157 41.9997 68.5 36.8392 68.5ZM44.9587 36.5096C44.7419 36.3792 44.6013 36.1452 44.5926 35.8874V9.59125C44.4607 5.35771 41.0307 1.99485 36.842 1.99485C32.6533 1.99485 29.2233 5.35741 29.0914 9.59125V35.8874C29.0914 36.157 28.9478 36.4059 28.7164 36.5392C24.5893 38.9655 21.7333 43.1103 20.9133 47.8686C20.0902 52.6235 21.3908 57.5059 24.4635 61.2002C27.5362 64.8975 32.0649 67.0306 36.8393 67.0306C41.6138 67.0306 46.1421 64.8975 49.215 61.2002C52.2848 57.5058 53.5853 52.6231 52.7652 47.8686C51.945 43.1107 49.0862 38.9662 44.9591 36.5392L44.9587 36.5096ZM23.5673 10.1011C23.5673 9.68342 23.2305 9.34272 22.8175 9.34272H1.24986C0.836853 9.34272 0.5 9.68342 0.5 10.1011C0.5 10.5189 0.836853 10.8596 1.24986 10.8596H22.8175C23.2305 10.8596 23.5673 10.5189 23.5673 10.1011ZM23.5673 14.6517C23.5673 14.234 23.2305 13.8933 22.8175 13.8933H11.0888C10.6729 13.8933 10.339 14.234 10.339 14.6517C10.339 15.0694 10.6729 15.4101 11.0888 15.4101H22.8175C23.2305 15.4101 23.5673 15.0694 23.5673 14.6517ZM23.5673 19.2023C23.5673 18.7845 23.2305 18.4438 22.8175 18.4438H1.24986C0.836853 18.4438 0.5 18.7845 0.5 19.2023C0.5 19.62 0.836853 19.9607 1.24986 19.9607H22.8175C23.2305 19.9607 23.5673 19.62 23.5673 19.2023ZM23.5673 23.7528C23.5673 23.3351 23.2305 22.9944 22.8175 22.9944H11.0888C10.6729 22.9944 10.339 23.3351 10.339 23.7528C10.339 24.1706 10.6729 24.5113 11.0888 24.5113H22.8175C23.2305 24.5113 23.5673 24.1706 23.5673 23.7528ZM23.5673 28.3034C23.5673 27.8857 23.2305 27.545 22.8175 27.545H1.24986C0.836853 27.545 0.5 27.8857 0.5 28.3034C0.5 28.7211 0.836853 29.0618 1.24986 29.0618H22.8175C23.2158 29.0618 23.5468 28.7448 23.5673 28.3419V28.3034Z" fill="#CB3D35" stroke="#CB3D35"/>
</svg>
