<svg width="28" height="28" viewBox="0 0 28 28" fill="none" xmlns="http://www.w3.org/2000/svg">
<path d="M6.16992 0.5C6.95083 0.505567 7.66795 0.927803 8.0498 1.60938L8.05664 1.62207L8.06445 1.63477C8.21892 1.87671 8.38751 2.12957 8.55762 2.38477H8.55859C9.2347 3.39551 9.93126 4.44505 10.2354 5.46777C10.3845 5.96933 10.43 6.43784 10.3447 6.87305C10.2607 7.30187 10.0439 7.73268 9.61133 8.1543L9.60645 8.1582L6.97949 10.7852L7.13281 11.1045C9.17799 15.3801 12.6249 18.826 16.8994 20.8711L17.1133 20.4219L17.4668 20.7754L17.9678 20.2744L17.9668 20.2734L19.8428 18.3984L19.8525 18.3896L19.8604 18.3809C20.299 17.8957 20.924 17.6196 21.5791 17.6211H21.5801C22.1993 17.6211 22.8785 17.8464 23.5859 18.2021C24.2901 18.5563 24.9769 19.0149 25.6152 19.4424C25.8936 19.631 26.1359 19.7917 26.3682 19.9404L26.3789 19.9482L26.3896 19.9541C26.9953 20.2985 27.4025 20.9108 27.4873 21.6035C27.5919 22.5856 27.0237 23.9638 25.8584 25.2266L25.6162 25.4785C24.2772 26.8192 22.4457 27.5481 20.5508 27.4971H20.5352C17.3598 27.4962 13.4427 25.694 9.87891 22.8525C6.32617 20.0198 3.20609 16.2177 1.59961 12.3379C-0.166664 8.07042 0.231421 4.68108 2.52637 2.38574L2.53711 2.375L2.54688 2.36426C3.48092 1.31209 4.77302 0.648607 6.16992 0.5ZM6.06836 1.37305C4.92184 1.56148 3.87605 2.14506 3.11426 3.02246L3.09863 3.03906C0.49027 5.695 1.35358 9.48001 2.39941 12.0059C3.93391 15.7125 6.93059 19.3547 10.2822 22.0693C13.6151 24.7688 17.3901 26.6231 20.5205 26.6299V26.6309C22.1806 26.6819 23.7863 26.0532 24.9727 24.8936L24.9736 24.8945C25.8985 24.1122 26.4885 23.0055 26.625 21.8018L26.6318 21.7461L26.625 21.6895C26.6088 21.5457 26.5668 21.3654 26.4414 21.1738C26.3207 20.9896 26.1419 20.8246 25.9004 20.6709C25.6691 20.5232 25.4225 20.3585 25.1641 20.1855C24.6506 19.842 24.0283 19.4245 23.4189 19.0947C22.8294 18.7757 22.1637 18.4874 21.5781 18.4873C21.14 18.4873 20.7262 18.6856 20.4482 19.0195L18.084 21.3857C17.6853 21.7779 17.091 21.8916 16.5752 21.6768C12.0904 19.5248 8.4749 15.9076 6.3252 11.4209C6.10545 10.9097 6.22145 10.316 6.61621 9.92383L6.61719 9.92285L9.00293 7.53906L9.25586 7.28613L9.24023 7.25488C9.34747 7.09651 9.42891 6.91919 9.47168 6.7168C9.5408 6.38962 9.50156 6.04659 9.39258 5.6875C9.18061 4.98917 8.65839 4.09174 7.83984 2.86914V2.86816L7.33203 2.09863C7.15705 1.82285 6.96585 1.62397 6.74023 1.50293C6.5079 1.37832 6.29376 1.36623 6.14941 1.36621H6.1084L6.06836 1.37305Z" fill="#CB3D35" stroke="#CB3D35"/>
</svg>
