<svg width="66" height="66" viewBox="0 0 66 66" fill="none" xmlns="http://www.w3.org/2000/svg">
<path d="M61.7422 48.1736L45.3345 34.6262C47.8199 29.602 48.4395 23.8582 47.0825 18.4195C45.7256 12.9809 42.4805 8.20125 37.9263 4.93343C33.372 1.66561 27.8048 0.122175 22.2181 0.578515C16.6313 1.03486 11.3885 3.46128 7.42487 7.42487C3.46128 11.3885 1.03486 16.6313 0.578515 22.2181C0.122175 27.8048 1.66561 33.372 4.93343 37.9263C8.20125 42.4805 12.9809 45.7256 18.4195 47.0825C23.8582 48.4395 29.602 47.82 34.6262 45.3345L48.1736 61.7422C49.0272 62.784 50.0893 63.6355 51.2917 64.2422C52.4941 64.8488 53.8101 65.1971 55.1552 65.2647H55.6131C57.5982 65.2607 59.5339 64.6446 61.1561 63.5005C62.7784 62.3563 64.0084 60.7398 64.6785 58.8712C65.3486 57.0025 65.4263 54.9727 64.9008 53.0584C64.3753 51.1441 63.2724 49.4383 61.7422 48.1736ZM8.38375 39.9029C5.27542 36.7874 3.1602 32.8206 2.30532 28.5036C1.45044 24.1866 1.89426 19.713 3.58071 15.6481C5.26716 11.5832 8.12057 8.10936 11.7804 5.66542C15.4403 3.22147 19.7424 1.9171 24.1433 1.9171C28.5442 1.9171 32.8463 3.22147 36.5062 5.66542C40.166 8.10936 43.0195 11.5832 44.7059 15.6481C46.3923 19.713 46.8362 24.1866 45.9813 28.5036C45.1264 32.8206 43.0112 36.7874 39.9029 39.9029C37.834 41.9738 35.3773 43.6166 32.6732 44.7375C29.9691 45.8584 27.0705 46.4353 24.1433 46.4353C21.2161 46.4353 18.3175 45.8584 15.6134 44.7375C12.9093 43.6166 10.4526 41.9738 8.38375 39.9029ZM61.4393 61.4393C60.6279 62.2519 59.6556 62.8859 58.5847 63.3006C57.5138 63.7152 56.3681 63.9013 55.221 63.8469C54.074 63.7925 52.951 63.4988 51.9242 62.9847C50.8973 62.4706 49.9893 61.7474 49.2586 60.8616L35.8731 44.6582C39.5298 42.5715 42.5627 39.5459 44.6582 35.8943L60.8616 49.2797C61.7474 50.0105 62.4706 50.9185 62.9847 51.9453C63.4988 52.9721 63.7925 54.0951 63.8469 55.2422C63.9013 56.3892 63.7152 57.535 63.3005 58.6059C62.8859 59.6767 62.2519 60.6491 61.4393 61.4604V61.4393Z" fill="#CB3D35" stroke="#CB3D35"/>
<path d="M24.1216 5.98145C20.5337 5.98145 17.0263 7.04538 14.0431 9.03871C11.0599 11.032 8.73473 13.8652 7.3617 17.18C5.98866 20.4948 5.62942 24.1423 6.32938 27.6613C7.02935 31.1802 8.75709 34.4126 11.2941 36.9496C13.8311 39.4867 17.0635 41.2144 20.5825 41.9144C24.1014 42.6143 27.7489 42.2551 31.0637 40.8821C34.3785 39.509 37.2117 37.1839 39.205 34.2007C41.1984 31.2174 42.2623 27.7101 42.2623 24.1222C42.2567 19.3127 40.3437 14.7018 36.9428 11.3009C33.542 7.90009 28.9311 5.98704 24.1216 5.98145ZM24.1216 40.854C20.8123 40.854 17.5774 39.8727 14.8259 38.0341C12.0744 36.1956 9.92982 33.5825 8.66343 30.5252C7.39704 27.4678 7.0657 24.1036 7.7113 20.858C8.3569 17.6123 9.95044 14.631 12.2904 12.2911C14.6304 9.95108 17.6117 8.35753 20.8574 7.71193C24.103 7.06633 27.4672 7.39768 30.5245 8.66406C33.5819 9.93045 36.195 12.075 38.0335 14.8265C39.872 17.5781 40.8533 20.813 40.8533 24.1222C40.8477 28.558 39.0831 32.8106 35.9465 35.9472C32.8099 39.0838 28.5574 40.8484 24.1216 40.854Z" fill="#CB3D35"/>
<path d="M22.5229 29.6948L21.0505 30.3077C20.4366 29.424 19.9149 28.4798 19.4936 27.4897L21.4521 26.4189C21.5336 26.3747 21.6057 26.3147 21.664 26.2426C21.7224 26.1704 21.7659 26.0874 21.7921 25.9984C21.8182 25.9094 21.8266 25.816 21.8166 25.7238C21.8066 25.6315 21.7785 25.5421 21.7339 25.4608C21.6896 25.3792 21.6297 25.3072 21.5575 25.2488C21.4854 25.1905 21.4024 25.147 21.3134 25.1208C21.2243 25.0946 21.131 25.0863 21.0387 25.0962C20.9465 25.1062 20.8571 25.1344 20.7757 25.179L19.0075 26.1653C18.6778 25.1019 18.5069 23.9956 18.5002 22.8823L20.1276 22.5794C20.3144 22.5458 20.4803 22.4393 20.5886 22.2834C20.697 22.1275 20.7389 21.9349 20.7053 21.7481C20.6717 21.5612 20.5652 21.3954 20.4093 21.2871C20.2534 21.1787 20.0608 21.1368 19.874 21.1704L18.5354 21.4099C18.4651 20.5626 18.0624 19.7775 17.4153 19.226C17.0171 18.8855 16.5439 18.6442 16.0346 18.5218C15.5252 18.3993 14.994 18.3992 14.4846 18.5215L14.3507 18.5567C13.8223 18.6882 13.3354 18.9508 12.9353 19.3202C12.5351 19.6896 12.2344 20.1539 12.0611 20.6702C11.9032 21.1453 11.7761 21.63 11.6807 22.1215H9.88424C9.6974 22.1215 9.51821 22.1957 9.38609 22.3278C9.25397 22.4599 9.17975 22.6391 9.17975 22.826C9.17975 23.0128 9.25397 23.192 9.38609 23.3241C9.51821 23.4562 9.6974 23.5305 9.88424 23.5305H11.5046C11.3941 25.2307 11.6339 26.9356 12.2091 28.5394L10.6169 29.0537C10.4301 29.0827 10.2624 29.1847 10.1507 29.3373C10.0391 29.4899 9.99266 29.6806 10.0216 29.8674C10.0506 30.0542 10.1526 30.2219 10.3052 30.3336C10.4578 30.4452 10.6485 30.4917 10.8353 30.4627C10.9054 30.4733 10.9766 30.4733 11.0467 30.4627L12.7375 29.9132C13.347 31.2052 14.1035 32.4226 14.9918 33.5413L13.4913 34.0486C13.3044 34.0785 13.1371 34.1814 13.0261 34.3346C12.9151 34.4879 12.8696 34.6789 12.8995 34.8658C12.9294 35.0526 13.0323 35.22 13.1855 35.3309C13.3388 35.4419 13.5299 35.4875 13.7167 35.4576C13.7936 35.4559 13.8698 35.4416 13.9421 35.4153L15.964 34.7108C16.2881 35.0771 16.6333 35.4435 16.9996 35.8098C17.6154 36.4227 18.4486 36.7671 19.3174 36.7679C19.5858 36.7668 19.853 36.7337 20.1135 36.6693C20.643 36.5382 21.131 36.2759 21.5324 35.9065C21.9338 35.5372 22.2356 35.0726 22.4102 34.5558C22.5834 34.0475 22.6264 33.504 22.5353 32.9748C22.4443 32.4456 22.222 31.9476 21.8888 31.5265L23.0442 31.0404C23.1361 31.0096 23.2206 30.9603 23.2925 30.8954C23.3645 30.8305 23.4222 30.7515 23.4622 30.6633C23.5022 30.5751 23.5236 30.4795 23.525 30.3827C23.5265 30.2858 23.5079 30.1897 23.4705 30.1003C23.4331 30.011 23.3777 29.9303 23.3077 29.8633C23.2377 29.7964 23.1547 29.7445 23.0638 29.7111C22.9729 29.6777 22.876 29.6633 22.7793 29.669C22.6826 29.6747 22.5881 29.7003 22.5018 29.7441L22.5229 29.6948ZM21.1139 34.0556C21.017 34.3514 20.8465 34.6177 20.6186 34.8297C20.3906 35.0416 20.1126 35.1922 19.8106 35.2674C19.499 35.346 19.1723 35.3426 18.8624 35.2574C18.5525 35.1722 18.2699 35.0082 18.0423 34.7813C12.0541 28.8001 12.5754 23.6784 13.4208 21.1563C13.5194 20.8656 13.6899 20.6046 13.9166 20.3977C14.1433 20.1907 14.4187 20.0445 14.7171 19.9728L14.8509 19.9375C15.0034 19.9016 15.1593 19.8827 15.3159 19.8812C15.7587 19.8815 16.1864 20.0416 16.5206 20.3321C16.7431 20.5173 16.917 20.754 17.0275 21.0216C17.138 21.2891 17.1816 21.5796 17.1546 21.8679C17.0096 23.7862 17.2985 25.7125 18 27.5038C18.5662 28.9673 19.3294 30.3468 20.2685 31.604C20.4376 31.8365 20.6137 32.0619 20.7969 32.3085C20.9918 32.5499 21.1214 32.8374 21.1732 33.1434C21.225 33.4493 21.1973 33.7635 21.0928 34.0556H21.1139Z" fill="#CB3D35"/>
<path d="M29.3356 28.9058C28.6933 28.9058 28.0654 29.0962 27.5313 29.4531C26.9972 29.81 26.5809 30.3172 26.3351 30.9106C26.0893 31.5041 26.025 32.1571 26.1503 32.7871C26.2756 33.4171 26.5849 33.9958 27.0391 34.45C27.4933 34.9042 28.072 35.2135 28.702 35.3388C29.332 35.4641 29.985 35.3998 30.5785 35.154C31.1719 34.9082 31.6791 34.4919 32.036 33.9578C32.3929 33.4237 32.5833 32.7958 32.5833 32.1535C32.5815 31.2927 32.2387 30.4677 31.63 29.8591C31.0214 29.2504 30.1964 28.9076 29.3356 28.9058ZM29.3356 33.9922C28.9719 33.9922 28.6164 33.8844 28.3141 33.6823C28.0117 33.4803 27.776 33.1931 27.6368 32.8571C27.4977 32.5212 27.4613 32.1514 27.5322 31.7948C27.6032 31.4381 27.7783 31.1105 28.0354 30.8533C28.2926 30.5962 28.6202 30.421 28.9769 30.3501C29.3336 30.2791 29.7033 30.3155 30.0393 30.4547C30.3752 30.5939 30.6624 30.8296 30.8645 31.1319C31.0665 31.4343 31.1743 31.7898 31.1743 32.1535C31.1743 32.6411 30.9806 33.1088 30.6358 33.4537C30.291 33.7985 29.8233 33.9922 29.3356 33.9922Z" fill="#CB3D35"/>
<path d="M21.1138 9.68707C20.2332 9.68707 19.3724 9.9482 18.6402 10.4374C17.908 10.9267 17.3373 11.622 17.0003 12.4356C16.6633 13.2492 16.5751 14.1444 16.7469 15.0081C16.9187 15.8718 17.3428 16.6651 17.9655 17.2878C18.5881 17.9105 19.3815 18.3345 20.2452 18.5063C21.1089 18.6781 22.0041 18.59 22.8177 18.253C23.6312 17.916 24.3266 17.3453 24.8158 16.6131C25.3051 15.8809 25.5662 15.0201 25.5662 14.1395C25.5643 12.9592 25.0946 11.8278 24.2601 10.9932C23.4255 10.1586 22.2941 9.68894 21.1138 9.68707ZM21.1138 17.1829C20.5119 17.1829 19.9234 17.0044 19.423 16.67C18.9225 16.3356 18.5324 15.8603 18.302 15.3041C18.0717 14.748 18.0114 14.1361 18.1288 13.5457C18.2463 12.9554 18.5361 12.4131 18.9618 11.9875C19.3874 11.5618 19.9297 11.272 20.52 11.1545C21.1104 11.0371 21.7223 11.0974 22.2785 11.3277C22.8346 11.5581 23.3099 11.9482 23.6443 12.4486C23.9787 12.9491 24.1572 13.5376 24.1572 14.1395C24.1553 14.9461 23.8341 15.7191 23.2638 16.2894C22.6934 16.8598 21.9204 17.181 21.1138 17.1829Z" fill="#CB3D35"/>
<path d="M37.0074 20.6984L35.2814 20.0432C35.3217 18.616 35.146 17.1909 34.7601 15.8162L36.5284 15.4429C36.7152 15.4036 36.8788 15.2918 36.9832 15.1319C37.0876 14.972 37.1242 14.7773 37.0849 14.5904C37.0457 14.4036 36.9338 14.24 36.774 14.1356C36.6141 14.0312 36.4193 13.9946 36.2325 14.0339L34.3374 14.4354C34.1613 13.9352 33.964 13.421 33.7315 12.8926C33.5318 12.4441 33.2203 12.0544 32.8268 11.7608C32.4333 11.4672 31.971 11.2796 31.4842 11.2159C31.0423 11.1589 30.5933 11.2075 30.1738 11.3577C29.7544 11.5079 29.3765 11.7554 29.0713 12.0799C28.766 12.4044 28.5421 12.7967 28.4178 13.2245C28.2935 13.6523 28.2724 14.1035 28.3562 14.5411H27.5461C27.3592 14.5411 27.18 14.6153 27.0479 14.7474C26.9158 14.8796 26.8416 15.0588 26.8416 15.2456C26.8416 15.4324 26.9158 15.6116 27.0479 15.7437C27.18 15.8759 27.3592 15.9501 27.5461 15.9501H28.7367C28.8909 16.5846 28.9969 17.2299 29.0537 17.8804L27.7011 17.5775C27.6085 17.5576 27.513 17.5561 27.4199 17.5731C27.3268 17.5902 27.238 17.6254 27.1585 17.6767C27.0791 17.7281 27.0105 17.7946 26.9567 17.8724C26.9029 17.9503 26.865 18.038 26.8451 18.1305C26.8252 18.223 26.8237 18.3185 26.8408 18.4116C26.8578 18.5047 26.893 18.5935 26.9443 18.673C26.9957 18.7525 27.0622 18.8211 27.14 18.8749C27.2179 18.9287 27.3056 18.9666 27.3981 18.9865L29.103 19.3669C29.0771 20.0412 28.9851 20.7113 28.8282 21.3677L27.3699 20.7477C27.2841 20.7073 27.1911 20.6847 27.0963 20.6812C27.0016 20.6776 26.9071 20.6933 26.8185 20.7271C26.73 20.761 26.6492 20.8124 26.5809 20.8782C26.5127 20.944 26.4584 21.0229 26.4214 21.1102C26.3844 21.1975 26.3654 21.2914 26.3656 21.3862C26.3657 21.481 26.385 21.5748 26.4222 21.662C26.4595 21.7492 26.514 21.828 26.5824 21.8936C26.6508 21.9592 26.7318 22.0104 26.8204 22.044L28.3844 22.7062C28.3234 22.8565 28.26 22.9974 28.1942 23.1289C27.9938 23.5283 27.8936 23.9704 27.9022 24.4172C27.9108 24.8639 28.0279 25.3019 28.2435 25.6933C28.4534 26.089 28.7546 26.429 29.1222 26.6851C29.4897 26.9411 29.913 27.1059 30.357 27.1657H30.4768H30.8361C31.2394 27.1599 31.6368 27.0676 32.0015 26.895C32.3661 26.7224 32.6894 26.4736 32.9495 26.1653L33.0764 26.0032L33.7315 26.912C33.7971 27.0018 33.883 27.0747 33.9822 27.1249C34.0814 27.1751 34.191 27.2012 34.3022 27.2009C34.4394 27.2207 34.5795 27.1995 34.7048 27.1401C34.8301 27.0806 34.9351 26.9855 35.0065 26.8666C35.078 26.7478 35.1128 26.6105 35.1065 26.4719C35.1003 26.3334 35.0533 26.1997 34.9714 26.0878L33.9851 24.7563C34.5537 23.7436 34.9423 22.64 35.1335 21.4945L36.5425 22.0158C36.6228 22.0491 36.7091 22.0659 36.7961 22.0651C36.9623 22.0666 37.1237 22.0093 37.2517 21.9032C37.3798 21.7972 37.4662 21.6493 37.4957 21.4857C37.5252 21.3221 37.4959 21.1534 37.413 21.0093C37.3301 20.8652 37.1989 20.7551 37.0427 20.6984H37.0074ZM32.548 24.404C32.3664 24.6915 32.1664 24.9668 31.9492 25.2283C31.7965 25.4061 31.6018 25.5431 31.3829 25.6268C31.1639 25.7104 30.9275 25.7381 30.6952 25.7073H30.5824C30.3551 25.6814 30.1376 25.6005 29.9485 25.4716C29.7595 25.3427 29.6047 25.1697 29.4975 24.9676C29.3973 24.7701 29.345 24.5516 29.345 24.3301C29.345 24.1085 29.3973 23.8901 29.4975 23.6925C30.3993 21.8608 31.1953 18.761 29.8216 14.4143C29.749 14.1874 29.7352 13.9458 29.7814 13.7121C29.8276 13.4784 29.9323 13.2602 30.0857 13.0779C30.2391 12.8957 30.4362 12.7553 30.6586 12.6699C30.881 12.5845 31.1214 12.5569 31.3574 12.5896C31.6022 12.6186 31.8351 12.7112 32.0329 12.8583C32.2307 13.0054 32.3864 13.2019 32.4846 13.428C34.8517 18.909 33.7808 22.4526 32.548 24.404Z" fill="#CB3D35"/>
<line x1="36.4322" y1="11.7746" x2="11.7749" y2="36.4319" stroke="#CB3D35" stroke-width="2"/>
</svg>
