<svg width="21" height="22" viewBox="0 0 21 22" fill="none" xmlns="http://www.w3.org/2000/svg">
<path d="M10.5 4.55221C6.98506 4.55221 4.12528 7.44499 4.12528 11.0005C4.12528 14.556 6.98506 17.4488 10.5 17.4488C14.0149 17.4488 16.8747 14.556 16.8747 11.0005C16.8747 7.44499 14.0149 4.55221 10.5 4.55221ZM10.5 15.9313C7.8115 15.9313 5.62545 13.7191 5.62545 11.0005C5.62545 8.28097 7.81239 6.06969 10.5 6.06969C13.1876 6.06969 15.3746 8.28186 15.3746 11.0005C15.3746 13.7191 13.1876 15.9313 10.5 15.9313ZM16.8747 0H4.12528C1.85086 0 0.000930724 1.87139 0.000930724 4.17193L0 17.8281C0 20.1287 1.85005 22 4.12435 22H16.8738C19.1482 22 20.9981 20.1286 20.9981 17.8281L21 4.1729C21 1.87224 19.149 0 16.8747 0ZM19.5001 17.8281C19.5001 19.2919 18.3219 20.4837 16.8747 20.4837H4.12528C2.67818 20.4837 1.49991 19.292 1.49991 17.8281V4.1729C1.49991 2.7091 2.67713 1.51724 4.12528 1.51724H16.8747C18.3218 1.51724 19.5001 2.70804 19.5001 4.1729V17.8281ZM17.6714 3.36897C17.8808 3.58171 18.0018 3.87354 18.0018 4.17287C18.0018 4.47222 17.8817 4.76403 17.6714 4.97677C17.4611 5.18952 17.1726 5.31095 16.8767 5.31095C16.8013 5.31095 16.7269 5.30342 16.6552 5.28835C16.5836 5.27329 16.5128 5.2507 16.4449 5.2234C16.3779 5.19328 16.31 5.15939 16.2504 5.11703C16.1899 5.07561 16.1304 5.02948 16.082 4.97677C15.8716 4.76402 15.7516 4.47219 15.7516 4.17287C15.7516 4.09662 15.759 4.02508 15.7739 3.94883C15.7851 3.87634 15.8074 3.8048 15.8372 3.73608C15.8633 3.6683 15.8977 3.60335 15.9386 3.5384C15.9796 3.47815 16.028 3.41696 16.081 3.36802C16.497 2.94441 17.2508 2.94443 17.6714 3.36897Z" fill="white"/>
</svg>
