<svg width="24" height="24" viewBox="0 0 24 24" fill="none" xmlns="http://www.w3.org/2000/svg">
<path d="M11.75 5.05121C11.4311 5.05121 11.1726 5.30969 11.1726 5.62858V11.7491C11.1726 11.974 11.3013 12.1698 11.4893 12.2649H11.4882L15.0208 14.3048C15.1115 14.3574 15.211 14.382 15.3084 14.382C15.5076 14.382 15.7023 14.2779 15.8086 14.0933C15.9686 13.8169 15.8735 13.4633 15.5982 13.3044L12.3274 11.4157V5.62856C12.3274 5.30965 12.0689 5.05121 11.75 5.05121ZM11.75 1.40473C17.4635 1.40473 22.095 6.03602 22.095 11.7481V11.7503C22.095 17.4624 17.4635 22.0937 11.75 22.0937C6.03652 22.0937 1.40501 17.4624 1.40501 11.7503V11.7481C1.40501 6.03602 6.03652 1.40473 11.75 1.40473ZM11.75 0.25C5.39857 0.25 0.25 5.39833 0.25 11.7483V11.7505C0.25 18.1005 5.39857 23.25 11.75 23.25C18.1014 23.25 23.25 18.1005 23.25 11.7505V11.7483C23.25 5.39833 18.1014 0.25 11.75 0.25Z" fill="#CB3D35" stroke="#CB3D35" stroke-width="0.5"/>
</svg>
