<svg width="24" height="18" viewBox="0 0 24 18" fill="none" xmlns="http://www.w3.org/2000/svg">
<path d="M0.721311 17.25H22.7787C23.0389 17.25 23.25 17.0164 23.25 16.7285V0.771473C23.25 0.48362 23.0389 0.25 22.7787 0.25H0.721311C0.461147 0.25 0.25 0.48362 0.25 0.771473V16.7285C0.25 17.0164 0.461147 17.25 0.721311 17.25ZM1.19262 16.2071V1.76644L11.4823 9.64902C11.5615 9.70951 11.6557 9.7408 11.75 9.7408C11.8443 9.7408 11.9385 9.70951 12.0177 9.64902L22.3074 1.76644V16.2071H1.19262ZM2.22951 1.29295H21.2705L11.75 8.58521L2.22951 1.29295Z" fill="#CB3D35" stroke="#CB3D35" stroke-width="0.5"/>
</svg>
