<svg width="26" height="24" viewBox="0 0 26 24" fill="none" xmlns="http://www.w3.org/2000/svg">
<path d="M8.77273 0.500993C8.70206 0.50585 8.63367 0.528053 8.57362 0.565639C8.51357 0.603225 8.46371 0.655034 8.42845 0.716481L4.03199 8.35452H0.932664C0.875786 8.35431 0.819426 8.36535 0.766836 8.38701C0.714245 8.40868 0.666462 8.44054 0.626243 8.48076C0.586023 8.52098 0.554162 8.56876 0.532495 8.62135C0.510829 8.67395 0.499786 8.73031 0.500003 8.78718V11.8318C0.50046 11.9461 0.546298 12.0555 0.627435 12.136C0.708573 12.2165 0.818365 12.2615 0.932664 12.2611H1.38553L4.31482 22.2544C4.34071 22.344 4.395 22.4228 4.46953 22.479C4.54405 22.5352 4.6348 22.5656 4.72812 22.5658H21.2719C21.3652 22.5656 21.4559 22.5352 21.5305 22.479C21.605 22.4228 21.6593 22.344 21.6852 22.2544L24.6145 12.2611H25.0673C25.1816 12.2615 25.2914 12.2165 25.3726 12.136C25.4537 12.0555 25.4995 11.9461 25.5 11.8318V8.78718C25.5002 8.73031 25.4892 8.67395 25.4675 8.62135C25.4458 8.56876 25.414 8.52098 25.3738 8.48076C25.3335 8.44054 25.2858 8.40868 25.2332 8.38701C25.1806 8.36535 25.1242 8.35431 25.0673 8.35452H21.968L17.5715 0.716481C17.5434 0.6674 17.5058 0.624351 17.461 0.589793C17.4161 0.555235 17.3649 0.529845 17.3103 0.515071C17.2557 0.500298 17.1987 0.496431 17.1425 0.503692C17.0864 0.510953 17.0322 0.529199 16.9832 0.557389C16.9341 0.585575 16.891 0.623153 16.8565 0.667976C16.8219 0.7128 16.7965 0.763992 16.7818 0.818629C16.767 0.873265 16.7631 0.930276 16.7704 0.986407C16.7776 1.04254 16.7959 1.09669 16.8241 1.14577L20.9739 8.35452H5.0261L9.17593 1.14577C9.20412 1.09669 9.22236 1.04254 9.22962 0.986409C9.23688 0.930277 9.23302 0.873266 9.21824 0.818629C9.20347 0.763993 9.17808 0.7128 9.14352 0.667976C9.10897 0.623152 9.06592 0.585575 9.01684 0.557389C8.94285 0.514834 8.85789 0.495204 8.77273 0.500993ZM1.36196 9.21648H24.6372V11.3991H1.36196V9.21648ZM2.28452 12.2611H23.7146L20.9503 21.7038H5.04966L2.28452 12.2611ZM7.87795 14.5111C7.76423 14.5115 7.65529 14.5569 7.57488 14.6373C7.49447 14.7177 7.4491 14.8267 7.44866 14.9404V19.022C7.44843 19.0786 7.45936 19.1347 7.48082 19.1871C7.50227 19.2395 7.53383 19.2871 7.57369 19.3273C7.61356 19.3674 7.66094 19.3994 7.71315 19.4212C7.76535 19.4431 7.82135 19.4545 7.87795 19.4547C7.93454 19.4545 7.99054 19.4431 8.04275 19.4212C8.09495 19.3994 8.14234 19.3674 8.1822 19.3273C8.22207 19.2871 8.25363 19.2395 8.27508 19.1871C8.29653 19.1347 8.30746 19.0786 8.30724 19.022V14.9404C8.3068 14.8267 8.26143 14.7177 8.18101 14.6373C8.1006 14.5569 7.99167 14.5115 7.87795 14.5111ZM12.6785 14.5111C12.6219 14.5109 12.5658 14.5218 12.5134 14.5432C12.461 14.5647 12.4134 14.5963 12.3732 14.6361C12.333 14.676 12.3011 14.7234 12.2792 14.7756C12.2574 14.8278 12.246 14.8838 12.2458 14.9404V19.022C12.2456 19.0789 12.2566 19.1353 12.2783 19.1879C12.2999 19.2405 12.3318 19.2882 12.372 19.3285C12.4122 19.3687 12.46 19.4005 12.5126 19.4222C12.5652 19.4439 12.6216 19.4549 12.6785 19.4547C12.735 19.4545 12.791 19.4431 12.8433 19.4212C12.8955 19.3994 12.9428 19.3674 12.9827 19.3273C13.0226 19.2871 13.0541 19.2395 13.0756 19.1871C13.097 19.1347 13.108 19.0786 13.1077 19.022V14.9404C13.1073 14.8267 13.0619 14.7177 12.9815 14.6373C12.9011 14.5569 12.7922 14.5115 12.6785 14.5111ZM17.479 14.5111C17.4224 14.5109 17.3663 14.5218 17.3139 14.5432C17.2615 14.5647 17.2139 14.5963 17.1737 14.6361C17.1335 14.676 17.1016 14.7234 17.0797 14.7756C17.0579 14.8278 17.0465 14.8838 17.0463 14.9404V19.022C17.0461 19.0789 17.0571 19.1353 17.0788 19.1879C17.1004 19.2405 17.1323 19.2882 17.1725 19.3285C17.2127 19.3687 17.2605 19.4005 17.3131 19.4222C17.3657 19.4439 17.4221 19.4549 17.479 19.4547C17.5356 19.4546 17.5917 19.4433 17.644 19.4215C17.6963 19.3997 17.7438 19.3678 17.7838 19.3276C17.8237 19.2874 17.8553 19.2397 17.8768 19.1873C17.8984 19.1349 17.9093 19.0787 17.9091 19.022V14.9404C17.9086 14.8265 17.8632 14.7175 17.7826 14.637C17.702 14.5566 17.5928 14.5113 17.479 14.5111Z" fill="black" stroke="black"/>
</svg>
