<svg width="23" height="23" viewBox="0 0 23 23" fill="none" xmlns="http://www.w3.org/2000/svg">
<path d="M5.07227 0.5C5.67988 0.50602 6.23701 0.835776 6.53418 1.36621L6.54102 1.37793L6.54883 1.39062C6.67627 1.59025 6.81557 1.79851 6.95508 2.00781L6.95996 2.00586L6.95605 2.00879C7.51333 2.84189 8.07708 3.69206 8.32227 4.5166C8.44199 4.91925 8.47671 5.28937 8.41016 5.62891C8.34487 5.96194 8.17544 6.29909 7.83203 6.63379L7.82812 6.63867L5.62598 8.84082L5.77832 9.16016C7.46706 12.6906 10.3133 15.5359 13.8428 17.2246L14.0576 16.7754L14.4111 17.1289L16.3633 15.1768L16.3721 15.167L16.3799 15.1582C16.7232 14.7785 17.2127 14.5623 17.7256 14.5635H17.7266C18.215 14.5635 18.758 14.7426 19.334 15.0322C19.9058 15.3198 20.4648 15.6918 20.9893 16.043V16.0439C21.2189 16.1995 21.4192 16.3321 21.6113 16.4551L21.6221 16.4619L21.6338 16.4688C22.0473 16.704 22.3424 17.0993 22.4541 17.5566L22.4902 17.7568C22.5769 18.5787 22.0607 19.7837 20.9795 20.8652L20.9785 20.8662C19.9637 21.8821 18.5988 22.4633 17.1699 22.498H16.8682C14.2889 22.4973 11.0903 21.0306 8.16992 18.7021C5.26072 16.3825 2.70907 13.2706 1.39648 10.1006C-0.0463489 6.6146 0.288277 3.87418 2.13867 2.02344L2.14844 2.0127L2.1582 2.00098C2.90945 1.15466 3.94884 0.620846 5.07227 0.5ZM4.96973 1.03906C4.0089 1.19699 3.1333 1.68633 2.49414 2.4209C0.293814 4.64618 1.02698 7.81546 1.88867 9.89648C3.15619 12.9581 5.62799 15.9614 8.38965 18.1982C11.1323 20.4197 14.2517 21.9569 16.8525 21.9639V21.9648C18.2479 22.0079 19.5984 21.4766 20.5918 20.4971C21.3565 19.8409 21.8463 18.9209 21.96 17.9189L21.9658 17.8623L21.96 17.8066C21.9456 17.6788 21.9076 17.5159 21.7949 17.3438C21.6869 17.1789 21.5291 17.0353 21.3232 16.9043C21.1341 16.7835 20.9321 16.6489 20.7197 16.5068C20.2986 16.225 19.7842 15.8797 19.2793 15.6064C18.7942 15.3439 18.23 15.0967 17.7246 15.0967C17.3363 15.0967 16.9697 15.2727 16.7246 15.5693L14.792 17.5029C14.4902 17.7997 14.0409 17.8852 13.6504 17.7227C9.98703 15.9638 7.03382 13.0091 5.27734 9.34375C5.11266 8.95813 5.20032 8.51164 5.49805 8.21582L5.49902 8.21484L7.45898 6.25586L7.71191 6.00293L7.69238 5.96289C7.77145 5.8359 7.83347 5.69546 7.86719 5.53613C7.92807 5.24795 7.89305 4.94948 7.80078 4.64551C7.62225 4.05759 7.18618 3.31064 6.51465 2.30762L6.51367 2.30664L6.09863 1.67578H6.09766C5.94887 1.44139 5.78221 1.26423 5.5791 1.15527C5.369 1.04259 5.17512 1.0332 5.05078 1.0332H5.00977L4.96973 1.03906Z" fill="#CB3D35" stroke="#CB3D35"/>
</svg>
