<svg width="57" height="62" viewBox="0 0 57 62" fill="none" xmlns="http://www.w3.org/2000/svg">
<path d="M4.55906 29.9075V27.7618C4.55634 27.1137 5.13623 26.6426 5.76786 26.7107V20.758C5.77331 8.7441 20.6841 3.05503 28.6963 12.0114H42.5455L48.9624 2.3391C52.077 -2.06682 58.6571 2.24379 55.7959 6.87572L47.5523 19.3037V46.3709C48.5406 46.4336 49.3274 47.2478 49.3274 48.2526V55.575C49.3274 56.6179 48.4779 57.4675 47.4353 57.4675H45.2191C44.0757 62.8237 36.3546 62.8401 35.2088 57.4675H30.5097C29.3363 62.8346 21.6807 62.8537 20.4994 57.4675H18.678C17.6353 57.4675 16.7859 56.6178 16.7859 55.575V48.2526C16.805 46.9019 17.9756 46.213 19.2253 46.3601V15.6414C19.1272 15.0641 19.7643 14.4133 18.9666 14.5249C15.422 14.5249 12.5361 17.4114 12.5361 20.9568V26.7733C12.969 26.9041 13.2929 27.2907 13.2929 27.7646V29.9103C15.8738 30.4386 17.5999 33.0609 17.3521 35.8057C17.3521 36.3858 16.8811 36.8568 16.3013 36.8568H1.55087C0.970978 36.8568 0.5 36.3858 0.5 35.8057V35.125C0.5 32.5626 2.24511 30.4168 4.55921 29.9103L4.55906 29.9075ZM53.4847 2.94349C52.5781 2.33897 51.3285 2.5786 50.7159 3.50172L38.9575 21.2291C38.3477 22.1468 38.6009 23.3885 39.5157 23.9958C40.4331 24.6058 41.6746 24.3552 42.2845 23.4376L54.0456 5.71016C54.6554 4.79249 54.4022 3.55074 53.4875 2.94077L53.4847 2.94349ZM44.0375 24.5998C40.8821 29.0275 34.3532 24.6597 37.204 20.0659L41.1516 14.1159H30.2401C31.4108 16.1228 32.0479 18.4184 32.0479 20.7575V31.2684H45.4503V22.473L44.0401 24.5998H44.0375ZM21.4547 15.0334C21.373 15.2213 21.3294 15.4282 21.3294 15.6379V31.2684H25.4132V20.9533C25.4132 18.3501 23.8123 16.0192 21.4574 15.0334L21.4547 15.0334ZM21.3294 33.3735V35.266H45.4476V33.3735H21.3294ZM40.2156 59.4251C44.1958 59.2998 44.1931 53.5242 40.2156 53.3989C36.2435 53.5024 36.2435 59.3216 40.2156 59.4251ZM25.5063 59.4251C29.4865 59.2998 29.4838 53.5242 25.5063 53.3989C21.5342 53.5024 21.5342 59.3216 25.5063 59.4251ZM18.8907 55.3596H20.4996C21.6458 49.9924 29.367 49.9978 30.51 55.3596H35.209C35.6964 53.0422 37.7545 51.294 40.2157 51.294C42.6769 51.294 44.735 53.0395 45.2224 55.3596H47.2261V48.4593H18.8907V55.3596ZM45.4482 46.3543V37.368H21.33V46.3543H45.4482ZM18.9827 12.4165C23.5755 12.3593 27.5719 16.3322 27.5148 20.9532V31.2683H29.9433V20.7573C30.063 14.8238 24.825 9.59248 18.9063 9.71796C12.9876 9.59815 7.73893 14.8155 7.86927 20.7573V26.71H10.4311V20.9534C10.4311 16.2452 14.259 12.4167 18.98 12.4167L18.9827 12.4165ZM15.2284 34.751C15.0568 33.1471 13.7827 31.8972 12.2418 31.8972C11.6619 31.8972 11.1909 31.4261 11.1909 30.8461V28.8147H6.66339V30.8461C6.66339 31.4261 6.1924 31.8972 5.61252 31.8972C4.07162 31.8972 2.79744 33.1471 2.62592 34.751H15.2339H15.2284Z" fill="white" stroke="#284E04"/>
</svg>
