<svg width="61" height="61" viewBox="0 0 61 61" fill="none" xmlns="http://www.w3.org/2000/svg">
<path d="M53.8341 24.8013C54.7485 27.5517 55.2072 30.451 55.2072 33.3533C55.2072 40.76 52.3091 47.6325 47.1233 52.9039C41.9378 58.0973 35.0013 61 27.6021 61C20.2066 61 13.3443 58.0976 8.08085 52.9039C2.89829 47.6331 0 40.6827 0 33.3533C0 26.0212 2.89807 18.9962 8.0839 13.8027C13.2694 8.60934 20.2059 5.7066 27.6051 5.7066C31.7988 5.7066 35.8408 6.62236 39.5754 8.45692C39.9567 8.60905 40.1086 9.06842 39.8792 9.45025C39.7273 9.83207 39.2687 9.98421 38.8874 9.75452C35.3043 8.07513 31.4919 7.15937 27.5278 7.15937C13.1183 7.15937 1.4515 18.9179 1.4515 33.275C1.44853 47.7092 13.1923 59.4685 27.6026 59.4685C42.0121 59.4685 53.6789 47.71 53.6789 33.3529C53.6789 30.6026 53.2202 27.8553 52.3833 25.2568C52.2314 24.875 52.4607 24.4932 52.842 24.341C53.2232 24.1889 53.679 24.341 53.8338 24.8004L53.8341 24.8013ZM41.1753 35.5671L39.5728 38.3919L41.1753 41.1422H47.5046C47.7339 41.1422 47.9632 41.2944 48.1151 41.5241C48.267 41.7537 48.267 41.9834 48.1151 42.2101C46.6676 44.8829 43.9215 46.4877 40.949 46.4877C38.1284 46.4877 35.6115 45.1126 34.0866 42.7471H21.0465C19.5215 45.1156 17.0047 46.4877 14.1841 46.4877C11.2116 46.4877 8.38797 44.8083 7.01793 42.2101C6.86603 41.9805 6.86603 41.6762 7.01793 41.5241C7.16983 41.2944 7.39917 41.1422 7.62851 41.1422H13.9578L15.5602 38.3174L13.9578 35.4926H7.62554C7.3962 35.4926 7.16686 35.3404 7.01495 35.1107C6.86305 34.8811 6.86305 34.6514 7.01495 34.4247C8.46246 31.7519 11.2086 30.1471 14.1811 30.1471C16.9273 30.1471 19.5185 31.5968 21.0435 33.8877H34.0836C35.6086 31.5968 38.1998 30.1471 40.946 30.1471C43.9185 30.1471 46.7421 31.8265 48.1122 34.4247C48.2641 34.6543 48.2641 34.9586 48.1122 35.1107C47.9603 35.3404 47.7309 35.4926 47.5016 35.4926H41.1753V35.5671ZM40.794 34.0398H46.2089C44.9133 32.5125 43.0815 31.5968 41.0234 31.5968C38.6585 31.5968 36.371 32.8944 35.2273 34.9556C35.0754 35.1853 34.846 35.3374 34.6167 35.3374H20.6654C20.4361 35.3374 20.1323 35.1853 20.0548 34.9556C18.8336 32.8944 16.6237 31.5968 14.2587 31.5968C12.2006 31.5968 10.2944 32.5125 9.07318 34.0398H14.4881C14.7174 34.0398 15.0212 34.1919 15.0987 34.4216L17.1568 37.9356C17.3087 38.1653 17.3087 38.4695 17.1568 38.6992L15.0987 42.2132C14.9468 42.4429 14.7174 42.595 14.4881 42.595H9.07318C10.3688 44.1223 12.275 45.038 14.2587 45.038C16.6981 45.038 18.8336 43.7404 20.0548 41.6792C20.2068 41.4495 20.4361 41.2974 20.6654 41.2974H34.542C34.7713 41.2974 35.0751 41.4495 35.1525 41.6792C36.3738 43.818 38.5063 45.038 40.9487 45.038C42.9324 45.038 44.8386 44.1223 46.1342 42.595H40.7193C40.49 42.595 40.1862 42.4429 40.1087 42.2132L38.125 38.6992C37.9731 38.4695 37.9731 38.1653 38.125 37.9356L40.1832 34.4216C40.2606 34.1919 40.4902 34.0398 40.794 34.0398ZM23.8676 43.7372C23.4863 43.7372 23.1051 44.0415 23.1051 44.5009V51.1439C23.1051 53.5869 25.0888 55.5736 27.5281 55.5736C29.9675 55.5736 31.9512 53.5869 31.9512 51.1439V44.5009C31.9512 44.1191 31.6474 43.7372 31.1887 43.7372C30.73 43.7372 30.4262 44.0415 30.4262 44.5009V51.1439C30.4262 52.7488 29.1306 54.1209 27.4537 54.1209C25.8513 54.1209 24.4812 52.8233 24.4812 51.1439V44.5009C24.6301 44.0445 24.2488 43.7372 23.8676 43.7372ZM39.7281 14.3372C40.7944 14.3372 41.6343 15.1784 41.6343 16.2463V22.8893C41.6343 23.9572 40.7944 24.7984 39.7281 24.7984H36.9819C36.2194 24.7984 35.6863 24.2645 35.4569 23.5754C35.1531 23.7275 34.7719 23.9572 34.4651 24.339C33.7026 25.1803 32.7882 25.5621 31.6445 25.5621H31.1113V32.053C31.1113 32.4348 30.8075 32.8166 30.3489 32.8166C29.9676 32.8166 29.5864 32.5124 29.5864 32.053V25.5621H25.3152V32.053C25.3152 32.4348 25.0114 32.8166 24.5527 32.8166C24.1715 32.8166 23.7902 32.5124 23.7902 32.053V25.5621H23.1796C21.884 25.5621 20.8147 24.4942 20.8147 23.1936V21.9705H19.1378C17.461 21.9705 15.936 24.1839 14.8667 25.7887C14.7893 25.9409 14.7148 26.0184 14.6374 26.1705C14.7178 26.4808 14.4884 26.6329 14.1846 26.6329H13.9553C13.6515 26.5553 13.4221 26.2511 13.4221 25.9468C13.4221 23.122 13.574 20.142 14.5659 17.8507C15.7871 15.0259 18.2264 13.5732 21.5802 13.5732H31.5703C32.6365 13.5732 33.6284 14.0325 34.3909 14.7962C34.7721 15.178 35.0759 15.4077 35.3827 15.5598C35.5346 14.8737 36.1452 14.3368 36.9077 14.3368L39.7281 14.3372ZM35.4569 22.1286V17.0874C34.6944 16.8577 34.0094 16.4759 33.3988 15.7898C32.9401 15.2559 32.3326 15.0262 31.6445 15.0262H21.7321C18.8341 15.0262 17.0053 16.094 16.0135 18.385C15.3284 19.8346 15.0991 21.6692 15.0216 23.5007C16.1654 22.051 17.5385 20.6759 19.3672 20.6759H21.7321C22.1134 20.6759 22.4946 20.9801 22.4946 21.4395V23.3486C22.4946 23.8825 22.8759 24.2643 23.409 24.2643H31.7186C32.4037 24.2643 33.0142 24.0347 33.4729 23.5007C34.0091 22.7371 34.6944 22.3553 35.4569 22.1286ZM39.7281 15.7898H36.9819C36.9045 15.7898 36.9045 15.7898 36.9045 15.8674V23.274C36.9045 23.3516 36.9045 23.3516 36.9819 23.3516H39.7281C39.9574 23.3516 40.1868 23.1219 40.1868 22.8922V16.2492C40.1838 16.0195 39.9545 15.7898 39.7281 15.7898ZM61 4.4101V12.888C61 16.8583 57.1876 19.2268 54.6707 20.7542C54.212 21.0585 53.7564 21.2882 53.2976 21.5954C52.9164 21.8251 52.5351 22.0548 52.0764 22.2815C51.9245 22.3591 51.8471 22.3591 51.6952 22.3591C51.5433 22.3591 51.4659 22.3591 51.3139 22.2815C51.0846 22.1294 50.7808 21.9773 50.5515 21.8221C47.8053 20.2173 44.6809 18.3082 43.3078 16.0173C42.6972 15.0239 42.4679 14.0306 42.4679 12.8852L42.4708 4.41031C42.4708 4.10605 42.6227 3.87636 42.9295 3.72423L51.3947 0.0581662C51.5466 -0.0193887 51.7759 -0.0193887 52.0053 0.0581662L60.5413 3.72423C60.8481 3.87636 61 4.10584 61 4.4101ZM59.5525 4.86947L51.7759 1.51069L43.9992 4.86947L43.9963 12.8877C43.9963 13.8034 44.2256 14.567 44.6813 15.2562C45.9025 17.2428 48.9525 19.0743 51.3918 20.524C51.5437 20.6016 51.6212 20.6762 51.7731 20.7537C52.0769 20.6016 52.3062 20.4494 52.613 20.2943C53.0717 19.9901 53.5274 19.7604 53.9861 19.4531C56.351 18.0034 59.5529 16.0168 59.5529 12.8846L59.5525 4.86947ZM48.1899 10.0628C47.9605 9.68099 47.5793 9.60344 47.198 9.75855C46.8168 9.98824 46.7394 10.3701 46.8942 10.7519L49.1042 14.5701C49.1817 14.7998 49.408 14.8743 49.6374 14.9519H49.7148C49.9442 14.9519 50.0961 14.8743 50.248 14.7222L56.4253 8.53553C56.7291 8.23126 56.7291 7.77189 56.4253 7.46765C56.1215 7.16339 55.6628 7.16339 55.3591 7.46765L49.7923 13.0428L48.1899 10.0628Z" fill="white"/>
</svg>
