<svg width="46" height="47" viewBox="0 0 46 47" fill="none" xmlns="http://www.w3.org/2000/svg">
<path d="M43.9318 30.3799C42.973 31.8102 41.643 32.9527 40.0845 33.6848C38.5259 34.417 36.7975 34.7112 35.0845 34.536C35.3977 36.7484 34.8345 38.9956 33.5151 40.7988C32.299 42.4515 30.717 43.8004 28.8928 44.74C27.0686 45.6796 25.0517 46.1843 23 46.2148C20.9483 46.1844 18.9315 45.6796 17.1073 44.7401C15.2831 43.8005 13.701 42.4516 12.4849 40.7989C11.1655 38.9957 10.6024 36.7485 10.9155 34.5361C9.20244 34.712 7.47378 34.4181 5.9151 33.6859C4.35642 32.9537 3.02656 31.8108 2.06825 30.38C1.24579 29.3789 0.646618 28.2137 0.310844 26.9623C-0.0249298 25.7109 -0.0895652 24.4023 0.121262 23.1239C0.372355 21.9993 0.849099 20.9374 1.52262 20.0025C2.19615 19.0675 3.05243 18.279 4.03962 17.6847C4.26756 17.5556 4.53709 17.5212 4.79016 17.5889C5.04323 17.6565 5.25959 17.8209 5.39264 18.0466C5.52568 18.2723 5.56477 18.5412 5.50149 18.7954C5.4382 19.0496 5.2776 19.2687 5.05428 19.4057C4.30546 19.8553 3.65568 20.4522 3.14427 21.1602C2.63286 21.8683 2.27047 22.6728 2.07904 23.525C1.92265 24.5295 1.98447 25.5559 2.26031 26.5344C2.53615 27.5129 3.01953 28.4205 3.67756 29.1954C7.16991 33.9391 11.7477 32.3848 11.9404 32.3166C12.1195 32.2527 12.3131 32.2413 12.4985 32.2835C12.684 32.3258 12.8535 32.42 12.9873 32.5551C13.121 32.6903 13.2135 32.8608 13.2539 33.0466C13.2942 33.2324 13.2808 33.4259 13.2151 33.6044C12.8507 34.6096 12.7431 35.6899 12.9023 36.7472C13.0614 37.8046 13.4822 38.8054 14.1264 39.6588C15.1369 41.069 16.469 42.2181 18.0123 43.0108C19.5555 43.8036 21.2655 44.217 23.0004 44.217C24.7353 44.217 26.4453 43.8036 27.9886 43.0108C29.5318 42.2181 30.8639 41.069 31.8745 39.6588C32.5186 38.8054 32.9394 37.8046 33.0985 36.7472C33.2577 35.6899 33.1501 34.6096 32.7857 33.6044C32.7192 33.4255 32.7052 33.2313 32.7456 33.0448C32.786 32.8583 32.8789 32.6872 33.0134 32.5518C33.1479 32.4165 33.3184 32.3224 33.5047 32.2809C33.691 32.2394 33.8852 32.2521 34.0645 32.3175C34.2543 32.3848 38.8316 33.9391 42.323 29.1954C42.981 28.4205 43.4644 27.5129 43.7402 26.5344C44.016 25.5559 44.0779 24.5295 43.9215 23.525C43.73 22.6728 43.3676 21.8683 42.8562 21.1602C42.3448 20.4522 41.695 19.8553 40.9462 19.4057C40.7246 19.268 40.5657 19.049 40.5034 18.7957C40.4411 18.5424 40.4804 18.2747 40.6129 18.0499C40.7453 17.8252 40.9604 17.6611 41.2122 17.5929C41.464 17.5246 41.7326 17.5576 41.9604 17.6847C42.9476 18.279 43.8039 19.0675 44.4774 20.0025C45.1509 20.9374 45.6277 21.9993 45.8788 23.1239C46.0896 24.4023 46.0249 25.7109 45.6891 26.9623C45.3534 28.2136 44.7542 29.3788 43.9318 30.3799ZM23 31.0727C23.265 31.0727 23.5191 30.9674 23.7065 30.78C23.8938 30.5927 23.9991 30.3386 23.9991 30.0736V5.5104C23.9991 5.24543 23.8938 4.99131 23.7065 4.80395C23.5191 4.61658 23.265 4.51133 23 4.51133C22.735 4.51133 22.4809 4.61658 22.2936 4.80395C22.1062 4.99131 22.0009 5.24543 22.0009 5.5104V30.0736C22.0009 30.3386 22.1062 30.5927 22.2936 30.78C22.4809 30.9674 22.735 31.0727 23 31.0727ZM12.5844 22.6635C12.6307 22.6701 12.6775 22.6735 12.7243 22.6735C12.965 22.6731 13.1974 22.5858 13.3789 22.4277C13.5604 22.2696 13.6788 22.0513 13.7121 21.813L16.6137 1.11218C16.6432 0.853341 16.5705 0.593215 16.4109 0.38726C16.2514 0.181305 16.0177 0.0458125 15.7597 0.00966673C15.5017 -0.0264791 15.2398 0.0395809 15.0298 0.193765C14.8198 0.347948 14.6784 0.578059 14.6356 0.835041L11.7336 21.5361C11.697 21.7984 11.7661 22.0645 11.9256 22.2759C12.0852 22.4873 12.3221 22.6267 12.5844 22.6635ZM33.2757 22.6735C33.3225 22.6735 33.3692 22.6701 33.4155 22.6635C33.6779 22.6267 33.9149 22.4872 34.0745 22.2757C34.234 22.0642 34.3031 21.798 34.2663 21.5356L31.3648 0.835341C31.3221 0.578359 31.1806 0.348249 30.9706 0.194065C30.7606 0.0398811 30.4987 -0.0261789 30.2407 0.00996686C29.9827 0.0461127 29.749 0.181605 29.5895 0.38756C29.43 0.593515 29.3572 0.853641 29.3867 1.11248L32.2883 21.8133C32.3218 22.0514 32.4401 22.2695 32.6215 22.4275C32.8029 22.5855 33.0351 22.673 33.2757 22.6735Z" fill="white"/>
</svg>
