<svg width="53" height="61" viewBox="0 0 53 61" fill="none" xmlns="http://www.w3.org/2000/svg">
<path d="M52.0255 8.4019C51.9622 8.08317 51.6711 7.85367 51.3419 7.89192C42.5306 8.84815 33.618 6.01773 26.9465 0.152993C26.706 -0.0509977 26.3515 -0.0509977 26.1236 0.152993C23.2625 2.65188 20.0469 4.5898 16.5782 5.94128C11.9067 7.75174 6.76709 8.42744 1.72823 7.89192C1.39907 7.85367 1.1079 8.07041 1.04459 8.4019C-2.69011 25.0786 3.10818 50.6664 26.2762 60.9426C26.4407 61.0191 26.6306 61.0191 26.7952 60.9426C31.9225 58.5967 39.2275 54.0835 44.9242 45.8473C55.4703 30.6116 53.0257 13.336 52.0255 8.4019ZM43.8851 45.1203C38.4413 52.9739 31.4909 57.3467 26.5282 59.6542C4.65185 49.799 -1.2726 25.6383 2.15794 9.21786C10.9563 10.0211 19.7806 7.21622 26.5282 1.47893C33.2633 7.21614 42.1001 10.0213 50.8985 9.21786C51.9239 14.6619 53.7851 30.8278 43.8851 45.1203ZM46.5944 13.7057C42.4293 13.5654 38.3526 12.724 34.4659 11.2195C31.8074 10.1868 29.25 8.84815 26.8826 7.22895C26.6674 7.0887 26.3889 7.0887 26.1737 7.22895C20.3627 11.2068 13.5008 13.4761 6.46224 13.7057C6.14574 13.7057 5.87988 13.9607 5.85456 14.2794C5.19624 21.7123 5.85456 32.6516 12.7416 42.6088C16.2103 47.6193 20.7426 51.6481 26.2369 54.619C26.4268 54.721 26.642 54.721 26.8319 54.619C42.6566 46.4463 48.8857 28.5335 47.202 14.2794C47.1767 13.9607 46.9109 13.7057 46.5944 13.7057ZM39.277 41.8817C35.9854 46.6245 31.7063 50.4746 26.5287 53.3305C11.6406 45.4896 5.62704 28.584 7.07008 14.9549C13.9951 14.6234 20.7558 12.3796 26.5287 8.51646C32.3016 12.3668 39.0622 14.6235 45.9873 14.9549C46.557 22.1583 45.7841 32.4851 39.277 41.8817Z" fill="white"/>
<path d="M23.8035 41.0233C30.2418 38.8321 34.1947 35.7111 35.5408 31.744C36.8994 27.7732 35.6464 22.9644 31.8238 17.4628C31.6025 17.1374 31.185 17.0062 30.8046 17.138C25.3339 18.9983 21.6492 21.5273 19.8279 24.6819C19.5046 25.242 19.241 25.8257 19.0295 26.4283C17.7599 30.1541 18.7727 34.6155 22.0653 39.6903L19.3802 40.6879C18.8971 40.8702 18.6369 41.4119 18.7884 41.8947C18.9398 42.3775 19.4673 42.6271 19.9456 42.453L23.8035 41.0233ZM20.7748 26.9858C21.879 23.7466 25.2187 21.1062 30.685 19.1445C33.8587 23.8981 34.9122 27.9437 33.8081 31.1829C32.8121 34.0892 30.0202 36.5078 25.4971 38.399C26.1632 37.1362 26.9945 35.4418 27.7522 33.6388L32.0793 30.8876C32.5121 30.6104 32.6684 30.0308 32.4112 29.5857C32.154 29.1407 31.5962 29.0163 31.1507 29.2973L28.8441 30.766C29.5221 28.7194 29.9492 26.7256 29.7773 25.1877C29.7189 24.6708 29.2612 24.3187 28.7611 24.4033C28.4692 24.4545 28.2211 24.6297 28.0785 24.8768C27.9786 25.0498 27.9291 25.2628 27.9537 25.4747C28.1087 26.8601 27.6106 28.8678 26.8505 30.9658L25.1401 28.276C24.8733 27.8475 24.3013 27.7478 23.8715 28.0378C23.7499 28.1213 23.6502 28.2395 23.5788 28.363C23.4029 28.6678 23.3938 29.0469 23.5837 29.3542L25.9862 33.1354C25.1508 35.0911 24.2148 36.9668 23.4569 38.3522C20.626 33.8954 19.72 30.0667 20.7748 26.9858Z" fill="white"/>
</svg>
