<svg width="63" height="47" viewBox="0 0 63 47" fill="none" xmlns="http://www.w3.org/2000/svg">
<path d="M34.6161 40.8713C34.9217 40.8743 35.1976 40.6874 35.3163 40.4055L43.9266 19.7792C44.2737 19.0018 43.9444 18.0879 43.1819 17.7082C42.9594 17.5984 42.7161 17.542 42.4698 17.542C41.8823 17.539 41.3394 17.8654 41.0634 18.3847L30.0408 37.7707C29.8331 38.1356 29.9607 38.6014 30.3257 38.8091C30.6906 39.0138 31.1565 38.8862 31.3641 38.5213L42.3897 19.1201C42.3957 19.1112 42.3986 19.1023 42.4046 19.0964C42.4194 19.0726 42.4431 19.0578 42.4699 19.0549C42.4817 19.0578 42.4936 19.0578 42.5055 19.0637C42.5381 19.0845 42.55 19.1231 42.5351 19.1587L42.5262 19.1795L33.916 39.821C33.8359 40.0079 33.8359 40.2186 33.913 40.4055C33.9901 40.5924 34.1385 40.7408 34.3254 40.8179C34.4174 40.8535 34.5152 40.8743 34.6161 40.8713Z" fill="white"/>
<path d="M31.1241 47C33.0734 47 34.8299 45.8251 35.5746 44.0241C36.3223 42.2261 35.9099 40.1522 34.5302 38.7755C33.1535 37.3958 31.0796 36.9863 29.2786 37.7311C27.4806 38.4788 26.3057 40.2352 26.3057 42.1846C26.3116 44.843 28.4657 46.9971 31.1241 47ZM31.1241 38.882C32.4592 38.882 33.6608 39.686 34.1712 40.9173C34.6815 42.1516 34.3996 43.5698 33.4591 44.5133C32.5156 45.4568 31.0973 45.7387 29.8631 45.2284C28.6318 44.7181 27.8277 43.5164 27.8248 42.1843C27.8277 40.3626 29.3023 38.8849 31.1241 38.882Z" fill="white"/>
<path d="M9.94042 24.7755C10.2816 24.7785 10.5813 24.55 10.6733 24.2207C10.7652 23.8943 10.6258 23.5442 10.335 23.3662L3.82249 19.429H3.81953C3.64744 19.3162 3.43382 19.2806 3.2291 19.3281C3.02735 19.3756 2.85526 19.5061 2.74845 19.6871C2.6446 19.8681 2.62087 20.0817 2.68021 20.2805C2.73658 20.4823 2.87603 20.6484 3.05998 20.7434L9.55178 24.6658C9.66749 24.737 9.80394 24.7755 9.94042 24.7755Z" fill="white"/>
<path d="M52.273 24.7161C52.4124 24.7161 52.5489 24.6775 52.6676 24.6063L59.2009 20.6573H59.198C59.376 20.5534 59.5036 20.3843 59.554 20.1885C59.6044 19.9897 59.5718 19.779 59.468 19.607C59.3612 19.4319 59.1891 19.3073 58.9932 19.2598C58.7945 19.2123 58.5838 19.2479 58.4117 19.3577L51.8784 23.3068H51.8813C51.5876 23.4818 51.4511 23.8319 51.5431 24.1583C51.6351 24.4876 51.9318 24.7161 52.273 24.7161Z" fill="white"/>
<path d="M3.42832 20.8407C3.71612 20.8407 3.97722 20.6805 4.10479 20.4254C4.12556 20.3868 6.19948 16.3695 10.4957 12.5215C16.2487 7.36483 23.1946 4.68901 31.1373 4.56368C39.0799 4.6883 46.0259 7.36453 51.7788 12.5185C56.078 16.3696 58.1133 20.313 58.1341 20.3509H58.1311C58.2231 20.5319 58.3833 20.6684 58.5762 20.7307C58.769 20.793 58.9767 20.7752 59.1577 20.6832L61.8666 19.2917C62.2374 19.1019 62.3858 18.6479 62.1989 18.2771C62.1069 18.0901 59.8609 13.6634 54.9268 9.20955L54.9238 9.20658C52.0755 6.62533 48.8237 4.51871 45.3018 2.97592C40.9433 1.07704 36.1872 0.074208 31.1727 0H31.1044C26.0872 0.0771399 21.3313 1.07408 16.9753 2.97592H16.9783C13.4565 4.51871 10.2046 6.62533 7.35628 9.20658C2.41921 13.66 0.176178 18.0895 0.084198 18.2741L0.0812302 18.2771C-0.102726 18.642 0.0367279 19.087 0.395733 19.2829L3.06897 20.7456C3.17875 20.8079 3.3037 20.8407 3.42832 20.8407ZM31.1367 3.04449H31.1248C22.7994 3.17207 15.5184 5.97886 9.48374 11.3844C6.02126 14.4878 3.93842 17.6833 3.13436 19.0512L1.78737 18.3125C2.56766 16.9565 4.67131 13.6721 8.36819 10.3372V10.3402C11.0948 7.8657 14.2072 5.8481 17.5808 4.37055C21.7583 2.54885 26.3156 1.59045 31.1281 1.51928H31.1518C35.9672 1.59048 40.5247 2.54885 44.6992 4.37055H44.6932C48.0667 5.8481 51.1791 7.86273 53.9058 10.3372C57.5879 13.6602 59.6885 16.9328 60.4777 18.2973L59.1099 18.9975C58.3177 17.6564 56.2556 14.4936 52.7872 11.3868C46.7494 5.98093 39.4685 3.17455 31.1461 3.04694L31.1367 3.04449Z" fill="white"/>
<path d="M50.7339 17.1412C50.9356 17.1412 51.1285 17.0611 51.2709 16.9186L54.2943 13.8982V13.8953C54.591 13.5986 54.591 13.1179 54.2943 12.8212C53.9976 12.5244 53.514 12.5245 53.2173 12.8212L50.2028 15.8446C49.9832 16.0582 49.9179 16.3846 50.0366 16.6694C50.1523 16.9512 50.4253 17.1382 50.7339 17.1412Z" fill="white"/>
<path d="M44.2421 14.7471C44.518 14.7471 44.7732 14.5958 44.9067 14.3525L48.0221 8.66176C48.2179 8.29385 48.0814 7.83696 47.7165 7.63515C47.3516 7.43636 46.8917 7.56988 46.6899 7.93185L43.5745 13.6225C43.4469 13.8599 43.4499 14.1447 43.5864 14.3762C43.7229 14.6076 43.9721 14.7471 44.2421 14.7471Z" fill="white"/>
<path d="M38.6551 9.62004C38.9993 9.62004 39.3019 9.38862 39.388 9.05631L40.4205 5.19332C40.4739 5.00046 40.4472 4.79278 40.3463 4.61772C40.2455 4.44267 40.0793 4.31509 39.8835 4.26466C39.477 4.15488 39.0616 4.39817 38.9518 4.80168L37.9222 8.66171H37.9252C37.8629 8.89017 37.9104 9.13346 38.0528 9.32335C38.1982 9.51027 38.4207 9.62004 38.6551 9.62004Z" fill="white"/>
<path d="M31.137 11.2783C31.5554 11.2783 31.8966 10.9371 31.8966 10.5187V3.80447C31.8966 3.38613 31.5554 3.04492 31.137 3.04492C30.7187 3.04492 30.3775 3.38613 30.3775 3.80447V10.5187C30.3775 10.7205 30.4576 10.9134 30.6 11.0558C30.7424 11.1982 30.9353 11.2783 31.137 11.2783Z" fill="white"/>
<path d="M23.5026 9.62043C23.5649 9.62043 23.6272 9.61153 23.6866 9.59669C23.8824 9.54922 24.0486 9.42461 24.1524 9.25252C24.2563 9.08044 24.2889 8.87275 24.2385 8.67693L23.2772 4.83171C23.2297 4.63589 23.1051 4.46677 22.933 4.36292C22.7609 4.25908 22.5532 4.22941 22.3574 4.27688C21.9509 4.37776 21.7017 4.79017 21.8055 5.19958L22.7668 9.0448C22.8499 9.38304 23.1525 9.62043 23.5026 9.62043Z" fill="white"/>
<path d="M17.9218 14.7469C18.1918 14.7469 18.441 14.6015 18.5775 14.3671C18.714 14.1327 18.714 13.8449 18.5775 13.6076L15.3701 8.04448C15.1595 7.68251 14.6966 7.5579 14.3317 7.76855C13.9697 7.97624 13.8451 8.44206 14.0528 8.80404L17.2601 14.3671H17.2631C17.3966 14.6045 17.6488 14.7469 17.9218 14.7469Z" fill="white"/>
<path d="M11.1957 17.1406C11.4953 17.1406 11.7683 16.9626 11.8899 16.6867C12.0116 16.4137 11.9612 16.0903 11.7564 15.8678L9.04461 12.88V12.883C8.76275 12.5714 8.28209 12.5477 7.97349 12.8296C7.66195 13.1144 7.63822 13.595 7.92009 13.9037L10.6349 16.8914C10.7773 17.0487 10.982 17.1406 11.1957 17.1406Z" fill="white"/>
<path d="M31.0678 24.5842C31.4891 24.5842 31.8273 24.243 31.8273 23.8247V14.1404C31.8273 13.7191 31.4891 13.3809 31.0678 13.3809C30.6494 13.3809 30.3082 13.7191 30.3082 14.1404V23.8247C30.3082 24.243 30.6494 24.5842 31.0678 24.5842Z" fill="white"/>
<path d="M31.0677 28.2169C32.1121 28.2169 33.0497 27.5879 33.4502 26.6266C33.8477 25.6653 33.6282 24.5556 32.8894 23.8198C32.1536 23.084 31.0439 22.8644 30.0826 23.262C29.1214 23.6596 28.4923 24.6001 28.4923 25.6415C28.4982 27.0627 29.6495 28.214 31.0677 28.2169ZM31.0677 24.5854C31.4949 24.5854 31.8806 24.8435 32.0439 25.2381C32.21 25.6327 32.118 26.0867 31.8154 26.3893C31.5128 26.6919 31.0588 26.7809 30.6642 26.6177C30.2696 26.4545 30.0115 26.0688 30.0115 25.6416C30.0145 25.06 30.4862 24.5854 31.0677 24.5854Z" fill="white"/>
<path d="M27.718 16.1119H31.0678C31.4891 16.1119 31.8273 15.7736 31.8273 15.3523C31.8273 14.934 31.4891 14.5928 31.0678 14.5928H27.718C27.2997 14.5928 26.9585 14.934 26.9585 15.3523C26.9585 15.7736 27.2997 16.1119 27.718 16.1119Z" fill="white"/>
<path d="M27.718 21.5416H31.0678C31.4891 21.5416 31.8273 21.2033 31.8273 20.782C31.8273 20.3637 31.4891 20.0225 31.0678 20.0225H27.718C27.2997 20.0225 26.9585 20.3637 26.9585 20.782C26.9585 21.2033 27.2997 21.5416 27.718 21.5416Z" fill="white"/>
<path d="M27.718 18.8257H31.0678C31.4891 18.8257 31.8273 18.4875 31.8273 18.0662C31.8273 17.6478 31.4891 17.3066 31.0678 17.3066H27.718C27.2997 17.3066 26.9585 17.6478 26.9585 18.0662C26.9585 18.4875 27.2997 18.8257 27.718 18.8257Z" fill="white"/>
</svg>
