<svg width="43" height="33" viewBox="0 0 43 33" fill="none" xmlns="http://www.w3.org/2000/svg">
<path d="M21.8163 6.83777V10.0385C27.0669 10.1023 31.8112 12.2345 35.2257 15.6852C38.7047 19.0722 40.8544 23.7774 40.9186 28.9855H42.1837C42.374 28.9855 42.5 29.1105 42.5 29.2992C42.5 30.1766 42.1195 30.9927 41.4869 31.5589C40.8544 32.1863 39.9698 32.5 39.021 32.5H3.97902C3.0302 32.5 2.14564 32.1863 1.51309 31.5589C0.880541 30.9952 0.5 30.1791 0.5 29.2992C0.5 29.1105 0.626016 28.9855 0.816275 28.9855H2.08137C2.14561 23.7776 4.2953 19.0719 7.77432 15.6852C11.1891 12.2345 15.9329 10.1023 21.1837 10.0385V6.83777C20.4252 6.77405 19.7284 6.46034 19.2218 5.9604C18.6535 5.39672 18.273 4.58062 18.273 3.70074C18.273 2.82338 18.6535 2.00725 19.2218 1.44108V1.37736C19.7901 0.813677 20.6129 0.5 21.5 0.5C22.3846 0.5 23.2074 0.813702 23.7782 1.44111C24.3465 2.00479 24.727 2.8209 24.727 3.70077C24.727 4.57813 24.3465 5.39426 23.7782 5.96043C23.2717 6.46284 22.5774 6.77653 21.8163 6.83777ZM34.7835 16.124C31.4305 12.737 26.6863 10.6661 21.5 10.6661C16.3137 10.6661 11.5696 12.737 8.21647 16.124C4.86345 19.4497 2.77553 23.9665 2.7138 28.9858H40.286C40.2217 23.9665 38.1366 19.4499 34.7835 16.124ZM23.3331 1.88252C22.8908 1.38011 22.194 1.13014 21.4998 1.13014C20.8029 1.13014 20.1086 1.38012 19.6664 1.88252C19.2241 2.32122 18.9078 2.94861 18.9078 3.70099C18.9078 4.39214 19.2241 5.01955 19.6664 5.51946C20.1087 5.95816 20.8055 6.27185 21.4998 6.27185C22.1966 6.27185 22.8909 5.95815 23.3331 5.51946C23.7754 5.01705 24.0917 4.38963 24.0917 3.70099C24.0917 2.94861 23.7754 2.32121 23.3331 1.88252ZM41.8675 29.6132H1.13255C1.25857 30.1769 1.51307 30.743 1.95537 31.1179C2.4619 31.6204 3.1562 31.8703 3.97902 31.8703H39.021C39.8438 31.8703 40.5381 31.6203 41.0446 31.1179C41.4869 30.7405 41.7414 30.1768 41.8675 29.6132Z" fill="#CB3D35" stroke="#CB3D35"/>
</svg>
