<svg width="39" height="37" viewBox="0 0 39 37" fill="none" xmlns="http://www.w3.org/2000/svg">
<path d="M38.0843 5.3625L31.8281 12.8184C31.5269 13.1787 31.1575 13.476 30.7412 13.6932C30.3249 13.9105 29.8699 14.0435 29.4021 14.0845C28.9343 14.1256 28.463 14.0739 28.0152 13.9325C27.5674 13.7911 27.1519 13.5627 26.7926 13.2604C26.0671 12.6503 25.6132 11.7773 25.5303 10.833C25.4475 9.8887 25.7425 8.95007 26.3506 8.22291L32.6068 0.767L31.6912 0L25.4373 7.45631C24.692 8.34727 24.2967 9.47926 24.3255 10.6405C24.3543 11.8018 24.8051 12.9129 25.5938 13.7658L20.15 20.2467C19.9233 19.731 19.8066 19.1736 19.8075 18.6103C19.8075 18.4884 19.8157 18.3666 19.8238 18.2447C19.8864 17.5456 19.8099 16.841 19.5988 16.1717C19.3876 15.5023 19.046 14.8814 18.5937 14.3447L9.13209 3.06556C8.61269 2.44574 7.97622 1.93437 7.25908 1.56067C6.54193 1.18696 5.75816 0.95826 4.95258 0.887632C4.14699 0.817004 3.33539 0.905834 2.56415 1.14905C1.79292 1.39226 1.07718 1.78508 0.457844 2.30506L0 2.69141L17.4399 23.4752L8.073 34.6413L8.98869 35.4055L18.2203 24.4018L28.1243 36.2099L28.6142 30.6085L20.8142 21.3094L26.5017 14.5303C27.2686 15.0276 28.1633 15.2916 29.0773 15.2904C29.2207 15.2904 29.3617 15.2864 29.5035 15.2746C30.1284 15.2215 30.7365 15.045 31.2927 14.7552C31.8489 14.4655 32.3421 14.0683 32.7437 13.5866L39 6.13072L38.0843 5.3625ZM27.3813 30.9989L27.1862 33.2333L1.70381 2.86244C2.72033 2.20095 3.94371 1.93415 5.14335 2.11233C6.34299 2.2905 7.43602 2.90135 8.21641 3.82972L17.6788 15.1072C18.388 15.9512 18.7332 17.0423 18.6383 18.1407C18.6223 18.2967 18.6143 18.4535 18.6144 18.6103C18.6143 19.6943 18.9448 20.7525 19.5618 21.6438C19.6572 21.7791 19.7568 21.9107 19.8644 22.0378L27.3813 30.9989Z" fill="#CB3D35"/>
</svg>
