<svg width="47" height="38" viewBox="0 0 47 38" fill="none" xmlns="http://www.w3.org/2000/svg">
<path fill-rule="evenodd" clip-rule="evenodd" d="M14.5111 27.2478C17.0783 34.5413 21.9176 36.0517 26.5901 36.0517C28.3981 36.0517 30.1773 35.826 31.7923 35.6208C32.3156 35.5551 32.8123 35.4935 33.2863 35.4402C41.4231 34.5495 44.0194 26.8086 45.4825 19.3553C47.3069 10.0754 43.7176 5.65923 40.3829 3.58617C34.7642 0.0933841 20.3946 0.723393 14.4433 2.23175C5.04627 4.61225 0.342745 13.4282 1.10399 18.6986C1.50827 21.4916 3.32447 22.9691 6.21598 22.8521C9.9653 22.7044 12.0133 23.8865 13.0724 24.9064C14.1478 25.9407 14.4535 27.0222 14.509 27.2479L14.5111 27.2478ZM26.6211 37.0714C21.6712 37.0714 16.3067 35.4748 13.5344 27.5614C13.5262 27.5389 13.5201 27.5163 13.516 27.4937C13.4831 27.3377 12.6109 23.6274 6.26129 23.8778C4.49435 23.9475 3.04552 23.5022 1.95788 22.55C0.962585 21.682 0.318182 20.3993 0.0924355 18.8458C-0.346732 15.8148 0.79631 12.0451 3.15222 8.7616C5.82414 5.03482 9.74599 2.36064 14.1952 1.23428C17.5464 0.384669 22.8594 -0.0934597 27.7316 0.0152893C31.1628 0.0912193 37.4402 0.542696 40.9291 2.71185C43.0264 4.015 44.6723 5.88453 45.6902 8.11935C47.1041 11.2243 47.375 15.0698 46.4946 19.5501C44.9575 27.369 42.1994 35.4936 33.4037 36.4582C32.9358 36.5095 32.4454 36.5711 31.9262 36.6388C30.3296 36.8399 28.5072 37.0718 26.6253 37.0718L26.6211 37.0714Z" fill="#CB3D35"/>
<path fill-rule="evenodd" clip-rule="evenodd" d="M17.7742 26.4492C19.8059 33.685 25.0677 33.0472 31.1603 32.308C31.737 32.2382 32.3321 32.1643 32.9231 32.1007C39.1801 31.4153 40.9884 24.8256 42.1931 18.7041C42.9954 14.6203 43.0262 9.1757 38.6161 6.43438C34.0829 3.61673 20.5753 4.14004 15.2703 5.48217C11.1208 6.53289 7.61792 9.28282 5.65992 13.0221C4.85549 14.5571 3.7391 18.0623 4.80006 19.2071C4.91293 19.3282 5.23307 19.5314 6.08882 19.4965C8.81001 19.3877 12.6374 19.8187 15.4055 22.4865C16.5691 23.607 17.4536 25.0866 17.7758 26.4493L17.7742 26.4492ZM26.0423 33.7611C24.8397 33.7611 23.6945 33.6483 22.6213 33.3445C19.7113 32.5216 17.8007 30.3525 16.783 26.714C16.7809 26.7058 16.7789 26.6996 16.7768 26.6935C16.506 25.5299 15.7056 24.2021 14.6918 23.2253C12.1841 20.8098 8.65019 20.422 6.12795 20.5226C5.16139 20.5595 4.46156 20.3523 4.04501 19.9049C2.40327 18.1338 4.04296 13.8942 4.74888 12.5478C6.84212 8.54805 10.5851 5.61146 15.018 4.48877C20.6105 3.07073 34.327 2.56176 39.1556 5.56208C43.0424 7.97751 44.4402 12.5887 43.1984 18.9014C42.634 21.7724 41.9076 25.0639 40.43 27.7915C38.7021 30.9786 36.2149 32.7722 33.0361 33.1192C32.4513 33.1828 31.8582 33.2546 31.2836 33.3265C29.4633 33.546 27.7005 33.7595 26.0423 33.7595L26.0423 33.7611Z" fill="#CB3D35"/>
<path fill-rule="evenodd" clip-rule="evenodd" d="M32.9782 33.1255C32.8366 33.1255 32.697 33.0681 32.5965 32.9532C29.9697 30.0042 28.2705 27.3176 27.4045 24.7465C26.3435 21.5944 26.5528 18.5694 28.0304 15.7519C28.1638 15.5015 28.4737 15.403 28.724 15.5364C28.9744 15.6678 29.0729 15.9776 28.9415 16.23C26.4481 20.987 27.8539 26.0847 33.364 32.2739C33.5528 32.4853 33.5343 32.8095 33.323 32.9984C33.2245 33.0845 33.1034 33.1276 32.9802 33.1276L32.9782 33.1255Z" fill="#CB3D35"/>
<path fill-rule="evenodd" clip-rule="evenodd" d="M4.7366 14.3377C4.51907 14.3377 4.31795 14.2002 4.24818 13.9826C4.15994 13.7138 4.30769 13.4244 4.57653 13.3362C4.67914 13.3033 7.12535 12.5174 10.7022 12.0782C10.9833 12.0454 11.2399 12.2444 11.2747 12.5256C11.3096 12.8067 11.1085 13.0612 10.8274 13.0961C7.35301 13.5209 4.91709 14.3028 4.8945 14.311C4.84114 14.3274 4.78778 14.3356 4.73648 14.3356L4.7366 14.3377ZM28.4864 16.5027C28.3818 16.5027 28.2792 16.4699 28.193 16.4104C24.5791 13.9026 19.9328 12.7 14.384 12.8334C14.1028 12.8416 13.8648 12.6159 13.8586 12.3327C13.8504 12.0495 14.0761 11.8135 14.3593 11.8073C19.8898 11.6739 24.577 12.8293 28.2997 15.2468C30.9983 10.2046 33.3911 6.56998 35.4146 4.44018C35.6096 4.23291 35.9359 4.2247 36.1411 4.42171C36.3463 4.61666 36.3545 4.94091 36.1595 5.14613C34.134 7.28039 31.7043 11.0091 28.9401 16.2301C28.8703 16.3594 28.7492 16.4538 28.6076 16.4887C28.5686 16.499 28.5254 16.5027 28.4864 16.5027Z" fill="#CB3D35"/>
<path fill-rule="evenodd" clip-rule="evenodd" d="M12.5794 11.3006C11.8612 11.3006 11.2783 11.8855 11.2783 12.6017C11.2783 13.32 11.8632 13.9028 12.5794 13.9028C13.2977 13.9028 13.8805 13.32 13.8805 12.6017C13.8805 11.8835 13.2977 11.3006 12.5794 11.3006ZM12.5794 14.931C11.2948 14.931 10.2523 13.8864 10.2523 12.6038C10.2523 11.3191 11.2968 10.2766 12.5794 10.2766C13.8641 10.2766 14.9066 11.3212 14.9066 12.6038C14.9066 13.8864 13.862 14.931 12.5794 14.931Z" fill="#CB3D35"/>
<path fill-rule="evenodd" clip-rule="evenodd" d="M15.7669 24.157C15.5781 24.157 15.3996 24.0544 15.3093 23.8759C15.182 23.6234 15.2826 23.3136 15.535 23.1863C18.6338 21.6144 22.0179 19.435 22.9168 13.4362C22.9578 13.1571 23.2205 12.9642 23.4996 13.0053C23.7788 13.0463 23.9737 13.3069 23.9306 13.5881C23.0051 19.7589 19.5718 22.2875 15.9966 24.0994C15.9228 24.1364 15.8448 24.1549 15.7668 24.1549L15.7669 24.157Z" fill="#CB3D35"/>
<path fill-rule="evenodd" clip-rule="evenodd" d="M42.6255 19.6753C42.488 19.6753 42.3526 19.622 42.252 19.5153C37.6613 14.6516 32.9044 12.2958 31.0719 11.5078C30.8113 11.3969 30.6902 11.0953 30.8031 10.8347C30.9159 10.5741 31.2176 10.453 31.4783 10.5658C33.3683 11.3785 38.2769 13.8083 42.9994 18.8113C43.1943 19.0165 43.1841 19.3408 42.9788 19.5357C42.8803 19.6301 42.7531 19.6753 42.6279 19.6753L42.6255 19.6753Z" fill="#CB3D35"/>
</svg>
