<svg width="36" height="37" viewBox="0 0 36 37" fill="none" xmlns="http://www.w3.org/2000/svg">
<path d="M35.5686 9.02087C35.5829 10.0783 35.4039 11.1295 35.0404 12.1226L33.662 11.6203C33.9653 10.7878 34.1144 9.90688 34.102 9.02087C34.1172 8.02829 33.9315 7.04288 33.556 6.12395C33.1805 5.20502 32.6229 4.37157 31.9169 3.67376C30.4986 2.26157 28.5787 1.46871 26.5772 1.46871C24.5758 1.46871 22.6559 2.26157 21.2376 3.67376L17.7914 7.12341L14.3471 3.67223C13.6519 2.96682 12.821 2.40953 11.9046 2.03399C10.9882 1.65845 10.0051 1.47244 9.01485 1.48717C8.02182 1.46856 7.03544 1.65274 6.11603 2.02845C5.19663 2.40416 4.36355 2.96349 3.66775 3.67223C2.2588 5.09222 1.46818 7.01152 1.46818 9.01189C1.46818 11.0123 2.2588 12.9316 3.66775 14.3516L17.7914 28.4771L23.276 22.989L24.3133 24.0252L17.7914 30.5487L2.6285 15.3893C0.944903 13.6945 0 11.4027 0 9.0138C0 6.62495 0.944903 4.33307 2.6285 2.63833C3.46231 1.79502 4.45764 1.12853 5.55495 0.678739C6.65227 0.228945 7.82903 0.00508195 9.01485 0.0205387C10.1971 0.00530357 11.3702 0.229209 12.4638 0.678802C13.5573 1.1284 14.5487 1.7944 15.3783 2.6368L17.7906 5.04529L20.2002 2.6368C21.8931 0.948257 24.1864 0 26.5774 0C28.9684 0 31.2618 0.948257 32.9546 2.6368C33.7982 3.46975 34.4646 4.46469 34.9138 5.56178C35.363 6.65888 35.5858 7.83549 35.5686 9.02087Z" fill="#CB3D35"/>
<path d="M32.5987 7.03746V13.5686C32.5968 15.1739 32.0048 16.7225 30.9353 17.9197C29.8659 19.117 28.3936 19.8792 26.7986 20.0615V27.6536C26.7986 30.0446 25.8488 32.3376 24.1582 34.0282C22.4675 35.7189 20.1745 36.6687 17.7836 36.6687C15.3927 36.6687 13.0996 35.7189 11.409 34.0282C9.71835 32.3376 8.76855 30.0446 8.76855 27.6536H10.2352C10.2352 29.6556 11.0305 31.5756 12.4461 32.9913C13.8618 34.4069 15.7818 35.2022 17.7838 35.2022C19.7858 35.2022 21.7058 34.4069 23.1214 32.9913C24.5371 31.5756 25.3324 29.6556 25.3324 27.6536V20.0596C23.7381 19.8765 22.2667 19.1139 21.198 17.9168C20.1292 16.7196 19.5378 15.1714 19.5361 13.5667V7.03555H20.5517C20.6817 6.79197 20.8741 6.58727 21.1091 6.44234C21.3442 6.29742 21.6135 6.21747 21.8895 6.21066C22.1655 6.20385 22.4384 6.27042 22.6803 6.40357C22.9222 6.53672 23.1245 6.73169 23.2664 6.96856C23.4083 7.20543 23.4848 7.47572 23.4881 7.75182C23.4914 8.02793 23.4213 8.29996 23.2851 8.54015C23.1489 8.78033 22.9513 8.98005 22.7127 9.11892C22.474 9.2578 22.2028 9.33085 21.9266 9.33061C21.5933 9.33203 21.2686 9.22387 21.0027 9.02277V13.567C20.9969 14.2358 21.1236 14.8992 21.3756 15.5187C21.6275 16.1383 21.9996 16.7019 22.4705 17.1768C22.9414 17.6518 23.5017 18.0288 24.119 18.2861C24.7364 18.5434 25.3986 18.6759 26.0674 18.6759C26.7362 18.6759 27.3984 18.5434 28.0158 18.2861C28.6332 18.0288 29.1934 17.6518 29.6643 17.1768C30.1352 16.7019 30.5073 16.1383 30.7592 15.5187C31.0112 14.8992 31.1379 14.2358 31.1321 13.567V9.02467C30.8657 9.2248 30.5414 9.33285 30.2082 9.33252C29.9316 9.3332 29.6597 9.26041 29.4205 9.12159C29.1812 8.98276 28.9831 8.78288 28.8465 8.54239C28.7098 8.3019 28.6395 8.02942 28.6426 7.75283C28.6458 7.47623 28.7224 7.20545 28.8646 6.96816C29.0067 6.73087 29.2094 6.5356 29.4517 6.40231C29.6941 6.26902 29.9675 6.2025 30.2441 6.20955C30.5206 6.2166 30.7903 6.29697 31.0256 6.44243C31.2608 6.5879 31.4533 6.79324 31.5831 7.03746H32.5987Z" fill="#CB3D35"/>
</svg>
