<svg width="33" height="45" viewBox="0 0 33 45" fill="none" xmlns="http://www.w3.org/2000/svg">
<path d="M16.397 25.1021C11.2979 31.3772 10.2088 35.9738 11.0492 38.9279C11.7944 41.5472 14.0951 42.8568 16.397 42.8568C18.6987 42.8568 20.9995 41.5472 21.7447 38.9279C22.5851 35.9738 21.496 31.3773 16.397 25.1021ZM10.1681 39.1786C9.23834 35.9106 10.411 30.8796 16.0173 24.1253C16.041 24.0905 16.0698 24.0583 16.1038 24.03C16.2985 23.8681 16.5876 23.8947 16.7495 24.0894C22.3808 30.8613 23.5572 35.905 22.6258 39.1786C21.7543 42.242 19.0751 43.7738 16.397 43.7738C13.7188 43.7738 11.0396 42.242 10.1681 39.1786Z" fill="#CB3D35" stroke="#CB3D35" stroke-width="0.5"/>
<path fill-rule="evenodd" clip-rule="evenodd" d="M32.0883 39.1684H22.361C22.2271 39.1684 22.0998 39.1099 22.0128 39.0083C21.9258 38.9065 21.8875 38.772 21.9078 38.6397C22.2821 36.2224 21.6141 32.0132 16.3984 25.5952C11.214 31.9746 10.5226 36.1706 10.8819 38.5944C10.8915 38.6314 10.8966 38.67 10.8966 38.7099C10.8966 38.9632 10.6914 39.1684 10.4381 39.1684C10.4373 39.1684 10.439 39.1683 10.4381 39.1684H0.708441C0.455224 39.1684 0.25 38.9632 0.25 38.7099V6.35984C0.25 6.10659 0.455224 5.90137 0.708441 5.90137H32.0882C32.3415 5.90137 32.5467 6.10659 32.5467 6.35984V38.71C32.5468 38.9632 32.3416 39.1684 32.0883 39.1684ZM22.8776 38.2515H31.63V6.81817H1.16701V38.2513L9.9191 38.2514C9.68212 35.5289 10.6532 31.0651 16.0459 24.5801C16.1329 24.4753 16.2622 24.4147 16.3985 24.4147C16.5347 24.4147 16.6639 24.4753 16.7509 24.5801C22.1427 31.064 23.1142 35.5285 22.8776 38.2515Z" fill="#CB3D35"/>
<path d="M10.4381 39.1684C10.6914 39.1684 10.8966 38.9632 10.8966 38.7099C10.8966 38.67 10.8915 38.6314 10.8819 38.5944C10.5226 36.1706 11.214 31.9746 16.3984 25.5952C21.6141 32.0132 22.2821 36.2224 21.9078 38.6397C21.8875 38.772 21.9258 38.9065 22.0128 39.0083C22.0998 39.1099 22.2271 39.1684 22.361 39.1684H32.0883C32.3416 39.1684 32.5468 38.9632 32.5467 38.71V6.35984C32.5467 6.10659 32.3415 5.90137 32.0882 5.90137H0.708441C0.455224 5.90137 0.25 6.10659 0.25 6.35984V38.7099C0.25 38.9632 0.455224 39.1684 0.708441 39.1684H10.4381ZM10.4381 39.1684C10.4373 39.1684 10.439 39.1683 10.4381 39.1684ZM22.8776 38.2515H31.63V6.81817H1.16701V38.2513L9.9191 38.2514C9.68212 35.5289 10.6532 31.0651 16.0459 24.5801C16.1329 24.4753 16.2622 24.4147 16.3985 24.4147C16.5347 24.4147 16.6639 24.4753 16.7509 24.5801C22.1427 31.064 23.1142 35.5285 22.8776 38.2515Z" stroke="#CB3D35" stroke-width="0.5"/>
<path fill-rule="evenodd" clip-rule="evenodd" d="M28.6334 15.5171H16.3982C16.145 15.5171 15.9398 15.3119 15.9398 15.0586V9.81419C15.9398 9.56097 16.145 9.35571 16.3982 9.35571H28.6334C28.8866 9.35571 29.0918 9.56097 29.0918 9.81419V15.0586C29.0917 15.3119 28.8866 15.5171 28.6334 15.5171ZM16.8567 14.6003H28.1749V10.2728H16.8567V14.6003Z" fill="#CB3D35" stroke="#CB3D35" stroke-width="0.5"/>
<path fill-rule="evenodd" clip-rule="evenodd" d="M13.8778 6.81762H3.29804C3.04482 6.81762 2.8396 6.61239 2.8396 6.35914V3.15537C2.8396 2.90212 3.04482 2.6969 3.29804 2.6969H13.8778C14.131 2.6969 14.3363 2.90212 14.3363 3.15537V6.35914C14.3363 6.61239 14.131 6.81762 13.8778 6.81762ZM3.75649 5.9008H13.4193V3.61382H3.75649V5.9008Z" fill="#CB3D35" stroke="#CB3D35" stroke-width="0.5"/>
<path fill-rule="evenodd" clip-rule="evenodd" d="M12.5823 3.61401H4.59348C4.34027 3.61401 4.13501 3.40878 4.13501 3.15557V0.708475C4.13501 0.455258 4.34027 0.25 4.59348 0.25H12.5823C12.8356 0.25 13.0408 0.455258 13.0408 0.708475V3.15557C13.0408 3.40878 12.8354 3.61401 12.5823 3.61401ZM5.05196 2.69709H12.1238V1.16695H5.05196V2.69709Z" fill="#CB3D35" stroke="#CB3D35" stroke-width="0.5"/>
<path fill-rule="evenodd" clip-rule="evenodd" d="M4.07151 30.2619C3.81826 30.2619 3.61304 30.0567 3.61304 29.8034V15.2651C3.61304 15.0119 3.81826 14.8066 4.07151 14.8066C4.32476 14.8066 4.52999 15.0119 4.52999 15.2651V29.8034C4.52985 30.0567 4.32463 30.2619 4.07151 30.2619Z" fill="#CB3D35" stroke="#CB3D35" stroke-width="0.5"/>
</svg>
