<svg width="49" height="40" viewBox="0 0 49 40" fill="none" xmlns="http://www.w3.org/2000/svg">
<path fill-rule="evenodd" clip-rule="evenodd" d="M41.0804 23.0637C40.9109 23.0637 40.7569 22.9995 40.6388 22.8814L21.0844 3.11932C20.8636 2.89854 20.8508 2.5494 21.033 2.30294L22.6273 0.254306C22.7428 0.0977077 22.9251 0.0206909 23.1202 0.0206909H32.8987C33.0681 0.0206909 33.2222 0.08487 33.3403 0.215801L47.8756 15.4393C48.1092 15.6729 48.1092 16.0477 47.8756 16.2941L41.5218 22.8813C41.4191 22.9994 41.2498 23.0637 41.0804 23.0637C41.0932 23.0637 41.0932 23.0637 41.0804 23.0637ZM22.3553 2.63913L41.0804 21.5725L46.5921 15.8656L32.6397 1.25072H23.4336L22.358 2.63702L22.3553 2.63913Z" fill="#CB3D35"/>
<path fill-rule="evenodd" clip-rule="evenodd" d="M27.9057 23.0505C27.7491 23.0505 27.5951 22.9863 27.4641 22.8682C27.2177 22.6217 27.2177 22.2315 27.4641 22.0005L34.0901 15.3877C34.3365 15.1413 34.7267 15.1413 34.9578 15.3877C35.2042 15.6342 35.2042 16.0244 34.9578 16.2554L28.3318 22.8682C28.2266 22.9837 28.0597 23.0505 27.9031 23.0505H27.9057Z" fill="#CB3D35"/>
<path fill-rule="evenodd" clip-rule="evenodd" d="M9.94501 39.5318C8.83085 39.5318 7.79116 39.1031 7.01329 38.3253C6.23542 37.5474 5.79385 36.4975 5.80673 35.3936C5.80673 34.2794 6.24829 33.2397 7.03899 32.4618L16.9332 22.5677C17.1796 22.3212 17.5698 22.3212 17.8009 22.5677C18.0473 22.8141 18.0473 23.2043 17.8009 23.4354L7.90669 33.3295C7.34961 33.8738 7.03899 34.6131 7.03899 35.391C7.03899 36.1689 7.33678 36.9082 7.89388 37.4524C8.43812 37.9967 9.16464 38.2945 9.94251 38.2945C10.7204 38.2945 11.4597 37.9967 12.004 37.4524L21.8725 27.597C22.119 27.3506 22.5092 27.3506 22.7402 27.597C22.9867 27.8435 22.9867 28.2337 22.7402 28.4647L12.8717 38.3202C12.0938 39.098 11.0567 39.5267 9.93995 39.5267L9.94501 39.5318Z" fill="#CB3D35"/>
<path fill-rule="evenodd" clip-rule="evenodd" d="M22.8613 18.109C22.7047 18.109 22.5506 18.0448 22.4197 17.9267C22.1733 17.6803 22.1733 17.2901 22.4197 17.059L29.1225 10.3562C29.369 10.1098 29.7592 10.1098 29.9902 10.3562C30.2367 10.6027 30.2367 10.9929 29.9902 11.2239L23.2874 17.9267C23.1719 18.0448 23.0153 18.109 22.8587 18.109H22.8613Z" fill="#CB3D35"/>
<path fill-rule="evenodd" clip-rule="evenodd" d="M16.7917 20.3652C16.6351 20.3652 16.4683 20.301 16.3502 20.1829L8.492 12.1552H4.87482C4.65404 12.1552 4.4461 12.0397 4.33057 11.8317L0.0766964 4.10172C-0.0542316 3.8681 -0.0131566 3.58314 0.166549 3.38806L3.12396 0.197012C3.31907 -0.0109339 3.6297 -0.0622754 3.87613 0.0814878L11.1389 4.16587C11.334 4.26856 11.4495 4.47651 11.4495 4.69728V8.30165L19.7237 16.5758C19.9702 16.8223 19.9702 17.2125 19.7237 17.4435C19.4773 17.69 19.087 17.69 18.856 17.4435L10.4024 8.98993C10.2869 8.87441 10.2201 8.71781 10.2201 8.54838V5.04674L3.69686 1.37567L1.37614 3.87869L5.23977 10.895H8.7543C8.92373 10.895 9.07777 10.9592 9.19586 11.0773L17.2236 19.2844C17.4572 19.5309 17.4572 19.9211 17.2108 20.1521C17.1055 20.2959 16.9515 20.3601 16.7949 20.3601L16.7917 20.3652Z" fill="#CB3D35"/>
<path fill-rule="evenodd" clip-rule="evenodd" d="M34.1306 38.8181C32.9626 38.8181 31.797 38.3765 30.9011 37.4832L17.3896 23.9974C17.2074 23.8151 17.0533 23.62 16.8711 23.3607C16.106 22.2594 15.8725 20.8962 16.2087 19.5997C16.4167 18.8091 16.83 18.0953 17.4025 17.5255C17.8826 17.0326 18.4781 16.6706 19.1148 16.4627C19.5692 16.2804 20.0878 16.2034 20.632 16.2034C21.5536 16.2034 22.4727 16.4883 23.2377 16.9941C23.2377 16.9941 23.2506 16.9941 23.2506 17.0069C23.5098 17.1892 23.705 17.356 23.8872 17.5255L37.3987 31.0369C39.1751 32.8263 39.1623 35.7169 37.3858 37.4934C36.4668 38.3765 35.2987 38.8181 34.1306 38.8181ZM20.6192 17.4202C20.2162 17.4202 19.8542 17.4844 19.5307 17.6025C19.5179 17.6025 19.5051 17.6153 19.5051 17.6153C19.0507 17.7591 18.6219 18.0312 18.26 18.3804C17.8441 18.7963 17.5463 19.3149 17.3923 19.8976C17.1458 20.8449 17.3153 21.8435 17.8724 22.6471C18.0033 22.8422 18.1317 22.9834 18.2626 23.1143L31.774 36.6126C33.0705 37.9091 35.1833 37.9091 36.4951 36.6126C37.7916 35.3161 37.7916 33.2034 36.5079 31.8915L22.9965 18.3801C22.8656 18.2492 22.7244 18.1336 22.5293 17.9899C21.9722 17.6279 21.297 17.42 20.6219 17.42L20.6192 17.4202Z" fill="#CB3D35"/>
<path fill-rule="evenodd" clip-rule="evenodd" d="M33.6635 34.2151C33.5069 34.2151 33.3529 34.151 33.2219 34.0329C28.5933 29.3631 21.5132 22.2703 20.8251 21.7668C20.553 21.6102 20.4349 21.2739 20.5658 20.989C20.7096 20.6783 21.0716 20.5346 21.3822 20.6783C21.5645 20.7554 21.7853 20.8606 28.0081 27.0707C31.0426 30.1051 34.0641 33.1396 34.0898 33.1781C34.3234 33.4245 34.3234 33.8147 34.0898 34.0458C33.9717 34.1613 33.8177 34.2152 33.6611 34.2152L33.6635 34.2151ZM20.8375 21.7671C20.8504 21.7799 20.876 21.7799 20.8889 21.7927C20.8632 21.7927 20.8504 21.7799 20.8375 21.7671Z" fill="#CB3D35"/>
</svg>
