<svg width="41" height="41" viewBox="0 0 41 41" fill="none" xmlns="http://www.w3.org/2000/svg">
<path d="M24.6927 41H16.3073L14.8599 35.2113C14.6003 35.1152 14.3406 35.0102 14.0775 34.8953L8.97686 37.9592L3.04041 32.0227L6.1043 26.9221C5.98942 26.659 5.88435 26.3993 5.78826 26.1396L0 24.6927V16.3073L5.78869 14.8599C5.88478 14.6003 5.98984 14.3406 6.10473 14.0775L3.04083 8.97686L8.97729 3.04041L14.0779 6.1043C14.341 5.98942 14.6007 5.88435 14.8604 5.78826L16.3073 0H24.6927L26.1401 5.78869C26.3993 5.88478 26.659 5.98984 26.9225 6.10473L32.0231 3.04083L37.9596 8.97729L34.8953 14.0775C35.0102 14.3406 35.1152 14.6003 35.2113 14.8599L41 16.3073V24.6927L35.2113 26.1401C35.1152 26.3997 35.0102 26.6594 34.8953 26.9225L37.9592 32.0231L32.0227 37.9596L26.9225 34.8953C26.659 35.0102 26.3993 35.1152 26.1401 35.2113L24.6927 41ZM17.5877 39.36H23.4123L24.7653 33.9489L25.1924 33.8062C25.6819 33.6414 26.1613 33.448 26.6282 33.2271L27.0241 33.0417L31.769 35.8917L35.8934 31.7673L33.043 27.0237L33.2288 26.6278C33.4492 26.1609 33.642 25.6814 33.8062 25.1919L33.9489 24.7649L39.36 23.4119V17.5877L33.9489 16.2347L33.8062 15.8076C33.6414 15.3182 33.448 14.8389 33.2271 14.3722L33.0413 13.9763L35.8917 9.23098L31.7673 5.10664L27.0241 7.95656L26.6282 7.77121C26.1612 7.55082 25.6816 7.35801 25.1919 7.19379L24.7649 7.05115L23.4123 1.64H17.5877L16.2347 7.05115L15.8076 7.19379C15.3181 7.35855 14.8386 7.55192 14.3718 7.77292L13.9763 7.95827L9.23098 5.10664L5.10664 9.23098L7.95656 13.9763L7.77121 14.3718C7.55078 14.8388 7.35797 15.3184 7.19379 15.8081L7.05115 16.2351L1.64 17.5877V23.4123L7.05115 24.7653L7.19379 25.1924C7.35855 25.6819 7.55192 26.1614 7.77292 26.6282L7.95827 27.0237L5.10664 31.769L9.23098 35.8934L13.9763 33.0434L14.3718 33.2288C14.8388 33.4492 15.3184 33.642 15.8081 33.8062L16.2351 33.9489L17.5877 39.36Z" fill="#CB3D35"/>
<path d="M20.5001 31.5371C18.3172 31.5371 16.1833 30.8898 14.3682 29.677C12.5532 28.4643 11.1385 26.7405 10.3031 24.7237C9.46776 22.707 9.24919 20.4878 9.67506 18.3468C10.1009 16.2058 11.1521 14.2392 12.6957 12.6956C14.2393 11.152 16.2059 10.1008 18.3469 9.67497C20.4879 9.2491 22.7071 9.46767 24.7238 10.303C26.7406 11.1384 28.4644 12.5531 29.6771 14.3681C30.8899 16.1832 31.5372 18.3171 31.5372 20.5C31.5338 23.4262 30.3699 26.2316 28.3008 28.3007C26.2316 30.3698 23.4263 31.5337 20.5001 31.5371ZM20.5001 11.1042C18.6418 11.1042 16.8252 11.6552 15.2801 12.6877C13.7349 13.7201 12.5306 15.1875 11.8195 16.9044C11.1083 18.6212 10.9223 20.5104 11.2848 22.333C11.6473 24.1557 12.5422 25.8298 13.8562 27.1439C15.1703 28.4579 16.8445 29.3528 18.6671 29.7153C20.4897 30.0778 22.3789 29.8918 24.0957 29.1806C25.8126 28.4695 27.28 27.2652 28.3124 25.7201C29.3449 24.1749 29.8959 22.3583 29.8959 20.5C29.8928 18.0091 28.9018 15.621 27.1405 13.8596C25.3791 12.0983 22.9911 11.1073 20.5001 11.1042Z" fill="#CB3D35"/>
</svg>
