<svg width="43" height="41" viewBox="0 0 43 41" fill="none" xmlns="http://www.w3.org/2000/svg">
<path d="M31.975 20.1621C31.6785 18.5168 31.0074 16.9618 30.0137 15.6174C29.02 14.273 27.7304 13.1752 26.2445 12.409C24.7586 11.6428 23.1164 11.2287 21.4449 11.1988C19.7734 11.1688 18.1174 11.5238 16.605 12.2363C15.0927 12.9488 13.7645 13.9997 12.7233 15.3076C11.6821 16.6155 10.9557 18.1455 10.6004 19.7791C10.2451 21.4127 10.2704 23.1061 10.6744 24.7284C11.0783 26.3506 11.85 27.8582 12.9298 29.1344C15.1707 31.7836 16.3555 34.7433 16.3555 37.6897V41H26.1354V37.7518C26.1354 34.5392 27.2049 31.646 29.1395 29.6048C31.0723 27.5836 32.1487 24.8933 32.1437 22.0968C32.1422 21.4483 32.0858 20.801 31.975 20.1621ZM24.3605 39.225H18.1304V38.9987H24.3605V39.225ZM27.8527 28.3801C25.6471 30.8015 24.4075 33.9486 24.3694 37.2238H18.1216C18.0062 34.0111 16.6838 30.8251 14.2832 27.9852C13.0526 26.5277 12.3096 24.7212 12.1586 22.8196C12.0076 20.9181 12.4562 19.017 13.4413 17.3835C14.4265 15.7501 15.8987 14.4664 17.6511 13.7128C19.4035 12.9592 21.3479 12.7736 23.2112 13.1821C24.9709 13.5541 26.5776 14.4479 27.8216 15.7469C29.4514 17.4441 30.3641 19.7043 30.3699 22.0573C30.3757 24.4103 29.4741 26.6749 27.8527 28.3801Z" fill="#CB3D35"/>
<path d="M10.3664 30.9768L5.61033 35.7329L6.86541 36.988L11.6215 32.2319L10.3664 30.9768Z" fill="#CB3D35"/>
<path d="M6.72617 20.4119H0V22.1868H6.72617V20.4119Z" fill="#CB3D35"/>
<path d="M6.8663 5.61103L5.6112 6.86609L10.3672 11.6223L11.6223 10.3672L6.8663 5.61103Z" fill="#CB3D35"/>
<path d="M22.1871 0H20.4121V6.72617H22.1871V0Z" fill="#CB3D35"/>
<path d="M35.7317 5.61094L30.9756 10.3671L32.2307 11.6221L36.9868 6.86602L35.7317 5.61094Z" fill="#CB3D35"/>
<path d="M42.5982 20.4119H35.872V22.1868H42.5982V20.4119Z" fill="#CB3D35"/>
<path d="M32.2307 30.9763L30.9756 32.2313L35.7316 36.9875L36.9867 35.7325L32.2307 30.9763Z" fill="#CB3D35"/>
</svg>
