<svg width="38" height="41" viewBox="0 0 38 41" fill="none" xmlns="http://www.w3.org/2000/svg">
<path d="M30.5628 0H7.74809V6.68391L0 16.1986V41H37.9031V16.2087L30.5628 6.69348V0ZM9.08606 1.33797H29.2253V6.25296H9.08606V1.33797ZM22.9723 39.662H1.33797V17.1057H22.9723V39.662ZM2.07642 15.7677L8.73482 7.59047H28.6535L23.2798 15.7677H2.07642ZM36.5652 39.662H24.3103V17.1057H36.5652V39.662ZM35.8732 15.7677H24.8811L29.9373 8.07336L35.8732 15.7677Z" fill="#CB3D35"/>
<path d="M12.0674 36.2736C16.4872 36.2736 20.0834 32.6779 20.0834 28.2577C20.0834 23.8379 16.4877 20.2422 12.0674 20.2422C7.64764 20.2422 4.05194 23.8379 4.05194 28.2577C4.05194 32.6779 7.64764 36.2736 12.0674 36.2736ZM12.0674 21.5802C15.7497 21.5802 18.7454 24.5759 18.7454 28.2577C18.7454 31.9399 15.7497 34.9357 12.0674 34.9357C8.38564 34.9357 5.38991 31.9399 5.38991 28.2577C5.38991 24.5759 8.38564 21.5802 12.0674 21.5802Z" fill="#CB3D35"/>
</svg>
