<svg width="27" height="48" viewBox="0 0 27 48" fill="none" xmlns="http://www.w3.org/2000/svg">
<path d="M22.7796 13.1649C23.5415 11.498 23.632 9.60174 23.0324 7.86989C22.4327 6.13804 21.189 4.70372 19.5596 3.86484C18.9662 2.70161 18.0629 1.72504 16.9493 1.043C15.8358 0.360957 14.5554 0 13.2496 0C11.9437 0 10.6633 0.360957 9.54978 1.043C8.43623 1.72504 7.53289 2.70161 6.93954 3.86484C5.31008 4.70372 4.06637 6.13804 3.46674 7.86989C2.86711 9.60174 2.95764 11.498 3.71952 13.1649C2.33023 13.9158 1.23135 15.109 0.597085 16.5553C-0.0371823 18.0015 -0.170539 19.6182 0.218156 21.1488C0.606851 22.6795 1.49535 24.0366 2.74281 25.005C3.99027 25.9735 5.52529 26.4978 7.10454 26.4949C7.20454 26.4949 7.30454 26.4949 7.40454 26.4849C7.96195 27.3018 8.6849 27.9924 9.52648 28.5118C10.3681 29.0312 11.3094 29.3679 12.2896 29.4999C12.9262 29.5933 13.573 29.5933 14.2096 29.4999C15.1897 29.3679 16.1311 29.0312 16.9726 28.5118C17.8142 27.9924 18.5372 27.3018 19.0946 26.4849C19.1946 26.4949 19.2946 26.4949 19.3946 26.4949C20.9738 26.4978 22.5089 25.9735 23.7563 25.005C25.0038 24.0366 25.8923 22.6795 26.281 21.1488C26.6697 19.6182 26.5363 18.0015 25.902 16.5553C25.2678 15.109 24.1689 13.9158 22.7796 13.1649ZM19.3946 24.5749C19.1669 24.5721 18.9397 24.5537 18.7146 24.5199L18.0696 24.4399L17.7546 25.0049C17.307 25.8069 16.6536 26.4748 15.8616 26.9398C15.0696 27.4048 14.1679 27.6499 13.2496 27.6499C12.3312 27.6499 11.4295 27.4048 10.6375 26.9398C9.84555 26.4748 9.19207 25.8069 8.74454 25.0049L8.42954 24.4399L7.78454 24.5199C7.55939 24.5537 7.33219 24.5721 7.10454 24.5749C5.88128 24.5791 4.6962 24.1492 3.76014 23.3617C2.82408 22.5742 2.19774 21.4802 1.99256 20.2742C1.78737 19.0683 2.01664 17.8287 2.63958 16.7759C3.26252 15.7231 4.23873 14.9255 5.39453 14.5249L6.58453 14.1099L5.86953 13.0749C5.2893 12.2199 4.98402 11.2081 4.99453 10.1749C4.99652 9.17841 5.28576 8.20367 5.8276 7.36741C6.36944 6.53115 7.14089 5.86885 8.04954 5.45984L8.38454 5.30984L8.53454 4.97984C8.94079 4.06877 9.6023 3.2949 10.4391 2.75183C11.2758 2.20876 12.252 1.91975 13.2496 1.91975C14.2471 1.91975 15.2233 2.20876 16.0601 2.75183C16.8968 3.2949 17.5583 4.06877 17.9646 4.97984L18.1146 5.30984L18.4496 5.45984C19.3582 5.86885 20.1297 6.53115 20.6715 7.36741C21.2134 8.20367 21.5026 9.17841 21.5046 10.1749C21.5151 11.2081 21.2098 12.2199 20.6296 13.0749L19.9146 14.1099L21.1046 14.5249C22.2604 14.9255 23.2366 15.7231 23.8595 16.7759C24.4825 17.8287 24.7118 19.0683 24.5066 20.2742C24.3014 21.4802 23.675 22.5742 22.739 23.3617C21.8029 24.1492 20.6178 24.5791 19.3946 24.5749Z" fill="#CB3D35"/>
<path d="M19.3946 46.0799V47.9999H7.10452V46.0799H12.2895V29.4999C12.9261 29.5932 13.5729 29.5932 14.2095 29.4999V46.0799H19.3946Z" fill="#CB3D35"/>
</svg>
