<svg width="43" height="34" viewBox="0 0 43 34" fill="none" xmlns="http://www.w3.org/2000/svg">
<path d="M39.873 13.742V7.45695C39.8703 5.47931 39.0831 3.5835 37.6843 2.18551C36.2855 0.787525 34.3892 0.00153348 32.4116 0H10.3984C8.42071 0.00153348 6.52443 0.787525 5.12561 2.18551C3.72678 3.5835 2.93966 5.47931 2.93694 7.45695V13.742C2.01705 14.5227 1.27792 15.4942 0.770793 16.589C0.263664 17.6838 0.000656869 18.8758 0 20.0823V28.1306H2.93694V34H13.4552V28.1306H29.3547V34H39.873V28.1306H42.8099V20.0823C42.8109 18.8755 42.5486 17.683 42.0414 16.5879C41.5342 15.4929 40.7942 14.5217 39.873 13.742ZM4.64934 7.45695C4.65146 5.93328 5.25798 4.47269 6.3358 3.39571C7.41362 2.31873 8.87468 1.71334 10.3984 1.7124H32.4116C33.9352 1.71334 35.3963 2.31873 36.4741 3.39571C37.5519 4.47269 38.1585 5.93328 38.1606 7.45695V12.5852C37.9938 12.5041 37.827 12.4269 37.6513 12.3542C37.5572 12.3159 37.4587 12.2771 37.3601 12.2427C37.2018 12.183 37.0391 12.1272 36.8763 12.0804C36.7871 12.0546 36.701 12.0287 36.6087 12.0073C36.5821 11.9983 36.5548 11.9911 36.5271 11.9859C36.4415 11.9605 36.3559 11.9413 36.2703 11.9261C35.8895 11.8437 35.5031 11.7893 35.1144 11.7634C35.0252 11.7549 34.9391 11.7504 34.8491 11.7464C34.7206 11.742 34.5967 11.7379 34.4682 11.7379H8.34348C8.21505 11.7379 8.09108 11.742 7.96265 11.7464C7.87346 11.7504 7.78695 11.7549 7.69508 11.7634C7.24948 11.7935 6.80702 11.8594 6.37199 11.9605C6.23107 11.9948 6.09373 12.0332 5.95281 12.0715C5.94644 12.0755 5.93884 12.0771 5.9314 12.076C5.79004 12.1232 5.64868 12.1652 5.50732 12.2173C5.35748 12.2731 5.21211 12.3284 5.07075 12.3886C4.93697 12.4443 4.80943 12.5041 4.681 12.5669C4.66851 12.5714 4.65959 12.5799 4.64711 12.5839L4.64934 7.45695ZM11.7429 32.2867H4.64934V28.1306H11.7429V32.2867ZM38.1606 32.2867H31.0671V28.1306H38.1606V32.2867ZM41.0975 26.4182H1.7124V20.0823C1.71352 19.1275 1.92136 18.1843 2.32165 17.3174C2.72194 16.4506 3.30517 15.6807 4.03127 15.0606L4.33094 14.8167C5.47047 13.9109 6.88887 13.4283 8.34437 13.4512H34.4664C35.0223 13.4504 35.5763 13.5164 36.1164 13.6479C36.634 13.7777 37.1331 13.9724 37.6018 14.2276C37.6058 14.2321 37.6103 14.2321 37.6148 14.2361C37.8419 14.3615 38.0606 14.5017 38.2694 14.6557C38.3425 14.707 38.4108 14.7627 38.4794 14.8185L38.8005 15.0798C39.5207 15.6993 40.0988 16.4669 40.4952 17.3303C40.8916 18.1936 41.0971 19.1323 41.0975 20.0823V26.4182Z" fill="#CB3D35"/>
<path d="M6.72699 22.2594C5.9773 22.2594 5.24446 22.0371 4.62112 21.6206C3.99778 21.2041 3.51195 20.6121 3.22506 19.9195C2.93817 19.2269 2.8631 18.4647 3.00936 17.7294C3.15561 16.9942 3.51662 16.3188 4.04673 15.7887C4.57683 15.2586 5.25223 14.8976 5.9875 14.7513C6.72278 14.605 7.48492 14.6801 8.17753 14.967C8.87015 15.2539 9.46214 15.7397 9.87864 16.3631C10.2951 16.9864 10.5174 17.7192 10.5174 18.4689C10.516 19.4738 10.1162 20.4371 9.40569 21.1476C8.69514 21.8582 7.73185 22.258 6.72699 22.2594ZM6.72699 16.3882C6.31574 16.3882 5.91373 16.5101 5.57178 16.7386C5.22983 16.9671 4.96331 17.2918 4.80591 17.6717C4.64851 18.0517 4.60731 18.4697 4.68751 18.8731C4.7677 19.2765 4.9657 19.647 5.25647 19.9378C5.54724 20.2286 5.91771 20.4267 6.32104 20.507C6.72438 20.5873 7.14246 20.5462 7.52243 20.3888C7.9024 20.2315 8.22719 19.9651 8.45573 19.6232C8.68427 19.2813 8.8063 18.8793 8.80639 18.468C8.8058 17.9167 8.58655 17.3881 8.19672 16.9982C7.8069 16.6083 7.27834 16.3889 6.72699 16.3882Z" fill="#CB3D35"/>
<path d="M36.0834 22.2594C35.3338 22.2594 34.6009 22.0371 33.9776 21.6206C33.3542 21.2041 32.8684 20.6121 32.5815 19.9195C32.2946 19.2269 32.2195 18.4647 32.3658 17.7294C32.5121 16.9942 32.8731 16.3188 33.4032 15.7887C33.9333 15.2586 34.6087 14.8976 35.3439 14.7513C36.0792 14.605 36.8414 14.6801 37.534 14.967C38.2266 15.2539 38.8186 15.7397 39.2351 16.3631C39.6516 16.9864 39.8739 17.7192 39.8739 18.4689C39.8725 19.4738 39.4727 20.4371 38.7621 21.1476C38.0516 21.8582 37.0883 22.258 36.0834 22.2594ZM36.0834 16.3882C35.6722 16.3881 35.2701 16.51 34.9281 16.7384C34.5861 16.9668 34.3195 17.2915 34.162 17.6714C34.0046 18.0514 33.9633 18.4694 34.0435 18.8728C34.1236 19.2762 34.3216 19.6468 34.6123 19.9376C34.9031 20.2285 35.2735 20.4266 35.6769 20.507C36.0802 20.5873 36.4983 20.5462 36.8783 20.3889C37.2583 20.2316 37.5831 19.9651 37.8117 19.6232C38.0403 19.2813 38.1623 18.8793 38.1624 18.468C38.1619 17.9167 37.9428 17.3881 37.553 16.9982C37.1633 16.6083 36.6347 16.3889 36.0834 16.3882Z" fill="#CB3D35"/>
</svg>
