<svg width="64" height="64" viewBox="0 0 64 64" fill="none" xmlns="http://www.w3.org/2000/svg">
<path d="M31.7363 0C14.2369 0 0 14.2369 0 31.7363C0 49.2356 14.2369 63.4725 31.7363 63.4725C49.2356 63.4725 63.4725 49.2356 63.4725 31.7363C63.4725 14.2369 49.2356 0 31.7363 0ZM31.7363 62.062C15.0148 62.062 1.4105 48.4577 1.4105 31.7363C1.4105 15.0148 15.0148 1.4105 31.7363 1.4105C48.4577 1.4105 62.062 15.0148 62.062 31.7363C62.062 48.4577 48.4577 62.062 31.7363 62.062Z" fill="#CB3D35"/>
<path d="M52.4651 17.6414C52.0899 17.3155 51.8515 17.1103 51.7034 17.0052C51.7034 17.0052 51.7034 17.0045 51.7027 17.0045L48.7541 14.9127C47.0734 13.7314 44.6939 14.1327 43.4499 15.807C41.899 17.8981 40.272 19.9715 38.6147 21.9716C37.2846 23.5774 37.4637 25.9838 39.0167 27.3378C39.3919 27.6637 39.9215 28.1425 40.4533 28.6235C41.0048 29.1221 41.5584 29.6236 41.9498 29.9614C42.0831 30.0756 42.1635 30.2407 42.1755 30.4261C42.1903 30.6419 42.1155 30.8542 41.9639 31.0256C37.7458 35.8058 35.6766 37.8743 30.8978 42.0917C30.7264 42.2426 30.5106 42.3096 30.2991 42.3033C30.1136 42.2906 29.9486 42.2102 29.8322 42.0762C29.4979 41.6897 29.0035 41.1431 28.5091 40.5965C28.0232 40.0584 27.5366 39.521 27.2051 39.1381C25.8525 37.5901 23.4504 37.4102 21.8452 38.7396C19.8388 40.4012 17.7661 42.0275 15.6842 43.5727C14.0078 44.8189 13.6065 47.2005 14.7913 48.8847L16.8789 51.827C16.9839 51.9758 17.1892 52.2148 17.5157 52.59C17.7498 52.8594 17.9854 53.1281 18.0714 53.2494C18.9946 54.5591 20.4827 55.2742 22.0653 55.2742C22.7804 55.2742 23.5146 55.1282 24.2247 54.825C38.8552 48.6639 48.539 38.9801 54.6972 24.3546C55.6719 22.0703 55.0251 19.5392 53.1252 18.1992C53.0032 18.1125 52.7338 17.8755 52.4651 17.6414ZM53.3988 23.8038C47.3908 38.071 37.9475 47.5151 23.6754 53.5259C22.0103 54.2361 20.1794 53.7897 19.2245 52.4356C19.1187 52.2854 18.9107 52.0442 18.5813 51.6647C18.3493 51.3975 18.1159 51.1323 18.0298 51.011L15.9444 48.0708C15.1961 47.008 15.4578 45.498 16.5255 44.7046C18.6272 43.1453 20.7196 41.5042 22.7451 39.8257C23.7656 38.9801 25.2897 39.0873 26.1402 40.0634C26.4745 40.4499 26.9689 40.9964 27.4633 41.543C27.9492 42.0811 28.4358 42.6185 28.7651 42.9986C29.1291 43.4204 29.6397 43.6728 30.2046 43.7109C30.7941 43.7504 31.376 43.5508 31.8316 43.1496C36.6639 38.8849 38.755 36.7931 43.0218 31.9601C43.4238 31.5045 43.6234 30.9255 43.5832 30.3309C43.5444 29.766 43.2919 29.2561 42.8716 28.8936C42.4872 28.5615 41.9427 28.0685 41.399 27.5776C40.8588 27.0896 40.3214 26.6023 39.9412 26.2729C38.9617 25.4189 38.8538 23.8927 39.7001 22.8708C41.3736 20.8524 43.0161 18.7578 44.5818 16.6477C45.3738 15.5806 46.883 15.3211 47.9402 16.0651L50.886 18.1548C51.0073 18.2422 51.2732 18.475 51.5405 18.7063C51.9192 19.0363 52.1604 19.2437 52.312 19.3509C53.664 20.3044 54.1118 22.1338 53.3988 23.8038Z" fill="#CB3D35"/>
<path d="M34.8339 22.1695C34.8339 15.2552 29.2088 9.63086 22.2952 9.63086C15.3816 9.63086 9.75586 15.2559 9.75586 22.1695C9.75586 29.0831 15.3816 34.7089 22.2952 34.7089C29.2088 34.7089 34.8339 29.0831 34.8339 22.1695ZM11.1657 22.1695C11.1657 16.0331 16.1581 11.0414 22.2945 11.0414C28.4309 11.0414 33.4226 16.0331 33.4226 22.1695C33.4226 28.3059 28.4309 33.2984 22.2945 33.2984C16.1581 33.2984 11.1657 28.3059 11.1657 22.1695Z" fill="#CB3D35"/>
<path d="M25.1926 18.6637C25.1926 19.9486 24.3681 20.6631 23.4139 21.4896C22.4223 22.3493 21.3976 23.2372 21.143 24.9333C21.0887 25.2648 21.0598 25.616 21.0542 26.0357H22.5874C22.5888 25.7331 22.5994 25.4524 22.6607 25.1449C22.8956 23.9255 23.7242 23.197 24.6016 22.4262C25.6482 21.5058 26.7272 20.5573 26.7272 18.6637C26.7272 16.2193 24.7384 14.2305 22.2933 14.2305C19.8482 14.2305 17.8594 16.2193 17.8594 18.6637V18.7025H19.3947V18.6637C19.3947 17.0649 20.6952 15.7651 22.294 15.7651C23.8928 15.7651 25.1926 17.0649 25.1926 18.6637Z" fill="#CB3D35"/>
<path d="M22.5864 28.5762H21.0518V30.1108H22.5864V28.5762Z" fill="#CB3D35"/>
</svg>
