<svg width="79" height="58" viewBox="0 0 79 58" fill="none" xmlns="http://www.w3.org/2000/svg">
<path d="M78.6173 31.8305L70.4068 27.7836C70.3938 27.7772 70.3808 27.7804 70.371 27.774C70.3156 27.7482 70.257 27.7354 70.1918 27.7257C70.169 27.7225 70.1462 27.7161 70.1234 27.7161C70.1136 27.7161 70.1071 27.7129 70.0973 27.7129H62.9328L62.418 17.7054C63.112 18.1525 63.7278 18.7252 64.2132 19.4168C64.3435 19.6001 64.5553 19.7127 64.7834 19.7127H68.1913C68.5758 19.7127 68.8853 19.4039 68.8853 19.0275V0.685195C68.8853 0.305601 68.5725 0 68.1913 0H49.6198C49.2354 0 48.9258 0.308821 48.9258 0.685195V19.0218C48.9258 19.4014 49.2386 19.707 49.6198 19.707H53.0278C53.2558 19.707 53.4676 19.5976 53.5979 19.411C54.0834 18.7194 54.6992 18.1467 55.3931 17.6996L54.8783 27.7071H42.0086C42.6863 26.3913 43.1749 25.0178 43.4487 23.6023C43.4617 23.538 43.5106 23.4672 43.592 23.4672H45.7359C46.5829 23.4672 47.2704 22.7852 47.2704 21.9488V19.2499C47.2704 18.4135 46.5797 17.7348 45.7359 17.7348H43.592C43.5106 17.7348 43.4585 17.664 43.4487 17.5996C43.0382 15.4894 42.2106 13.5142 40.9888 11.732C40.9497 11.6774 40.9367 11.5937 40.9953 11.5358L42.5104 10.04C43.1098 9.44806 43.1098 8.48622 42.5104 7.89428L40.5783 5.98667C39.9788 5.39476 39.0047 5.39476 38.4051 5.98667L36.8901 7.48251C36.8315 7.54042 36.7468 7.52433 36.6914 7.48895C34.8864 6.28265 32.8892 5.46555 30.7519 5.06021C30.6867 5.04735 30.615 4.99909 30.615 4.91867V2.80197C30.615 1.9656 29.9243 1.28685 29.0805 1.28685H26.347C25.4999 1.28685 24.8091 1.96882 24.8091 2.80197V4.91867C24.8091 4.99909 24.7374 5.05056 24.6723 5.06021C22.535 5.46554 20.5345 6.28265 18.7328 7.48895C18.6774 7.52755 18.5927 7.54042 18.534 7.48251L17.019 5.98667C16.4195 5.39798 15.4454 5.39798 14.8458 5.98667L12.9138 7.89428C12.6238 8.18058 12.4642 8.56017 12.4642 8.96552C12.4642 9.37084 12.6238 9.75044 12.9138 10.0368L14.4255 11.5294C14.4842 11.5873 14.4679 11.6709 14.4321 11.7256C13.2103 13.5078 12.3827 15.4797 11.9722 17.5932C11.9592 17.6576 11.9103 17.7283 11.8289 17.7283H9.68503C8.83795 17.7283 8.15051 18.4103 8.15051 19.2434V21.9424C8.15051 22.7787 8.84123 23.4608 9.68503 23.4608H11.8289C11.9103 23.4608 11.9624 23.5316 11.9722 23.5959C12.2459 25.0081 12.7346 26.3849 13.4123 27.7007H9.56124H9.55147C9.52866 27.7007 9.50585 27.7103 9.48305 27.7103C9.42114 27.7168 9.35924 27.7296 9.30059 27.7521C9.29082 27.7554 9.27779 27.7554 9.26801 27.7586L0.402647 31.8054C0.0540295 31.9631 -0.0958451 32.3716 0.0638049 32.7159C0.181092 32.9668 0.431973 33.1147 0.695874 33.1147C0.793619 33.1147 0.891364 33.0955 0.985848 33.0504L8.43387 29.6502L5.84366 37.9398C5.77849 38.1488 5.81759 38.374 5.94792 38.551C6.07824 38.7247 6.28676 38.8308 6.50831 38.8308H8.86389V57.3148C8.86389 57.6944 9.17667 58 9.55787 58H70.0966C70.481 58 70.7905 57.6912 70.7905 57.3148V38.8308H73.1461C73.3677 38.8308 73.5729 38.7279 73.7065 38.551C73.8369 38.3773 73.8759 38.1488 73.8108 37.9398L71.2402 29.7109L77.9942 33.0437C78.0952 33.0919 78.1995 33.1176 78.3038 33.1176C78.5579 33.1176 78.8055 32.9793 78.9261 32.7381C79.0987 32.4003 78.9586 31.9885 78.6133 31.818L78.6173 31.8305ZM52.6734 18.3321H50.3146V14.3175H52.9211C53.3055 14.3175 53.615 14.0086 53.615 13.6323C53.615 13.2527 53.3023 12.9471 52.9211 12.9471H50.3146V1.36915H67.4948V12.9471H62.1352C61.7508 12.9471 61.4413 13.2559 61.4413 13.6323C61.4413 14.0119 61.754 14.3175 62.1352 14.3175H67.4948V18.3321H65.136C64.2922 17.2448 63.1811 16.4245 61.9333 15.9066C61.917 15.9002 61.9007 15.8905 61.8812 15.8841C60.9461 15.5045 59.9394 15.289 58.9033 15.289C57.8705 15.289 56.867 15.5013 55.9352 15.8809C55.9124 15.8873 55.8895 15.9002 55.8667 15.9098C54.6221 16.4277 53.5144 17.2513 52.6706 18.3353L52.6734 18.3321ZM61.5388 27.7096H56.2705L56.8178 17.017C57.4825 16.7918 58.1829 16.6631 58.903 16.6631C59.6231 16.6631 60.3235 16.7918 60.9882 17.017L61.5355 27.7096H61.5388ZM13.3352 23.3475C13.1951 22.6237 12.5598 22.0993 11.8267 22.0993H9.68289C9.60143 22.0993 9.53627 22.035 9.53627 21.9546V19.2556C9.53627 19.1752 9.60143 19.1109 9.68289 19.1109H11.8267C12.563 19.1109 13.1951 18.5865 13.3352 17.8628C13.7099 15.9359 14.4658 14.1344 15.58 12.5066C15.9971 11.8987 15.9254 11.0815 15.4074 10.57L13.8923 9.0742C13.8435 9.02595 13.8435 8.91979 13.8923 8.87154L15.8244 6.96393C15.8798 6.90924 15.9743 6.90924 16.0296 6.96393L17.5447 8.45978C18.0627 8.97126 18.8903 9.04525 19.5061 8.63349C21.1547 7.53335 22.9792 6.78699 24.9308 6.41706C25.6639 6.27873 26.1949 5.65144 26.1949 4.92764V2.81094C26.1949 2.73052 26.2601 2.66618 26.3415 2.66618H29.075C29.1565 2.66618 29.2216 2.73052 29.2216 2.81094V4.92764C29.2216 5.65144 29.7527 6.27871 30.4858 6.41706C32.4373 6.787 34.2619 7.53335 35.9105 8.63349C36.5295 9.04525 37.3539 8.97448 37.8719 8.45978L39.3837 6.96714C39.4423 6.90924 39.5335 6.91246 39.5889 6.96714L41.521 8.87475C41.5764 8.92944 41.5764 9.02273 41.521 9.07741L40.006 10.5733C39.4879 11.0847 39.413 11.9019 39.83 12.5099C40.9443 14.1376 41.7002 15.9391 42.0748 17.866C42.2149 18.5898 42.8503 19.1141 43.5833 19.1141H45.7272C45.8086 19.1141 45.8738 19.1784 45.8738 19.2589V21.9578C45.8738 22.0382 45.8086 22.1026 45.7272 22.1026H43.5833C42.847 22.1026 42.215 22.6269 42.0748 23.3507C41.7816 24.8626 41.218 26.3263 40.4197 27.7128H34.3954C36.4155 25.8759 37.6242 23.2767 37.6242 20.5198C37.6242 15.1187 33.1737 10.724 27.7029 10.724C22.2326 10.724 17.7816 15.1183 17.7816 20.5198C17.7816 23.2767 18.9904 25.8759 21.0104 27.7128H14.9861C14.1879 26.3263 13.6243 24.8627 13.331 23.3507L13.3352 23.3475ZM32.1152 27.7096H23.3024C20.7578 26.1848 19.1776 23.4504 19.1776 20.5166C19.1776 15.8714 23.0059 12.0944 27.7077 12.0944C32.4124 12.0944 36.2378 15.8742 36.2378 20.5166C36.2378 23.4504 34.6576 26.1848 32.113 27.7096H32.1152ZM69.4008 56.6424H10.2533V38.8469H69.4008V56.6424ZM72.206 37.4733H7.45107L10.0738 29.0832H69.5866L72.2094 37.4733H72.206ZM58.9067 12.3138C61.4904 12.3138 63.5919 10.239 63.5919 7.68793C63.5919 5.1369 61.4904 3.06204 58.9067 3.06204C56.323 3.06204 54.2216 5.1369 54.2216 7.68793C54.2216 10.239 56.323 12.3138 58.9067 12.3138ZM58.9067 4.43567C60.7247 4.43567 62.2006 5.89611 62.2006 7.68793C62.2006 9.47975 60.7215 10.9402 58.9067 10.9402C57.0919 10.9402 55.6128 9.47975 55.6128 7.68793C55.6128 5.89611 57.0919 4.43567 58.9067 4.43567ZM55.9418 14.2636C55.8506 14.299 55.7659 14.3183 55.6714 14.3183C55.4857 14.3183 55.3098 14.2443 55.1794 14.1156C55.1143 14.0513 55.0687 13.9773 55.0296 13.8969C54.9937 13.8132 54.9742 13.7232 54.9742 13.6299C54.9742 13.5398 54.9937 13.4562 55.0296 13.3629C55.0654 13.2792 55.1143 13.2085 55.1794 13.1441C55.3749 12.9511 55.6812 12.8868 55.9386 12.9962C56.0233 13.0315 56.095 13.0798 56.1601 13.1441C56.2253 13.2085 56.2709 13.2825 56.3067 13.3629C56.3426 13.453 56.3621 13.5366 56.3621 13.6299C56.3621 13.72 56.3426 13.8132 56.3067 13.8969C56.2709 13.9805 56.222 14.0513 56.1601 14.1156C56.095 14.18 56.02 14.225 55.9386 14.2604L55.9418 14.2636Z" fill="#CB3D35"/>
</svg>
