<svg width="56" height="55" viewBox="0 0 56 55" fill="none" xmlns="http://www.w3.org/2000/svg">
<path d="M30.9272 32.3971C30.9676 32.3876 31.0079 32.3781 31.0483 32.3591C31.0863 32.3401 31.1172 32.3163 31.1528 32.2902C31.1742 32.2736 31.2004 32.2641 31.2217 32.2451L34.8892 28.5776C35.0032 28.4635 35.0674 28.3091 35.0674 28.1476C35.0674 27.9861 35.0032 27.8317 34.8892 27.7177L32.6303 25.4588L44.823 13.266C45.215 12.8741 45.6758 12.5701 46.1889 12.3634L49.0393 11.2161C50.0963 10.7886 50.9609 9.99283 51.4716 8.9738L53.8707 4.17564C53.9871 3.94048 53.942 3.65782 53.7567 3.47257L50.4621 0.177958C50.2768 -0.00732005 49.9941 -0.0524522 49.759 0.0639416L44.9608 2.46302C43.9418 2.97372 43.1437 3.83596 42.7185 4.89537L41.5712 7.74577C41.3646 8.25885 41.0605 8.71968 40.6686 9.1116L28.4759 21.3043L26.2193 19.0478C25.9913 18.8198 25.5874 18.8198 25.3594 19.0478L21.6919 22.7153C21.6729 22.7343 21.6634 22.7604 21.6468 22.7842C21.6207 22.8174 21.5945 22.8507 21.5779 22.8887C21.5589 22.9267 21.5518 22.9671 21.5423 23.0074C21.5352 23.0336 21.5209 23.0573 21.5185 23.0858C21.5138 23.1238 21.1242 26.8769 19.1978 28.8032C18.0909 29.9101 16.3165 30.5681 15.0244 30.9244C13.6372 31.3069 12.3687 32.0408 11.3592 33.0504L1.49912 42.9056C0.332807 44.0719 -0.20164 45.7156 0.0691406 47.3071C0.363685 49.034 1.1024 50.5019 2.26871 51.6659C3.43502 52.8322 4.90057 53.5709 6.62747 53.8631C6.90064 53.9106 7.1738 53.932 7.44699 53.932C8.76769 53.932 10.0622 53.3999 11.029 52.4331L20.8842 42.5779C21.8938 41.5684 22.6301 40.2999 23.0102 38.9128C23.3665 37.6206 24.0245 35.8462 25.1314 34.7393C27.0506 32.8201 30.8108 32.421 30.8488 32.4186C30.8773 32.4186 30.9011 32.4042 30.9272 32.3971ZM41.5261 9.9739C42.0345 9.46557 42.4288 8.86937 42.6972 8.20187L43.8445 5.35147C44.1604 4.56996 44.7495 3.93104 45.5025 3.55336L49.9087 1.35142L52.5833 4.02602L50.3814 8.43228C50.0037 9.18764 49.3647 9.7767 48.5833 10.0903L45.7352 11.2376C45.0677 11.506 44.4716 11.9003 43.9632 12.4086L31.768 24.6013L29.3333 22.1666L41.5261 9.9739ZM24.2741 33.8838C22.9796 35.1784 22.2361 37.1618 21.8394 38.5941C21.514 39.7794 20.8845 40.8602 20.0246 41.7224L10.1718 51.5753C9.28345 52.4636 8.03639 52.8722 6.83445 52.6656C5.36172 52.4161 4.11466 51.7891 3.13132 50.808C2.14793 49.8246 1.52324 48.5799 1.27143 47.1049C1.06715 45.903 1.47571 44.6536 2.36173 43.7676L12.217 33.9123C13.0769 33.0524 14.16 32.423 15.3453 32.0975C16.78 31.7009 18.761 30.9597 20.0556 29.6628C22.02 27.6984 22.5829 24.3231 22.6994 23.4275L25.7873 20.3396L33.5951 28.1474L30.7874 30.9551L26.9156 27.0833C26.6781 26.8457 26.2933 26.8457 26.0557 27.0833C25.8182 27.3208 25.8182 27.7056 26.0557 27.9431L29.519 31.4064C28.108 31.6985 25.7777 32.3779 24.2741 33.8838Z" fill="#CB3D35"/>
<path d="M14.4488 36.2895C14.2112 36.0519 13.8265 36.0519 13.5889 36.2895L5.19182 44.6865C4.95429 44.9241 4.95429 45.3089 5.19182 45.5464C5.31059 45.6652 5.46736 45.7246 5.62175 45.7246C5.77615 45.7246 5.93292 45.6652 6.05169 45.5464L14.4488 37.1494C14.6863 36.9118 14.6863 36.5271 14.4488 36.2895Z" fill="#CB3D35"/>
<path d="M16.7832 39.4887L8.38616 47.8858C8.14863 48.1233 8.14863 48.5081 8.38616 48.7457C8.50492 48.8644 8.66169 48.9238 8.81609 48.9238C8.97049 48.9238 9.12726 48.8644 9.24603 48.7457L17.6431 40.3486C17.8806 40.1111 17.8806 39.7263 17.6431 39.4887C17.4056 39.2512 17.0208 39.2512 16.7832 39.4887Z" fill="#CB3D35"/>
<path d="M52.2524 37.7808C50.2927 36.2178 47.8176 35.5076 45.2782 35.7807C43.8697 35.9327 42.4469 35.4007 41.3708 34.3247L36.7887 29.7426C36.5512 29.5051 36.1664 29.5051 35.9288 29.7426C35.6913 29.9801 35.6913 30.3649 35.9288 30.6025L40.5109 35.1846C41.8482 36.5219 43.6344 37.1822 45.4088 36.9898C47.5917 36.7547 49.8104 37.3889 51.4921 38.731C53.82 40.5885 54.9744 43.4531 54.5824 46.3941C54.5634 46.5366 54.4565 46.5936 54.3948 46.615C54.352 46.6292 54.2024 46.6672 54.0765 46.5437L48.7866 41.2539C48.0693 40.5365 47.0194 40.2705 46.0431 40.565L45.7486 40.6553C43.7889 41.2467 42.2663 42.7694 41.6749 44.729L41.5846 45.0259C41.2901 45.9974 41.5537 47.0497 42.2735 47.767L47.5633 53.0569C47.675 53.1685 47.656 53.2944 47.6346 53.3562C47.6156 53.4108 47.5538 53.5415 47.3757 53.5652C44.7866 53.9025 42.2402 53.0355 40.3991 51.1946C38.6081 49.4036 37.734 46.9309 37.9976 44.4084C38.1877 42.6103 37.5297 40.8145 36.1972 39.4819L30.8408 34.1232C30.6032 33.8856 30.2185 33.8856 29.9809 34.1232C29.7434 34.3607 29.7434 34.7455 29.9809 34.9831L35.3373 40.3418C36.4109 41.4155 36.9382 42.8502 36.7886 44.2825C36.4845 47.1709 37.4869 50.0047 39.5392 52.0545C41.3516 53.8669 43.7554 54.8526 46.278 54.8526C46.6937 54.8526 47.1118 54.8265 47.5322 54.7719C48.1189 54.6959 48.5987 54.3039 48.7887 53.7481C48.974 53.1994 48.8363 52.6056 48.4253 52.197L43.1355 46.9071C42.734 46.5057 42.5868 45.919 42.7507 45.3774L42.8409 45.0805C43.316 43.5128 44.5346 42.2943 46.1046 41.8192L46.3992 41.7289C46.9431 41.565 47.5275 41.7123 47.9289 42.1137L53.2187 47.4036C53.6297 47.8169 54.2307 47.9547 54.7865 47.767C55.3304 47.5841 55.7152 47.1185 55.7888 46.5556C56.2401 43.1873 54.9175 39.9066 52.2524 37.7808Z" fill="#CB3D35"/>
<path d="M5.29056 17.7169C7.22172 19.2561 9.76097 19.9878 12.2623 19.717C13.6708 19.565 15.0961 20.097 16.1721 21.173L18.9274 23.9284C19.0462 24.0472 19.203 24.1065 19.3574 24.1065C19.5118 24.1065 19.6685 24.0472 19.7873 23.9284C20.0248 23.6909 20.0248 23.3061 19.7873 23.0685L17.0319 20.3131C15.6946 18.9758 13.9084 18.3179 12.134 18.5079C9.95109 18.743 7.73249 18.1088 6.0507 16.7667C3.72289 14.9092 2.56844 12.0446 2.96041 9.10605C2.97941 8.96116 3.0863 8.90415 3.14806 8.88515C3.19082 8.8709 3.34046 8.83289 3.46398 8.95641L8.75384 14.2463C9.47357 14.966 10.5235 15.2297 11.495 14.9351L11.7919 14.8448C13.7492 14.2534 15.2718 12.7308 15.8656 10.7712L15.9558 10.4742C16.2504 9.5027 15.9867 8.45047 15.267 7.73311L9.97714 2.44325C9.8655 2.33161 9.88451 2.20572 9.90588 2.14158C9.92488 2.08695 9.98664 1.9563 10.1648 1.93255C12.7539 1.59763 15.3003 2.46225 17.1414 4.30311C18.9324 6.09411 19.8065 8.56683 19.5404 11.0894C19.3528 12.8875 20.0084 14.6833 21.3409 16.0158L23.4074 18.0823C23.645 18.3199 24.0298 18.3199 24.2673 18.0823C24.5049 17.8448 24.5049 17.46 24.2673 17.2225L22.2008 15.1559C21.1272 14.0823 20.5999 12.6476 20.7495 11.2152C21.0535 8.32682 20.0512 5.49302 17.9989 3.44328C15.8872 1.33395 12.9751 0.341068 10.0056 0.725865C9.42126 0.801876 8.93907 1.19381 8.75142 1.74727C8.56377 2.29597 8.70391 2.8898 9.11485 3.30074L14.4047 8.59061C14.8061 8.99204 14.9534 9.57638 14.7895 10.1203L14.6992 10.4172C14.2242 11.9849 13.0056 13.2035 11.4379 13.6786L11.141 13.7688C10.597 13.9327 10.0127 13.7855 9.61128 13.384L4.32142 8.09417C3.91048 7.68324 3.3095 7.5431 2.75608 7.73074C2.21213 7.91364 1.82735 8.37921 1.75134 8.94217C1.3024 12.3104 2.62307 15.591 5.29056 17.7169Z" fill="#CB3D35"/>
</svg>
