<svg width="62" height="62" viewBox="0 0 62 62" fill="none" xmlns="http://www.w3.org/2000/svg">
<path d="M46.0157 61.9982C47.9317 61.9982 49.8047 61.43 51.3978 60.3656C52.991 59.3011 54.2326 57.7881 54.9659 56.0179C55.6991 54.2477 55.8909 52.2999 55.5172 50.4207C55.1434 48.5415 54.2207 46.8153 52.8659 45.4605C51.511 44.1056 49.7849 43.183 47.9057 42.8092C46.0265 42.4354 44.0786 42.6272 42.3084 43.3605C40.5383 44.0937 39.0253 45.3354 37.9608 46.9285C36.8963 48.5216 36.3281 50.3946 36.3281 52.3106C36.3281 53.5828 36.5787 54.8426 37.0656 56.0179C37.5524 57.1933 38.266 58.2612 39.1656 59.1608C40.0651 60.0604 41.1331 60.7739 42.3084 61.2608C43.4838 61.7476 44.7435 61.9982 46.0157 61.9982ZM46.0157 44.5606C47.5485 44.5606 49.0469 45.0151 50.3214 45.8667C51.5959 46.7183 52.5893 47.9287 53.1758 49.3448C53.7624 50.7609 53.9159 52.3192 53.6169 53.8226C53.3178 55.326 52.5797 56.7069 51.4958 57.7908C50.412 58.8746 49.031 59.6127 47.5277 59.9118C46.0243 60.2108 44.466 60.0573 43.0499 59.4708C41.6338 58.8842 40.4234 57.8908 39.5718 56.6163C38.7202 55.3418 38.2657 53.8434 38.2657 52.3106C38.2657 50.2552 39.0822 48.2839 40.5356 46.8305C41.989 45.3771 43.9603 44.5606 46.0157 44.5606Z" fill="#CB3D35"/>
<path d="M15.9847 61.9982C17.9007 61.9982 19.7737 61.43 21.3668 60.3656C22.96 59.3011 24.2016 57.7881 24.9349 56.0179C25.6681 54.2477 25.8599 52.2999 25.4861 50.4207C25.1123 48.5415 24.1897 46.8153 22.8349 45.4605C21.48 44.1056 19.7539 43.183 17.8747 42.8092C15.9955 42.4354 14.0476 42.6272 12.2774 43.3605C10.5073 44.0937 8.99427 45.3354 7.92978 46.9285C6.8653 48.5216 6.29713 50.3946 6.29713 52.3106C6.29713 54.8799 7.31779 57.344 9.13456 59.1608C10.9513 60.9776 13.4154 61.9982 15.9847 61.9982ZM15.9847 44.5606C17.5175 44.5606 19.0159 45.0151 20.2904 45.8667C21.5649 46.7183 22.5583 47.9287 23.1448 49.3448C23.7314 50.7609 23.8849 52.3192 23.5859 53.8226C23.2868 55.326 22.5487 56.7069 21.4648 57.7908C20.381 58.8746 19 59.6127 17.4967 59.9118C15.9933 60.2108 14.435 60.0573 13.0189 59.4708C11.6028 58.8842 10.3924 57.8908 9.54077 56.6163C8.68918 55.3418 8.23465 53.8434 8.23465 52.3106C8.23465 50.2552 9.05117 48.2839 10.5046 46.8305C11.958 45.3771 13.9293 44.5606 15.9847 44.5606Z" fill="#CB3D35"/>
<path d="M55.2198 51.8265H61.0324C61.2893 51.8265 61.5357 51.7244 61.7174 51.5427C61.8991 51.361 62.0012 51.1146 62.0012 50.8577V15.9824C62.0012 15.7255 61.8991 15.4791 61.7174 15.2974C61.5357 15.1157 61.2893 15.0137 61.0324 15.0137H20.8289C20.572 15.0137 20.3256 15.1157 20.1439 15.2974C19.9622 15.4791 19.8602 15.7255 19.8602 15.9824V44.0764C19.8602 44.3333 19.9622 44.5797 20.1439 44.7614C20.3256 44.9431 20.572 45.0452 20.8289 45.0452C21.0859 45.0452 21.3323 44.9431 21.514 44.7614C21.6956 44.5797 21.7977 44.3333 21.7977 44.0764V16.9512H60.0636V49.889H55.2198C54.9629 49.889 54.7165 49.991 54.5348 50.1727C54.3532 50.3544 54.2511 50.6008 54.2511 50.8577C54.2511 51.1146 54.3532 51.361 54.5348 51.5427C54.7165 51.7244 54.9629 51.8265 55.2198 51.8265Z" fill="#CB3D35"/>
<path d="M25.1876 51.8262H36.8127C37.0696 51.8262 37.316 51.7241 37.4977 51.5424C37.6794 51.3608 37.7814 51.1144 37.7814 50.8574C37.7814 50.6005 37.6794 50.3541 37.4977 50.1724C37.316 49.9907 37.0696 49.8887 36.8127 49.8887H25.1876C24.9306 49.8887 24.6842 49.9907 24.5026 50.1724C24.3209 50.3541 24.2188 50.6005 24.2188 50.8574C24.2188 51.1144 24.3209 51.3608 24.5026 51.5424C24.6842 51.7241 24.9306 51.8262 25.1876 51.8262Z" fill="#CB3D35"/>
<path d="M0.968756 51.8264H6.7813C7.03823 51.8264 7.28464 51.7243 7.46632 51.5427C7.648 51.361 7.75006 51.1146 7.75006 50.8577C7.75006 50.6007 7.648 50.3543 7.46632 50.1726C7.28464 49.991 7.03823 49.8889 6.7813 49.8889H1.93751V33.9044C1.93751 29.0025 6.46646 24.7012 11.6251 24.7012H19.8595V44.5607C19.8595 44.8177 19.9616 45.0641 20.1433 45.2457C20.325 45.4274 20.5714 45.5295 20.8283 45.5295C21.0852 45.5295 21.3316 45.4274 21.5133 45.2457C21.695 45.0641 21.7971 44.8177 21.7971 44.5607V23.7324C21.7971 23.4755 21.695 23.2291 21.5133 23.0474C21.3316 22.8657 21.0852 22.7637 20.8283 22.7637H11.6251C5.42989 22.7637 -1.90735e-06 27.9707 -1.90735e-06 33.9044V50.8577C-1.90735e-06 51.1146 0.102062 51.361 0.283741 51.5427C0.465418 51.7243 0.711826 51.8264 0.968756 51.8264Z" fill="#CB3D35"/>
<path d="M41.172 45.5295C41.429 45.5295 41.6754 45.4275 41.8571 45.2458C42.0387 45.0641 42.1408 44.8177 42.1408 44.5608V15.9824C42.1408 15.7255 42.0387 15.4791 41.8571 15.2974C41.6754 15.1157 41.429 15.0137 41.172 15.0137C40.9151 15.0137 40.6687 15.1157 40.487 15.2974C40.3053 15.4791 40.2033 15.7255 40.2033 15.9824V44.5608C40.2033 44.8177 40.3053 45.0641 40.487 45.2458C40.6687 45.4275 40.9151 45.5295 41.172 45.5295Z" fill="#CB3D35"/>
<path d="M30.2206 16.9508H41.1724C41.4228 16.951 41.6635 16.8542 41.8441 16.6809C42.0247 16.5075 42.1312 16.2709 42.1412 16.0208C42.1412 15.7447 42.3301 9.16197 36.0089 3.17989C33.0833 0.404394 29.1308 -0.656396 25.6723 0.404394C24.4141 0.748143 23.2716 1.42426 22.3648 2.36177C21.4579 3.29928 20.8202 4.46361 20.5185 5.73256C19.884 8.6679 20.4555 11.4337 22.1363 13.5117C23.9382 15.735 26.8009 16.9508 30.2206 16.9508ZM40.1504 15.0133H30.2206C27.3967 15.0133 25.0668 14.0445 23.6621 12.3153C22.3591 10.6974 21.9232 8.5129 22.4318 6.16366C22.6622 5.2294 23.1394 4.37418 23.8134 3.6874C24.4874 3.00062 25.3335 2.50749 26.2632 2.25957C29.0339 1.40221 32.255 2.29347 34.6721 4.58458C38.9976 8.67759 39.9421 13.1242 40.1504 15.0133Z" fill="#CB3D35"/>
<path d="M52.0663 16.9509C55.4908 16.9509 58.3632 15.7351 60.1312 13.5311C61.812 11.4483 62.3835 8.68736 61.749 5.75202C61.4504 4.47951 60.814 3.31112 59.907 2.36999C58.9999 1.42886 57.8558 0.74983 56.5952 0.404475C53.1561 -0.656314 49.2084 0.404476 46.2828 3.17512C39.9568 9.16689 40.2038 15.7496 40.2038 16.0257C40.215 16.275 40.322 16.5103 40.5025 16.6827C40.683 16.8551 40.923 16.9511 41.1726 16.9509H52.0663ZM53.873 1.93511C54.6018 1.9332 55.3268 2.04097 56.0236 2.2548C56.9534 2.50273 57.7995 2.99586 58.4735 3.68264C59.1475 4.36942 59.6246 5.22463 59.8551 6.1589C60.3637 8.51298 59.9277 10.6975 58.6102 12.3154C57.22 14.0446 54.8902 15.0133 52.0663 15.0133H42.1898C42.3787 13.1291 43.2893 8.68251 47.6148 4.58467C49.2878 2.93748 51.5258 1.98998 53.873 1.93511Z" fill="#CB3D35"/>
</svg>
